/* XPM */
static char *_0167545dc3a49b6daf0a2860596084c8lURn9yaWiNFnlsi[] = {
/* columns rows colors chars-per-pixel */
"43 49 223 2 ",
"   c #0F0D0E",
".  c #100C0C",
"X  c #040416",
"o  c #090714",
"O  c #0C0A14",
"+  c #02031C",
"@  c #09071A",
"#  c #0C0B1C",
"$  c #110D15",
"%  c #110D1A",
"&  c #131113",
"*  c #1C1516",
"=  c #15131B",
"-  c #1B151B",
";  c #1D1A1D",
":  c #28171B",
">  c #231A1B",
",  c #3D2A1E",
"<  c #000120",
"1  c #0B0723",
"2  c #070826",
"3  c #0D0824",
"4  c #0C0C2A",
"5  c #130C24",
"6  c #1B0D27",
"7  c #1D0829",
"8  c #0F102C",
"9  c #151222",
"0  c #1C1522",
"q  c #1C1924",
"w  c #11122D",
"e  c #1C1129",
"r  c #0B0838",
"t  c #1B1B36",
"y  c #241D25",
"u  c #2A1C22",
"i  c #28152B",
"p  c #211D29",
"a  c #2F1A2C",
"s  c #361D2C",
"d  c #371336",
"f  c #2A2224",
"g  c #26202B",
"h  c #2A232B",
"j  c #3C2A26",
"k  c #34232C",
"l  c #2D2A32",
"z  c #292639",
"x  c #28263F",
"c  c #3B2433",
"v  c #312A33",
"b  c #342C3A",
"n  c #393637",
"m  c #363039",
"M  c #3C343D",
"N  c #44282A",
"B  c #542A2E",
"V  c #473727",
"C  c #55372C",
"Z  c #472532",
"A  c #492933",
"S  c #532D35",
"D  c #4B373A",
"F  c #583437",
"G  c #5B3835",
"H  c #53323B",
"J  c #5E3438",
"K  c #613C2C",
"L  c #712835",
"P  c #663939",
"I  c #6D3B3E",
"U  c #753B3C",
"Y  c #52453C",
"T  c #6A4839",
"R  c #6D4C38",
"E  c #744A3B",
"W  c #784C3B",
"Q  c #7F6139",
"!  c #1D175D",
"~  c #2E2C44",
"^  c #3F3641",
"/  c #3B3847",
"(  c #3B374C",
")  c #4D3444",
"_  c #433A43",
"`  c #463A45",
"'  c #792445",
"]  c #6D3B41",
"[  c #713C40",
"{  c #474148",
"}  c #4E464E",
"|  c #55484B",
" . c #434156",
".. c #474659",
"X. c #4E4B5D",
"o. c #544955",
"O. c #564C55",
"+. c #6B4D4B",
"@. c #7A4443",
"#. c #784545",
"$. c #7E4B43",
"%. c #6B5841",
"&. c #63554D",
"*. c #7B5444",
"=. c #684C53",
"-. c #785855",
";. c #6D614B",
":. c #77634D",
">. c #75675E",
",. c #524F60",
"<. c #5D5D6B",
"1. c #5D5D71",
"2. c #765665",
"3. c #76686A",
"4. c #6A6977",
"5. c #726F7C",
"6. c #841C2A",
"7. c #90343C",
"8. c #C82C34",
"9. c #82543A",
"0. c #945E3F",
"q. c #8E6936",
"w. c #94623C",
"e. c #963347",
"r. c #824D43",
"t. c #894E48",
"y. c #904B47",
"u. c #885645",
"i. c #935D47",
"p. c #975B4A",
"a. c #886042",
"s. c #8B6A43",
"d. c #966746",
"f. c #9B6449",
"g. c #8E774F",
"h. c #9D754C",
"j. c #9A7756",
"k. c #A66A46",
"l. c #A46D4C",
"z. c #B2674C",
"x. c #AB744C",
"c. c #A9794A",
"v. c #B77F47",
"b. c #B47A4D",
"n. c #AD7252",
"m. c #A47957",
"M. c #AD5D71",
"N. c #997167",
"B. c #827077",
"V. c #997579",
"C. c #A37668",
"Z. c #AF7169",
"A. c #A67D79",
"S. c #CA454B",
"D. c #D5494E",
"F. c #CE5278",
"G. c #D9787A",
"H. c #7B865D",
"J. c #A3854F",
"K. c #AD834B",
"L. c #B6854C",
"P. c #AC8351",
"I. c #B68C51",
"U. c #938077",
"Y. c #AE8C6F",
"T. c #B98769",
"R. c #BB8B78",
"E. c #C58F4E",
"W. c #C48D50",
"Q. c #C89657",
"!. c #CE9C51",
"~. c #D29D51",
"^. c #D7AD57",
"/. c #E4B158",
"(. c #C6986C",
"). c #C6837B",
"_. c #CA9D75",
"`. c #CBA56C",
"'. c #D9B875",
"]. c #EBCA61",
"[. c #E4C277",
"{. c #2F3087",
"}. c #777480",
"|. c #8E7784",
" X c #817D86",
".X c #72ACAD",
"XX c #908885",
"oX c #8C8B91",
"OX c #958D96",
"+X c #9A9297",
"@X c #AB8A85",
"#X c #B0958E",
"$X c #A59EA5",
"%X c #B39CA0",
"&X c #A5A4A4",
"*X c #A9A6A7",
"=X c #AAAAA9",
"-X c #B9ABA7",
";X c #AEAFB1",
":X c #BCB2B1",
">X c #B9BAB6",
",X c #D18C88",
"<X c #E79793",
"1X c #CCAC82",
"2X c #D7B586",
"3X c #D3A599",
"4X c #EAA49E",
"5X c #C5AEAA",
"6X c #C7B6B2",
"7X c #EBB7A6",
"8X c #F0BEB6",
"9X c #DCC7B0",
"0X c #EDC8B5",
"qX c #CBCBC4",
"wX c #D3CFC7",
"eX c #D2CFCA",
"rX c #D3D4C9",
"tX c #DCDBD2",
"yX c #F9D8C6",
"uX c #E7E6DB",
"iX c #FEE6D1",
"pX c #EDEAE1",
"aX c #FFFFEF",
/* pixels */
"< < < < < < < < < < < < < < + q & = < 2 @ < < < < < < < < < < < < < < < < < < < < < 1.",
"< < < < < < < < < < < < + e } g q f ' c # < < < < < < < < < < < < < < < < < < < < < 1.",
"< < < < < a + < < < < < @ ^ v C ` } M.F.7 < < < < < < < < < < < < < < < < < < < < < 1.",
"< < < < < i.5 < 4 < < < + # > $.4.) 2.F.d < < < < < < < < < < < < < < < < < < < < < 1.",
"3 < < < < a.a.H i < < < e = P.| D n >.e.7 < < < < < < < < < < < < < < < < < < < < < 1.",
"A < < < < i E.Q.k < c j.D l d.;.;X>X9Xl < < < < < < < < < < < < < < < < < < < < < < 1.",
"[ 2 < 6 1 6 E 2X1X*.'.n.o.} j H.#XyX3XD < < < < < < < < < < < < < < < < < < < < < < 1.",
"G P + R u.1XK.#.`.L.W.=. Xr.G d.).C.f 2 < < < < < < < < < < < < < < < < + < < < < < 1.",
"a i.N r.'.[.I l.!.y.f.o.+.c.J.B 0XZ.b 2 < < < < < < < < < < < < < < < < < < < < < < 1.",
"e [ ] f.!.b.W k.@.l.x.-.).]./.z.3X7X+XB.5 < < < < < < < < < < < < < < < < < < < < < 1.",
"2 A #.l.p.u.7.L l.2XN.p.n.Q.W.T.Z.yX0X>X1.3 < < < < < < < < < < < < < < < < < < < < 1.",
"3 a U t.u.i.z.E.x.^._.T.!.I.E..XT.).7X-XqXp.3 < < < < < < < < < < < < < < < < < < < 1.",
"S i.I.[.~.~.!./.f.f.T.[.2Xm.f.W q.e.A.+X@Xq.@ < < < < < < < < < < < < < < < < < < < 1.",
"E I.b.~.b.l.f.l.b.#.P P t.@XC.W D k.6.#.T @ < < < < < < < < < < < < < < < < < < < < 1.",
"r.l.!.p.E F G P r.c.'.%.J D f : ; D U ] u < < < < < < < < < < < < < < < < < < < < < 1.",
"d.r.k.S > > > : r.#.u.N.G j.>   . u 0.0.j < < < < < < < < < < < < < < < < < < < < < 1.",
"d.c J : * > * d.n.t.H ^ _ n   * * q.s.f.V + + < < < < < < < < < < < < < < < < < < < 1.",
"i < 3 E V * > i.W j.J.; * * ; & v &.Z.+X9.+ < < < < < < < < < < < < < < < < < < < < 1.",
"+ + < Z 9.N B K.P P T q ; & . * | b.+XrXR.> < < < < < < < < < < < < < < < < < < < < 1.",
"< + + 1 Z t.x.k.P r.# + ; f Y ;.^.#XeXpXY.K + < < < < < < < < < < < < < < < < < < < 1.",
"< < < < 1 a @.I [ E < # & & P.~.Y.qX@X@X7.w.+ < < < < < < < < < < < < < < < < < < < 1.",
"< < < < < < 5 A y.G < < f :.I.Q.-XM.S.8.S.z.0 < < < < < < < < < < < < < < < < < < < 1.",
"< < < < < < < 1 F 5 < < * R -._.5XG.<XD.8Xz.> + < < < + < < < < < < < < < < < < < < 1.",
"< < < < < < < < < < < + ; D I.5X:XG.,XG.4X(., + < < < < < < < < < < < < < < < < < < 1.",
"< < < < < < < < < < < O v } L.uXOX$X$X:X:XU.T + < < < < < < < < < < < < < < < < < < 1.",
"< < < < < < < < < < + - ` g.V.rXR.$.7XiXiX,XQ l { / < < < < < < < < < < < < < < < < 1.",
"< < < < < < < < < < O h } P.6X>XD k &.>.3.D s.* Y ;.2 + < < < < < < < < < < < < < < 1.",
"< < < < < < < < < @ > M O.K.uXB.& = M 3.#Xv K.f %.V...2 < < < < < < < < < < < < < < 1.",
"< < < < < < < < + - h { g.C.aXO.p # ^ 3.3.u c.M , XX=X5.x 2 + < < < < < < < < < < < 1.",
"< < < < < < < < O u M } I.%XaX2.u + | O.O.q k.&.; x +XqXoX .w < < < < < < < < < < < 1.",
"< < < < < < < O y h } &.k.o.XX_ q + | O.n p D J.g X 8 ,.rX*X5.x < < < < < < < < < < 1.",
"< < < < < < X > g M } g.K m } p < + h } n + Z J.^ $ < < w &XqXoX..4 < < < < < < < < 1.",
"< < < < < o > y v } } m.j v { 9 < + p { h + s J.` ; + < < w ( uX=X4.~ < < < < < < < 1.",
"< < + < + $ * p _ } } h.u _ b @ < + - b h + < W.{ * X < < < < < >XqXoXX.4 + < < < < 1.",
"< < < < X . = l } } &.q._ } h + < < # a b O < v.{ O + + < < < < < <.qX*X4.~ < + < < 1.",
"< < < < X @ > ^ } o.:.u.} } q < < < o y b - + v.} 0 < < < < < < < + 8 *XqXoXX.4 < < 1.",
"< < < < < @ * ` } } j.%.} { % < < < + ; h p + v.D + < < < < < < < < < < <.rX&X4.~ < 4.",
"< < < < < X + l O.} K.) } _ + < < < + * y p + b.g < < < < < < < < < < < < z =X>XoXX.4.",
"< < < < < < < 5 _ | c.) } v < < < < + $ h y < y.@ < < < < < < < < < < < < < < 4.qX$X}.",
"< < < < < < < < = %.9.m } 0 < < < < < O y - + a < < < < < < < < < < < < < < < < 8 &XwX",
"< < < < < < < < < k U l ` # < < < < < + > O < < < < < < < < < < < < < < < < < < < < 4.",
"< < < < < < < < < + 5 p n @ < < < < < + q O < < < < < < < < < < < < < < < < < < < < 1.",
"< < < < < < < < < < < p h + < < < < < 9 u / 2 < < < < < < < < < < < < < < < < < < < 1.",
"< < < < < < < < < < t  XX.~ < < < < < 5.&X$X8 < < < < < < < < < < < < < < < < < < < 1.",
"< < < < < < < < < < ` wX*X}.< < < < t OX|.tX..< < < < < < < < < < < < < < < < < < < 1.",
"< < < < < < < < < r +X|.L B.< < < < 2 H L ) ,.< < < < < < < < < < < < < < < ! r < < 1.",
"< < < < < < < < < 4 h B A q < < < < + p H 0 + < < < < < < < < < < < < < < r {.! < < 1.",
"< < < < < < < < < < X p ( l 3 < < < + l m O + < < < < < < < < < < < < < < < r 2 < < 1.",
"< < < < < < 2 < < < @ O g _ 4 < < < < O O + < < < < < < < < < < < < < < < < < < < < 1."
};
