/* XPM */
static char *b177ae5ec54d4fc4f32ab4d35c35a971A3SQ96KcpF8vRtuC[] = {
/* columns rows colors chars-per-pixel */
"43 49 216 2 ",
"   c #0C0B0D",
".  c #120D0E",
"X  c #050415",
"o  c #0C0A15",
"O  c #02021C",
"+  c #08071A",
"@  c #0C0A1C",
"#  c #110E14",
"$  c #120D1A",
"%  c #171417",
"&  c #1D1717",
"*  c #15121A",
"=  c #1B151A",
"-  c #1D191E",
";  c #26171B",
":  c #21191D",
">  c #342119",
",  c #000120",
"<  c #0B0623",
"1  c #070826",
"2  c #0B0822",
"3  c #0D0D2A",
"4  c #140D24",
"5  c #1B0E27",
"6  c #0F102C",
"7  c #161423",
"8  c #1C1525",
"9  c #1D1925",
"0  c #10112D",
"q  c #1C132A",
"w  c #1F1B29",
"e  c #0B0838",
"r  c #161633",
"t  c #221427",
"y  c #251D24",
"u  c #23142A",
"i  c #241D29",
"p  c #2B1929",
"a  c #321D22",
"s  c #351D2D",
"d  c #381E2E",
"f  c #201E38",
"g  c #3C1E30",
"h  c #1F2039",
"j  c #2D2324",
"k  c #24222B",
"l  c #2B232B",
"z  c #352226",
"x  c #3B212E",
"c  c #3B2B2A",
"v  c #2C2531",
"b  c #332B33",
"n  c #3B2A36",
"m  c #362E3B",
"M  c #3A3439",
"N  c #3A323D",
"B  c #40331F",
"V  c #462729",
"C  c #49362B",
"Z  c #57392D",
"A  c #4B2A34",
"S  c #442B38",
"D  c #473738",
"F  c #583536",
"G  c #662F2F",
"H  c #762A32",
"J  c #62343A",
"K  c #663C3A",
"L  c #6B3B3D",
"P  c #713C3D",
"I  c #7B3E3D",
"U  c #56452C",
"Y  c #5E4A37",
"T  c #664D27",
"R  c #664637",
"E  c #6E433E",
"W  c #744A3C",
"Q  c #795737",
"!  c #1D175D",
"~  c #332F46",
"^  c #3A3646",
"/  c #483746",
"(  c #443C45",
")  c #463D4A",
"_  c #742143",
"`  c #753D41",
"'  c #4D454E",
"]  c #5B4B45",
"[  c #494859",
"{  c #534452",
"}  c #544B56",
"|  c #6A4743",
" . c #774642",
".. c #7C4643",
"X. c #6A5B49",
"o. c #785647",
"O. c #694B58",
"+. c #795A56",
"@. c #75634C",
"#. c #79674F",
"$. c #7A7258",
"%. c #575465",
"&. c #5D5D71",
"*. c #645E69",
"=. c #795C64",
"-. c #68626A",
";. c #766A6B",
":. c #6A6875",
">. c #726878",
",. c #71707B",
"<. c #983438",
"1. c #87543B",
"2. c #946E39",
"3. c #882F48",
"4. c #834B46",
"5. c #834A48",
"6. c #8A5346",
"7. c #8E5C44",
"8. c #855749",
"9. c #925E45",
"0. c #945A4A",
"q. c #A75E4A",
"w. c #AF4456",
"e. c #8A6143",
"r. c #9B6348",
"t. c #986948",
"y. c #8E774F",
"u. c #9A7249",
"i. c #926951",
"p. c #966559",
"a. c #947850",
"s. c #A46B4A",
"d. c #A56B4B",
"f. c #A37446",
"g. c #A97649",
"h. c #AA734C",
"j. c #B57A4B",
"k. c #B3794D",
"l. c #A36E52",
"z. c #A67855",
"x. c #B47A50",
"c. c #BC795E",
"v. c #874A64",
"b. c #AB5861",
"n. c #9A6667",
"m. c #957773",
"M. c #AE786A",
"N. c #C0594D",
"B. c #C15C7F",
"V. c #CA676A",
"C. c #DB6365",
"Z. c #99824C",
"A. c #A3874F",
"S. c #AD834B",
"D. c #B7864C",
"F. c #AE8859",
"G. c #B88757",
"H. c #BD8954",
"J. c #B5915B",
"K. c #BDA05C",
"L. c #91837E",
"P. c #B98962",
"I. c #B89569",
"U. c #C7934F",
"Y. c #CB9552",
"T. c #C79759",
"R. c #D7A752",
"E. c #E5BB53",
"W. c #C59762",
"Q. c #CB837C",
"!. c #C59F74",
"~. c #D5AD6C",
"^. c #D5AF74",
"/. c #E1BF7D",
"(. c #EBC354",
"). c #2F3087",
"_. c #7C7C84",
"`. c #817F89",
"'. c #E45C83",
"]. c #88868D",
"[. c #998B85",
"{. c #8C8A92",
"}. c #988E94",
"|. c #939196",
" X c #99969B",
".X c #AC898A",
"XX c #A6948B",
"oX c #A8999C",
"OX c #B4A292",
"+X c #AAA7A5",
"@X c #B6A6A6",
"#X c #BABCB5",
"$X c #BDB6B8",
"%X c #D88F90",
"&X c #C59D94",
"*X c #D0B191",
"=X c #E6A89E",
"-X c #C4AEAA",
";X c #DDB4A4",
":X c #D3B7A9",
">X c #C6B9B5",
",X c #E9B7AE",
"<X c #BFC1B9",
"1X c #E3CB99",
"2X c #C9C4BE",
"3X c #F6CBB6",
"4X c #B8C8C4",
"5X c #CCCEC4",
"6X c #D1CFC9",
"7X c #D4D3CC",
"8X c #D9D5D0",
"9X c #DDDCD2",
"0X c #EED9C8",
"qX c #EFDED0",
"wX c #E5E4D9",
"eX c #F6F6E7",
/* pixels */
", , O , , , , 5 , , , , , , , , 8 % X , , 2 , , , , , , , , , , , , , , , , , , , , &.",
", , 4 O , , , d F , 1 O , , 9 { k : x _ b X , , , , , , , , , , , , , , , , , , , , &.",
", , g 4 , , , p D.i A , , + ) l Z ' } B.w., , , , , , , , , , , , , , , , , , , , , &.",
", , d S , , < , t.W.K , , 4 D > L >.( v.'., , , , , , , , , , , , , , , , , , , , , &.",
", , x W , < A 5 7.l.I.w Y F.| A.' M X.+.3., , , O , , , , , , , , , , , , , , , , , &.",
", , s 9.5 q x.*Xg. .1XW.1Xi.b i.-.4X2XOXq , , , , , , , , , , , , , , , , , , , , , &.",
", , u ` F J ~.^.L d.R.l.D.+.( C [ :X3X&Xq , , , , , , , , , , , , , , , , , , , , , &.",
", , < F ` k.k.t.9.d.5.0.5.m.7.K z.Q.p.9 , , , , , , , , , , , , , , , , , , , , , , &.",
", , q x 4.0.0.I <.P P.!.8.M.~.u.` 3Xn.b < , , , , , , , , , , , , , , , , , , , , , &.",
", 4 ..g.!.c.k.q.j.j.W.l.d.j.U.T.q.;X;XXXp., , , , , , , , , , , , , , , , , , , , , &.",
"O s 6.U.U.E.Y.U.(.H.D.^.*X/.P.h.P.;XqX-X@X< , , , , , , , , , , , , , , , , , , , , &.",
", A 4.Y.j.d.6.0.d.U.5. .7.z.7. .F.c.&XoX8X.., , , , , , , , , , , , , , , , , , , , &.",
", 7...6.F z a Z F ..x.t.W J f.M.R <.3. Xm.2.1 , , , , , , , , , , , , , , , , , , , &.",
"t f.p F ; ; & ; ; 4.1./.8.F m.c l e.H { 9.$ , , , , , , , , , , , , O , , , , , , , &.",
"8 < , g Z ; & > U.0.P / S R o.;   & A d.; X , , , , , , , , , , , , , , , , , , , , &.",
", , , 2 E V & C d.E D.n ' ) Y o . > K D.T o , , , , , , , , , , , , , , , , , , , , &.",
", , , , z L K 0...L i.C v M - % % ] u.r.1.o O , , , , , , , , , , , , , , , , , , , &.",
", , , , , A 6.h.F 6.x v % & % & - ] F.oXx.B X , , , , , , , , , , , , , , , , , , , &.",
", , , , , , A L  .9.7 7 + - o % D f.XXwX-X2.o , , , , , , , , , , , , , , , , , , , &.",
", , , , , , < J ..p O O 1 % Q Z.K.*X$XeX7Xp.> X , , , , , , , , , , , , , , , , , , &.",
", , , , , , , 4 s , , , @ = U Y.W.@XXXb.w.N.T + , , , , , , , , , , , , , , , , , , &.",
", , , , , , , , , , , , z Z T.J.Q..X=X'.C.*XQ   , , , , , , , , , , , , , , , , , , &.",
", , , , , , , , , , , , X y $.G.2XV.%XV.C.,Xj.y 9 O O , , , , , , , , , , , , , , , &.",
", , , , , , , , , , , O # m a.&X5X2X$X<X9X>Xj.& l w ~ ) 3 , , , , , , , , , , , , , &.",
", , , , , , , , , , , X y ' F.>X>X.Xn.=X0X0XH.c R N b X.w , , , , , , , , , , , , , &.",
", , , , , , , , , , O $ m ' U.6X[.o.| m.XX[.i.U $ i k P.-.r , , , , , , , , , , , , &.",
", , , , , , , , , , X : ( A..XwX' # o l ' XXp.Y O q k t.+X].:.r , , , , , , , , , , &.",
", , , , , , , , O O : b ' D.>X+XN 9 o j L.;.W o.o 1 w 7 &.wX2X|.-.~ 1 , , , , , , , &.",
", , , , , , , , O . y ^ ' f.9X+X7.t X : ' =.o.@.y , , , X 0 _.9X#X].*.h 1 O , , , , &.",
", , , , , , , , o y l ' #.i.$X}.n 7 O M ;.' Z @.l + , , , , , h ,.5X<X|.&.~ 1 , , , &.",
", , , , , , , O : k M ' A.V ( } t , O * ' ( Z #.m o , , , , , , , h _.2X$X{.%.f , , &.",
", , , , , , O # y l ' ' j.$ b ' 7 , , # ' ( 8 S.m % O , , , , , , , , 0 :.9X#X|.:.f &.",
", , , , , , X : = b ' @.t.y / v @ , , @ N N = S.D   O , , , , , O , , , , 0 :.9X<X].`.",
", , , , , ,   . y / ' y.Z ( ' y O , , X i m p S.( + O , , , , , , , , , , , , , _.eX#X",
", , , , , ,   o l ' ' y.E ' ' 8 , , , O = v n S.) $ , , , , , , , , , , , , , , O 6  X",
", , , , , , O % k ' ' z.F ' ' * , , , , o l N S.b , , , , , , , , , , , , , , , , , &.",
", , , , , , , o 7 ( ' u.b ' ' X , , , , X y n f.8 , , , , , , , , , , , , , , , , , &.",
", , , , , , , O , v ' u.j ' ^ X , , , , O = l P O , , , , , , , , , , , , , , , , , &.",
", , , , , , O , , 4 @.W o ' M O , , , , O % j ; , , , , , , , , , , , , , , , , , , &.",
", , , , , , , , , O Z K X N v O , , , , O @ k o , , , , , , , , , , , , , , , , , , &.",
", , , , , , , , , , 2 u X b v , , , O , , X y o , , , , , , , , , , , , , , , , , , &.",
", , , , , , , , , , , , , v w , , , , , , 2 y w 1 , , , , , , , , , , , , , , , , , &.",
", , , , , , , , , , , , r ^ m r , , , , , ~ -.{.r , , , , , , , , , , , , , , , , , &.",
", , , , , , , , , , , , ^ 8X X~ , , , , , ,.@X7X[ , , , , , , , , , , , , , , , , , &.",
", , , , , , , , , , , , _.oX` _., , , , , O.G O.].1 , , , , , , , , , , , , , , , , &.",
", , , , , , , , , , , 3 [ G g ~ , , , , , $ / a < , , , , , , , , , , , , , , , , , &.",
", , , , , , , , , , , , O = ~ b 2 , , , , v ) 9 O , , , , , , , , , , , , 1 ! e , , &.",
", , , , , , , , , , , , , X i / v , , , , + # X , , , , , , , , , , , , , e ).! , , &.",
", , , , , , , , , , , , , O o * @ , , , , , , , , , , , , , , , , , , , , , e 1 , , &."
};
