/* XPM */
static char *_e33ec0b501041d6cf6ff315d23333e2QVNQ26Iz3sU473Iz[] = {
/* columns rows colors chars-per-pixel */
"50 50 212 2 ",
"   c #09080D",
".  c #110D0F",
"X  c #040415",
"o  c #0C0A15",
"O  c #02021D",
"+  c #09061A",
"@  c #07081D",
"#  c #0B0A1C",
"$  c #110E13",
"%  c #120C1B",
"&  c #151315",
"*  c #1E1617",
"=  c #14121B",
"-  c #1B161C",
";  c #1D191D",
":  c #21141E",
">  c #20191D",
",  c #2B1B1D",
"<  c #000120",
"1  c #0A0623",
"2  c #070826",
"3  c #0C0921",
"4  c #05042C",
"5  c #0E0D2B",
"6  c #120C24",
"7  c #1B0E25",
"8  c #161322",
"9  c #1B1423",
"0  c #1E1A25",
"q  c #14122C",
"w  c #1C1328",
"e  c #0B0D3D",
"r  c #161734",
"t  c #1C1A34",
"y  c #231D23",
"u  c #26152A",
"i  c #241D2A",
"p  c #341E2A",
"a  c #201E38",
"s  c #3C1E30",
"d  c #1F2039",
"f  c #24212B",
"g  c #2A232B",
"h  c #2B282C",
"j  c #332225",
"k  c #362728",
"l  c #3B222E",
"z  c #262432",
"x  c #2D2632",
"c  c #322A34",
"v  c #342C3B",
"b  c #3B2E39",
"n  c #3B373A",
"m  c #3A333C",
"M  c #43271F",
"N  c #611F30",
"B  c #452929",
"V  c #433424",
"C  c #53382E",
"Z  c #432432",
"A  c #442D33",
"S  c #4F2F34",
"D  c #473539",
"F  c #543634",
"G  c #5D3539",
"H  c #62252E",
"J  c #613439",
"K  c #68393A",
"L  c #713E3C",
"P  c #57433A",
"I  c #634C2D",
"U  c #6A4A3A",
"Y  c #774938",
"T  c #775139",
"R  c #120F49",
"E  c #2C2B44",
"W  c #352D43",
"Q  c #343244",
"!  c #3D3541",
"~  c #343249",
"^  c #3F3D52",
"/  c #1F1963",
"(  c #22307A",
")  c #433A45",
"_  c #453E49",
"`  c #513441",
"'  c #763E41",
"]  c #454049",
"[  c #4D454E",
"{  c #594A49",
"}  c #444155",
"|  c #544954",
" . c #5D5857",
".. c #6A4645",
"X. c #764241",
"o. c #7C4544",
"O. c #685949",
"+. c #735543",
"@. c #74524A",
"#. c #6F4F59",
"$. c #675B59",
"%. c #7D5F5A",
"&. c #76644D",
"*. c #4F4D61",
"=. c #535363",
"-. c #5D5D6B",
";. c #715E69",
":. c #766669",
">. c #776B69",
",. c #686673",
"<. c #756976",
"1. c #77747E",
"2. c #8A2C34",
"3. c #85473D",
"4. c #86563B",
"5. c #916A39",
"6. c #8C254E",
"7. c #A13759",
"8. c #854B46",
"9. c #865643",
"0. c #8A5446",
"q. c #8B5A43",
"w. c #955948",
"e. c #8F5D5F",
"r. c #B34F4D",
"t. c #886347",
"y. c #986845",
"u. c #9B6449",
"i. c #8B7546",
"p. c #8E774F",
"a. c #99754B",
"s. c #87625A",
"d. c #986759",
"f. c #8F7250",
"g. c #9C7559",
"h. c #A56E49",
"j. c #A46C4B",
"k. c #B46B4B",
"l. c #A47348",
"z. c #A9714C",
"x. c #AC7B4B",
"c. c #B67D4F",
"v. c #AB7959",
"b. c #B47B54",
"n. c #874A64",
"m. c #986665",
"M. c #886972",
"N. c #877974",
"B. c #AD726F",
"V. c #D8565A",
"C. c #C65B70",
"Z. c #D36E70",
"A. c #798261",
"S. c #A3874F",
"D. c #B5834C",
"F. c #B9884D",
"G. c #A68153",
"H. c #BD8654",
"J. c #B88659",
"K. c #BB945A",
"L. c #91837E",
"P. c #AB8966",
"I. c #BA8C6A",
"U. c #B99075",
"Y. c #C1874E",
"T. c #CB9751",
"R. c #C9A45C",
"E. c #D5A456",
"W. c #E5BB53",
"Q. c #C49766",
"!. c #C39B78",
"~. c #D5AC73",
"^. c #EBC354",
"/. c #E8C87B",
"(. c #31338D",
"). c #737C85",
"_. c #807D88",
"`. c #A57A81",
"'. c #E45C83",
"]. c #85828A",
"[. c #8C8C91",
"{. c #908D92",
"}. c #AA8186",
"|. c #A79295",
" X c #B29D99",
".X c #9FA09F",
"XX c #B1A299",
"oX c #A99EA3",
"OX c #ABA6A6",
"+X c #ACACAA",
"@X c #B3ADB1",
"#X c #B4B4B2",
"$X c #BAB9B6",
"%X c #CC938B",
"&X c #C9AE8C",
"*X c #D9B987",
"=X c #E6A89E",
"-X c #D6B0A4",
";X c #C5B8B7",
":X c #E0C591",
">X c #D8C5BA",
",X c #F3C9B3",
"<X c #CCCCC5",
"1X c #D3CCC7",
"2X c #D4D3CB",
"3X c #D5D7CB",
"4X c #DAD5D1",
"5X c #F2D5C2",
"6X c #E8E8DC",
"7X c #F6E3D2",
"8X c #EEEDE1",
"9X c #F6F6E7",
/* pixels */
"< < < < < < 1 < < < < < < < O X O < < O < < < < < < < < < < < < < < < < < < < < < < < < < < < < < < ",
"< 6 < < < < Z A < < < < < < 9 & # O O @ < < < < < < < < < O < < < < < < < < < < < < < < < < < < < < ",
"< s 1 < < < A D.w Z O O 8 ) y y s N x O < < < < < < < < < < < < < < < < < < < < < < < < < < < < < < ",
"< s u O < < 3 x.F.K < # | D A ] } C.7.O < < < < < < < < < < < < < < < < < < < < < < < < < < < < < < ",
"< l U < < s w 9.I.P.q P K.U ..,.! n.'.< < < < < < < < < < < < < < O < < < < < < O < < < < < < < < < ",
"< p u.8 u j.XXx.X.:Xl./.d.G.[ _ { s.6.< < < < < < < < < < < < < < < < < < < < < < < < < < < < < < < ",
"< u ' G G ~.~.Y y.E.u.J.` v.$.$X>XXXu < < < < < < < < < < < < < < < < < < < < < < < < < < < < < < < ",
"< 1 G ' z.Y.4.j.z.0.w.e.{ C A.N.5X%X8 < < < < < < < < < < < < < < < < < < < < < < < < < < < < < < 2 ",
"< 7 Z 0.w.u.3.L L v.Q.m.Q.s.v.Z.d.; < < < < < < < < < < < < < < < < < < < < < < < < < < < < < < < < ",
"6 o.y.!.z.l.r.k.c.T.0.u.c.T.v.,Xd.c 6 < < < < < < < < < < < < < < < < < < < < < < < < < < < < < < < ",
"p 0.D.Y.W.E.Y.^.D.F.*X*X~.K.x.,X-XoX:.4 < < < < < < O < < < < < < < < < < < < < < < < < < < < < < < ",
"S 0.T.Y.j.w.j.D.Y.8.8.l.I.t.%.%X5X-X2X| 1 < < < < < < < < < < < O < < < < < < < < < < < < < < < < < ",
"q.X.w.K j j K K 0.b.q.K J w.).9.B.>X@XQ.u < < < < < < < < < < < < < < < < < < < O < < < < < < < < < ",
"y.p G , > > > , X.8./.E.9.k I y.2.M.<.y.@ O < < < < < < < < < < < < < < < < < < < < < < < < < < < < ",
"6 < l G > * M c.u.K S S @.* - P 8.N L & O 4 ( 4 < O < < < < < < < < < < < < < < < < < < < < < < < < ",
"< < 3 U B * C z.+.H.[ m +.-   & , 5.B : q O R < < < < < < < < < < < < < < < < < < < < < < < < < < 2 ",
"< < < p Y J u.9.L g.D ] h ; . j Y x.I - @ < < < < < < < < < < < < < < < < < < < < < < < < O < < < < ",
"< < < 1 S u.z.J o.l 9 = . & & { 4.u.3.- % O < < < < < < < < < < < < < < < < < < < < < O < < < < < < ",
"< < < < < S K ' 9.q h & & & > { H.XXv.k : O < O < < < < < < < < < < < < < < < < < < < < < < < < < < ",
"< < < < < 6 J o.y O @ @ & & D x.|.3X;X5.y % < O < < < < < < < < < < < < < < < < < < < < < < < < < < ",
"< < < < < < 7 s < < < = Y i.R.&X$X4X;Xj.M > O O < < < < < < < < < < < < < < < < < < < < < < < < < < ",
"< < < < < < < < < < < % V E.Q. X`.r.V.r.I > = O < < < < < < < < < < < < < < < < < < < < < < < < < < ",
"< < < < < < < < < < h B R.K.!.}.=XZ.V.%XT > h % < < < < < < < < < < < < < < < < < < < < < < < < < < ",
"< < < < < < < < < O O > $.J. XB.%XC.V.=X5.. c h 3 _ Q 2 O < < < < < < < < < < < < < < < < < < < < 1 ",
"< < < < < < < < < < $ c [ Q.;XOX@X#X>X#Xy.& j D ] c P q < < < < < < < < < < < < < < < < < < < < < < ",
"< < < < < < < < < O $ ) &.U.1Xm.m.=X5X7X~.V G F h c P.1.^ z < < < < < < < < < < < < < < < < < < < < ",
"< < < < < < < < < X y [ S.}.OXG F s.N.>.T U # O i h g.+X.X_.).W q < < < < < < < < < < < < < < < < < ",
"< < < < < < < < O $ c [ Y.6X].- - y $.XXs.a.= O 5 0 0 =.$X6X2X+X[.<.} r 2 < < < < < < < < < < < < < ",
"< < < < < < < < $ i m O.b.8X| f = ; L.>.D D.g O < < < < < t -.$X<X<X+X{.,._ t 2 < < < < < < < < < < ",
"< < < < < < O O > g ] S.}.8X#.z 2 & [ ;.b x.n o < < < < < < < < ~ -.$X4X2X+X[.-.^ t 2 < < < < < < 1 ",
"< < < O < < O % i h [ S.:.;X_ f O h :.[ y 9.O.- < < < < < < < < < < < d -.OX8X3X@X[.,.} a < < < < < ",
"< < < < < O O y i m [ b.n | 0 < O # ] ] 8 T &.g X < < < < < < < < < < < < < z ).$X6X2XOX].,.~ t < < ",
"< < < < < < o y g _ | j.m m = O < X v [ 9 F f.c % O O < < < < < < < < < < < < < < < ,.[.9X2X$X#X).< ",
"< < < < < X ; > x [ { y.) v # < < O ; v i - a.c . O < < < < < < < < < < < < < < < < < < < < < < < < ",
"< < < < < X . y b [ p.@.[ ! + < < < % c v , a.m X < < < < < < < < < < < < < < < < < < < < < < < < < ",
"< < < < < X $ i ) [ p.@.[ m X < < O X y v p t.{ o < < < < < < < < < < < < < < < < < < < < < < < < < ",
"< < < < < O & y _ [ p.@.| c O O < < < - x f 5.{ o O < < < < < < < < < < < < < < < < < < < < < < < 2 ",
"< < < < < < + 8 _ [ G...[ g < O < < < = h h 4.F < < < < < < < < < < O < < < < < < < < < < < < < < < ",
"< < < < < < < O m [ F.D [ g < < < < O X g z J 7 < < < < < < O < < < < < < < < < < < < < < < < < < < ",
"< < < < < < < < @ m D.g [ g < < < < < + y i # O < < < < < < < < < < < < < < < < < < < < < O < < < < ",
"< < < < < < < < < # w.> [ g O O < < < O ; y O O O < < < < < < < < < < < < < < < < < < < < < < < < < ",
"< < < < < < < < < < 7 X ) - < < < < < O = 0 O < < < < < < < < < < < < < < < < < < < < < < < < < < < ",
"< < < < < < < < < < < O c 9 < < < < < < = c t < < < < < < < < < < < < < < < < < < < < < < < < < < < ",
"< < < < < < < < < < < E | ! r < < < < e 1.[.*.< < < < < < < < < < < < < < < < < < < < < < < < < < 2 ",
"< < < < < < < < < < < =.9X;X~ < < < < _ oX$X@X2 < < < < < < < < < < < < < < < < < < < < < < < < < < ",
"< < < < < < < < < < 2 ).M.' ,.< < < < t H H  .~ < < < < < < < < < < < < < < < < < < < < O < < < < < ",
"< < < < < < < < < < 5 m N Z z < < < < < y ` ; O < < < < < < < < < < < < < < < < < 4 / 4 < < < < < < ",
"< < < < < < < < < < O O . W v 8 < < < < p ) = O < < < < < < < < < < < < < < < < < R (.R < < < < < < ",
"< < < < < < < < < < < < o y m i < < < < @ # + < < < < < < < < < < < < < < < < < < < e < < < < < < < ",
"< < < < < < < 2 < < < < O X # 3 < < < < < < < < < < < < < < < < < < < < < < < < < < O < < < < < < < "
};
