/* XPM */
static char *d26ebfc2a2834b83a8ed05382f1ce75709kPUwPlxdVDOfHR[] = {
/* columns rows colors chars-per-pixel */
"50 50 215 2 ",
"   c #0C0A0D",
".  c #050515",
"X  c #080715",
"o  c #0B0A14",
"O  c #02031D",
"+  c #09071B",
"@  c #07081D",
"#  c #0D0B1A",
"$  c #110C10",
"%  c #120D1C",
"&  c #151215",
"*  c #1C1617",
"=  c #16131A",
"-  c #1B151B",
";  c #1D191C",
":  c #26161A",
">  c #23191B",
",  c #32281B",
"<  c #000120",
"1  c #0A0622",
"2  c #070826",
"3  c #0C0923",
"4  c #05042C",
"5  c #0C0C29",
"6  c #140C25",
"7  c #0F1027",
"8  c #141125",
"9  c #1A1624",
"0  c #191529",
"q  c #0B0D3D",
"w  c #1B1A34",
"e  c #271726",
"r  c #251E25",
"t  c #211429",
"y  c #221C2A",
"u  c #2D1C2B",
"i  c #341D26",
"p  c #331D2D",
"a  c #201E38",
"s  c #3C1E30",
"d  c #1F2039",
"f  c #2C2326",
"g  c #27232A",
"h  c #2B232B",
"j  c #372728",
"k  c #3C242E",
"l  c #2D2631",
"z  c #26243D",
"x  c #29273F",
"c  c #332B34",
"v  c #352D3C",
"b  c #392F3A",
"n  c #39333A",
"m  c #3B343C",
"M  c #4B3C1E",
"N  c #5C1C3B",
"B  c #611F23",
"V  c #462A2B",
"C  c #4F322B",
"Z  c #543528",
"A  c #432432",
"S  c #432A33",
"D  c #492F3A",
"F  c #582D36",
"G  c #4D3335",
"H  c #4A373B",
"J  c #5B3336",
"K  c #702D34",
"L  c #61353A",
"P  c #653B3B",
"I  c #6B3A3D",
"U  c #4F4130",
"Y  c #5D4731",
"T  c #664A2F",
"R  c #6C4537",
"E  c #63453C",
"W  c #764B3A",
"Q  c #6E513C",
"!  c #795339",
"~  c #120F49",
"^  c #292941",
"/  c #3A2D43",
"(  c #3D3541",
")  c #383546",
"_  c #3E3E52",
"`  c #1F1963",
"'  c #22307A",
"]  c #741E46",
"[  c #433B45",
"{  c #493E48",
"}  c #6F3441",
"|  c #753E41",
" . c #3E4F54",
".. c #484446",
"X. c #4E464E",
"o. c #5C4C46",
"O. c #484555",
"+. c #574A56",
"@. c #684441",
"#. c #7B4643",
"$. c #794946",
"%. c #6E5848",
"&. c #7A5647",
"*. c #665A56",
"=. c #7C5052",
"-. c #78654D",
";. c #5A5768",
":. c #655F6A",
">. c #725864",
",. c #726565",
"<. c #666271",
"1. c #686573",
"2. c #6C6D77",
"3. c #6D6D78",
"4. c #7B6A7B",
"5. c #75737A",
"6. c #8E3537",
"7. c #876436",
"8. c #88374C",
"9. c #C13A41",
"0. c #834C44",
"q. c #874C47",
"w. c #8E5C44",
"e. c #885848",
"r. c #965948",
"t. c #AF5752",
"y. c #8A6445",
"u. c #946445",
"i. c #976847",
"p. c #9D644A",
"a. c #8E774F",
"s. c #98734B",
"d. c #997C4D",
"f. c #8C6C5A",
"g. c #986753",
"h. c #A26947",
"j. c #A46C4B",
"k. c #AB744C",
"l. c #A97A4A",
"z. c #B57949",
"x. c #B47B4D",
"c. c #BB7E4F",
"v. c #AC7C54",
"b. c #A67358",
"n. c #B37A50",
"m. c #954A69",
"M. c #956261",
"N. c #8E6974",
"B. c #897971",
"V. c #947875",
"C. c #B06967",
"Z. c #D0555A",
"A. c #C66C50",
"S. c #CA556B",
"D. c #D17674",
"F. c #E17D7C",
"G. c #A3874F",
"H. c #B4834B",
"J. c #B88A4E",
"K. c #AB8458",
"L. c #BC8954",
"P. c #B98659",
"I. c #91837E",
"U. c #AF8B6D",
"Y. c #B68863",
"T. c #B4A072",
"R. c #C1874D",
"E. c #CA9551",
"W. c #C79A57",
"Q. c #D6A556",
"!. c #C79B67",
"~. c #CCA675",
"^. c #D9B470",
"/. c #EBC354",
"(. c #EDCF7F",
"). c #31338D",
"_. c #7A7A82",
"`. c #8A7985",
"'. c #A57A81",
"]. c #D45C83",
"[. c #86838B",
"{. c #8B8B91",
"}. c #9C8C92",
"|. c #939296",
" X c #99969B",
".X c #AA8E8A",
"XX c #AA9996",
"oX c #B39B99",
"OX c #BBAC9E",
"+X c #ACACA9",
"@X c #B5AAA9",
"#X c #B3ABB1",
"$X c #B8B4B5",
"%X c #BBBDB6",
"&X c #BFBDBA",
"*X c #D0978E",
"=X c #C7A98E",
"-X c #D9B987",
";X c #E8AC9F",
":X c #CBADA1",
">X c #D6B4A1",
",X c #C9BAB4",
"<X c #BFC1B9",
"1X c #E3CB99",
"2X c #C4C3BD",
"3X c #DAC8BE",
"4X c #E9C9B6",
"5X c #AED2CB",
"6X c #CECDC6",
"7X c #D3D2C9",
"8X c #D9DBCF",
"9X c #EAD4C4",
"0X c #F8D5C2",
"qX c #EDEFDF",
"wX c #F8F7E8",
/* pixels */
"< < < < < < < < < < < < < < O O . O < < O < < < < < < < < < < < < < < < < < < < < < < < < < < < < < ",
"< < < < O < 6 < < < < < < < O 9 o @ O O 1 < < < < < < < < < < < < < < < < < < < < < < < < < < < < < ",
"< 6 < < < < A G < 1 < < < 0 { g r i N h O < < < < < < < < < < < < < < < < < < < < < < < < < < < < < ",
"< s 1 < < O S J.y A < < + X.k S X.X.].8.< < < < < < < < < < < < < < < < O < < < < < < < < < < < < < ",
"< s p < < < 6 i.W.} < < 6 H V E 4.m m.S.< < < < < < < < < < < < < < < < O < < < < < < < O < < < < < ",
"O k W O 1 A y y.v.T.t Q Y.Y u.+.m o.%.] < < < < < < < < < < < < < < < < < < < < < < < < < < < < < < ",
"< p h.6 t k.=Xl.R 1XK.(.y.b -.,.5X3XXX9 < < < < < < < < < O < < < < < < < < < < < < < < < < < < < 2 ",
"< 0 I L F ^.~.W j.Q.p.P.>.n ..O.4X0X.X= < < < < < < < < < < < < < < < < < < < < < < < < < < < < < < ",
"< 1 L I k.x.u.w.j.#.p.=.`.p.R g.D.g.= < < < < < < < < < < < < < < < < < < < < < < < < < < < < < < < ",
"< t A q.r.i.6.6.#.Y.~.=.Y.!.7.| 4XM.h 1 < < < < < < < < < < < < < < < < < < < < < < < < < < < < < < ",
"6 0.x.~.J.z.t.c.n.W.g.j.A.Q.W.r.4X:X}.=.< < < < < < < < < < O < < < < < < < < < < < < < < < < < < < ",
"u e.H.L./.Q.R./.c.J.-X-X^.Y.n.T.4X0X@X}.3 < < < < < < < < < < < < < < O < < < < < < < < < < < < < < ",
"F 0.E.H.j.q.k.h.R.q.$.y.b.i.q.K.A.*X X6XP O < < < < < < < < < < < < < < < < < < < < < O O < < < < < ",
"w.#.r.J j i L L q.n.i.W J j.g.! 6.8.|.U.! < < < < < < < < < < < < < < < < < < < < < < < < < < < < < ",
"u.e L : : * * , $.$.^.q.E I.j f w.K +.$.o 4 ' 4 < < < < < < < < < < < < < < < < < < < < < < < < < < ",
"+ < k J * : V J.p.| { D $.&.:   * F k.: O < q < < < < < < < < < < < < < < < < < < < < < < < < < < 2 ",
"< < 3 R C : P k.&.K.c ..( Y $   f R J.Z # < < < O < < < < < < < < < < < < < < < < < < < < < < < < < ",
"< < < i P P w.#.I i.f c m & & * &.y.r.T   O < < < < < < < < < < < < < < < < < < < < < < < < < < < < ",
"< < < < V u.h.L q.s h & ; ; * ; o.P.@Xv., O < < < < < < < < < < < < < < O < < < < < < < < < < < < < ",
"< < < O 1 A I | ! 6 7 @ ;   * H k.XXwX:X7.X < < < < < < < < < < < < < < < < < < < < < < < < < < < < ",
"< < < < < 6 J #.6 < < 1 = W G.W.>X$XwX@Xh.: O O < < < < < < < < < < < < < O < < < < < O < < < < < < ",
"< < < < < < 6 p < O O @ = Y Q.T.@X'.t.9.A.M O O < < < < < < < < < < < < < < < < < < < < < < < < < < ",
"< < < < < < < < < < < f Z W.b.=XC.;XZ.F.~.R $ O < < < < < < < < < < < < < < < < < < < < < < < < < 2 ",
"< < < < < < < < < < O . h *.!.6XZ.*XZ.].*Xj.e e O < < < < < O < < < < < < < < < < < < < < < < < < < ",
"< < < < < < < < < < O = H d.:X$X$X$X#X6XoXH.; h 0 ..( 2 O < < < < < < < < < < < < < < < < < < < < < ",
"< < < < < < < < < < . r X.P.,X,XV.M.;X9X9XP.C Y [ l -.w < < < < < < < < < < < < < < < < < < < < < < ",
"< < < < < < < < < O = ( X.v.2XB.G E f.B.,.i.U . g c K.<.a < < < < < < < < < < < < < < < < < < < < < ",
"< < < < < < < < O X r ..G.oX7XX.& # l ,.XXb.Y O a h f.$X|.1.x 2 < < < < < < < < < < < < < < < < < < ",
"< < < < < < < < O > c X.L.,X+XD y . h I.,.u.%.# 5 0 0 5.&X%X|.;.^ 2 2 O < < < < < < < < < < < < < < ",
"< < < < < < < O & u [ X.c.qXOXe.9 O r X.*.w.%.- O < < < d 2.6X%X|.;.^ 2 < < O < < < < < < < < < < < ",
"< < < < < O < o r h ..G.$.#X[.f 8 < H ,.H ! -.g O < < < < < 7 3.7X6X|.1.z < < < < < < < < < < < < 2 ",
"< O < < < O O r g m X.K.: [ O.= O O = X.m ! -.c . < < < < < < < 5 _.8X,X{.;.a < < < < < < < < < < < ",
"< < < < < O & r h X.+.j.. b [ # < < = X.v e b.l & O < < < < < < < < < 2.qX6X[.<.w 2 < < < < < < < 2 ",
"< < < < < X * : v X.-.W g ( l @ < < o m v : s.c   O < < < < < < < < < < < 3.7X<X|.1.z 2 < < < < < < ",
"< < < < <   $ r [ X.a.Z ..X.r O O < . g v j s.[ X < < < < < < < < < < < < < 7 _.&X%X|.<.^ 2 < < < < ",
"< < < < <   % u X.X.a.@.X.X.0 < O O O - c D s.[ + < < < < < < O < < < < < < < < d 3.6X%X X:.x 2 < < ",
"< < < < < O & g X.X.J.G X...8 O < < < # u [ s.g < < < < < < < < < < < < < < < < < < w _  X[._. .5 < ",
"< < < < < < o # { X.H.b +.[ + < < < < X r S w.# < < < < < < < < < < < O < < < < < < < < < < < O < < ",
"< < < < < < < < h X.H.g +.m O O < < < O - k F < < < < < < < < < < < < < < < < < < < < < < < < < < < ",
"< < < < < < < O # %.P # ..l O O < < < O - r = < < < < < < < < < < < < < < < < < < < < < < < < < < < ",
"< < < < < < < < < V F . ( g O O < < < < % r # < < < < < < < < < < < < < < < < < < < < < < < < < < < ",
"< < < < < < < < < 2 3 O c g < < < < < < # r # < < < < < < < < < < < < < < < < < < < < < < < < < < < ",
"< < < < < < < < < < < < h = < < < < < < 6 > v 5 < < < < < < < < < < < < < < < < < < < < < < < < < < ",
"< < < < < O < < < < < ^ +.) w < < < < < ;.5.[.5 < < < < < < < < < < < < < < < < < < < < < < < < < 2 ",
"< < < < < < < < < < O ;.wX&X) < < < < 5 }.}.8XO.< < < < < < < < < < < < < < < < < < < < < < < < < < ",
"< < < < < < < < < < 2 _.N.} <.< < < < 2 D K D :.< < O < < < O < < < < < < < < < < < < < < < < < < < ",
"< < < < < < < < < < 5 ) B A g < < < < < 9 [ i O < < < < < < < < < < < < < < < < < 4 ` 4 < < < < < < ",
"< < < < < < < < < < < O & / v 8 < < < < p / = O < < < < < < < < < < < < < < < < < ~ ).~ < < < < < < ",
"< < < < < < < < < < < < o 9 m y < < < O @ # O O < < < < < < < < < < < < < < < O < < q < < < < < < < ",
"< < < < < < < 1 < < < < < o # 3 < < 2 < < < < < < < < < < < < < < < < < < < < < < < < < < < < < < < "
};
