/* XPM */
static char *ff0d8dfc5a224605a2a6620d15d19e1fpqsWFcQaIxwbdCKU[] = {
/* columns rows colors chars-per-pixel */
"50 50 212 2 ",
"   c #0C0B0E",
".  c #120D0D",
"X  c #040416",
"o  c #090713",
"O  c #0C0A15",
"+  c #02021D",
"@  c #09071A",
"#  c #07081B",
"$  c #0D0C1A",
"%  c #120E14",
"&  c #110E1C",
"*  c #141214",
"=  c #1C1517",
"-  c #15131B",
";  c #1B151B",
":  c #1C191C",
">  c #22191C",
",  c #2C1C1E",
"<  c #2F211D",
"1  c #000120",
"2  c #090622",
"3  c #0C0923",
"4  c #06052A",
"5  c #0C0C2A",
"6  c #130B25",
"7  c #1C0F28",
"8  c #141221",
"9  c #1C1225",
"0  c #1D1923",
"q  c #13122E",
"w  c #0B0D3D",
"e  c #121230",
"r  c #1A1934",
"t  c #241D24",
"y  c #28172A",
"u  c #2A112E",
"i  c #341C26",
"p  c #1F2039",
"a  c #272225",
"s  c #2A232C",
"d  c #322422",
"f  c #38262B",
"g  c #35352F",
"h  c #2D2632",
"j  c #2C2832",
"k  c #24243A",
"l  c #2B2A3D",
"z  c #322B34",
"x  c #352D3B",
"c  c #3B2B38",
"v  c #383138",
"b  c #3A323C",
"n  c #4A391D",
"m  c #4B1D32",
"M  c #472B29",
"N  c #52332F",
"B  c #5C382E",
"V  c #422432",
"C  c #492C34",
"Z  c #5B2F39",
"A  c #4A3339",
"S  c #593736",
"D  c #68242E",
"F  c #62263A",
"G  c #64373B",
"H  c #633B3B",
"J  c #6C3B3D",
"K  c #753E3B",
"L  c #584339",
"P  c #68482D",
"I  c #694A37",
"U  c #6C423D",
"Y  c #74433E",
"T  c #784B3D",
"R  c #6D533B",
"E  c #765435",
"W  c #120F49",
"Q  c #1D2652",
"!  c #2F2F46",
"~  c #3A2D43",
"^  c #3D3541",
"/  c #3E3C42",
"(  c #1F1963",
")  c #433B45",
"_  c #4A3E47",
"`  c #583C46",
"'  c #723C40",
"]  c #3B4144",
"[  c #4A4146",
"{  c #4E464E",
"}  c #594E4C",
"|  c #494657",
" . c #4E4B5E",
".. c #584F59",
"X. c #5F505D",
"o. c #6B4945",
"O. c #784645",
"+. c #7D4A42",
"@. c #69584D",
"#. c #775944",
"$. c #664C5A",
"%. c #67555D",
"&. c #75595A",
"*. c #7C6756",
"=. c #565264",
"-. c #7C6A69",
";. c #6A6775",
":. c #797476",
">. c #922830",
",. c #AA2830",
"<. c #CF2F37",
"1. c #815439",
"2. c #AE433E",
"3. c #8F653D",
"4. c #94683C",
"5. c #8C394B",
"6. c #D23C42",
"7. c #844C44",
"8. c #8A5646",
"9. c #915747",
"0. c #925C44",
"q. c #92564A",
"w. c #876448",
"e. c #976747",
"r. c #9A6542",
"t. c #9C6A46",
"y. c #8B754D",
"u. c #94794D",
"i. c #8B6158",
"p. c #986656",
"a. c #9C7158",
"s. c #A26B4C",
"d. c #B26A4F",
"f. c #AA7745",
"g. c #AC754D",
"h. c #B17B4C",
"j. c #AB7A55",
"k. c #9A5270",
"l. c #937968",
"z. c #976C74",
"x. c #B67572",
"c. c #CD5459",
"v. c #CE5479",
"b. c #E17D7C",
"n. c #A3874F",
"m. c #A9864C",
"M. c #B7844C",
"N. c #AA8558",
"B. c #BA8854",
"V. c #BD9B5B",
"C. c #89956B",
"Z. c #9C857C",
"A. c #A68465",
"S. c #BB8C68",
"D. c #B8976F",
"F. c #BE9276",
"G. c #C78C4E",
"H. c #C38850",
"J. c #C99551",
"K. c #CA9B56",
"L. c #D29C53",
"P. c #D2A353",
"I. c #DEB15A",
"U. c #C79D69",
"Y. c #CF8A7F",
"T. c #CCA674",
"R. c #E2BF69",
"E. c #31338D",
"W. c #797782",
"Q. c #7D7B85",
"!. c #857986",
"~. c #84838B",
"^. c #88848E",
"/. c #998889",
"(. c #978990",
"). c #949196",
"_. c #97989A",
"`. c #A8898E",
"'. c #A1989D",
"]. c #B79A98",
"[. c #A09EA1",
"{. c #A6A7A5",
"}. c #ACADAA",
"|. c #B5ABAA",
" X c #B4B1AF",
".X c #B3AEB1",
"XX c #B9B6B5",
"oX c #D2978A",
"OX c #E6918D",
"+X c #D9B78A",
"@X c #E3AB9A",
"#X c #C6ACA4",
"$X c #D3BAA6",
"%X c #CCB9B5",
"&X c #E8B4AA",
"*X c #A2C6BE",
"=X c #DCC191",
"-X c #EBD18D",
";X c #CAC4BF",
":X c #D9C2B4",
">X c #E9C7B7",
",X c #F5CEBB",
"<X c #CAC7C3",
"1X c #CDCDC5",
"2X c #D5CBC5",
"3X c #D2D2CA",
"4X c #DBD9D1",
"5X c #EBD4C9",
"6X c #FCDAC2",
"7X c #E7E5D8",
"8X c #FEE7D2",
"9X c #ECEAE0",
/* pixels */
"1 1 1 1 1 + 1 1 1 1 1 1 1 1 1 1 X + + 1 + 1 1 1 1 1 1 1 1 1 1 1 1 1 1 1 1 1 1 1 1 + 1 1 1 1 1 1 1 1 ",
"1 1 1 1 1 1 1 1 1 1 1 1 1 1 1 3 ; $ 1 1 @ + 1 1 1 1 1 1 1 1 1 1 1 1 1 1 1 1 1 1 1 1 1 1 1 1 1 1 1 1 ",
"1 1 1 1 1 1 2 1 1 1 1 1 1 3 h A ; 0 F V 6 1 1 1 1 1 1 1 1 1 1 1 1 1 1 1 1 1 1 1 1 1 1 1 1 1 1 1 1 1 ",
"1 1 1 1 1 1 G 1 1 1 1 1 1 v ) f b { k.v.u 1 1 1 1 1 1 1 1 1 1 1 1 1 1 1 1 1 1 1 1 1 1 1 1 1 1 1 1 1 ",
"2 1 1 1 1 1 t.f 7 6 1 1 + O = T X...X.v.m 4 1 1 1 1 1 1 1 1 1 1 1 1 1 1 1 1 1 1 1 1 1 1 1 1 1 1 1 1 ",
"y y 1 1 1 1 H m.7.7 1 1 [ f R &.[ g l.5.u 1 1 1 1 1 1 1 1 1 1 1 1 1 1 1 1 1 1 1 1 1 1 1 1 1 1 1 1 1 ",
"6 G + 1 2 4 6 a.-XL f A.B.s o.y.(.*X6X] 1 1 1 1 1 1 1 1 1 1 1 1 1 1 1 1 1 1 1 1 1 1 1 1 1 1 1 1 1 2 ",
"2 J s + C y E r.a.=XJ.I.&.X.d C.[ 5X>XA 1 1 1 1 1 1 1 1 1 1 1 1 1 1 1 1 1 1 1 1 1 1 1 1 1 1 1 1 1 1 ",
"1 C 8.6 +.U.-X+.8.P.q.p.!.' +.E Y.x.f # 1 1 1 1 1 1 1 1 1 1 1 1 1 1 1 1 1 1 + 1 1 1 1 1 1 1 1 1 1 1 ",
"1 y +.Y 8.R.B.O.H.t.q.O.%.q.P.V @XoX) q 1 1 1 1 1 1 1 1 1 1 1 1 1 1 1 1 1 1 1 1 1 1 1 1 1 1 1 1 1 1 ",
"1 2 G J g.g.w.>.K q.+Xw.e.F.L.B.S.6X].^.y 1 1 1 1 1 1 1 1 1 1 1 1 1 1 1 1 1 1 1 1 1 1 1 1 1 1 1 + 4 ",
"1 1 7 K q.q.7.2.q.K.g.e.g.G.J.U.Z.&X8X%XQ.e 1 1 1 1 1 1 1 1 1 1 1 1 1 1 1 1 1 1 1 1 1 1 1 1 1 1 1 1 ",
"1 f K j.U.M.G.L.L.s.U.+X-XT.g.j.S.p.,X$X4X#Xu 1 1 1 1 1 1 1 1 1 1 1 1 1 1 1 1 1 1 1 1 1 1 1 1 1 1 1 ",
"2 ' M.s.I.J.J.s.J.g.J Y t.p.i.9.4.2.5.2X.XU.N 1 1 1 1 1 + 1 1 1 1 1 1 1 1 1 1 1 1 1 1 1 1 1 1 1 1 1 ",
"2 ' m.L.g.9.Y 1.8.+.h.a.U o.*.J S y.>.$.%.E Q 4 1 1 1 1 1 1 1 1 1 1 1 1 1 1 1 1 1 1 1 + 1 1 1 1 1 1 ",
"2 e.7.M.G , > > i 7.+.T.S.#.N % % a J Z B X W 1 1 1 1 1 1 1 1 1 1 1 1 1 1 1 1 1 1 1 1 1 1 1 1 1 1 1 ",
"2 r.S ' < = = > L s.7.A [ I : *   t H r.P # + 1 1 1 1 1 1 1 1 1 1 1 1 + 1 1 1 1 1 1 1 1 1 1 1 1 1 1 ",
"2 C 2 9 N < > > 3.T B.o.b a . : % R w.p.P % 1 1 1 1 1 1 1 1 1 1 1 1 1 1 1 1 1 1 1 1 1 1 1 1 1 1 1 1 ",
"1 2 1 1 B K i N h.J o.I . * : * s } s.|.j.: 1 1 1 1 1 1 1 1 1 1 1 1 1 1 1 1 1 1 1 1 1 1 1 1 1 1 1 1 ",
"1 + 1 1 6 G 0.h.r.J O.8 - * . : I h.'.9XY.n + 1 1 1 1 1 1 1 1 1 1 1 1 1 1 1 1 1 1 1 1 1 1 + 1 1 1 1 ",
"1 1 1 1 1 6 V +.Y 7.C + - ; 1.u.K.$XXX7X!.4.X 1 1 1 1 1 1 1 1 1 1 1 1 1 1 1 1 1 1 1 1 1 1 1 1 1 1 1 ",
"1 1 1 1 1 1 2 9 Z 8.f @ # * #.L.D.|.k.2.,.f.o + 1 + 1 1 1 1 1 1 1 1 1 1 1 1 1 1 1 1 1 1 1 1 1 1 1 1 ",
"1 1 1 1 1 1 1 1 7 G 2 1 d I V.H.#Xx.OX<.b.d.M + 1 1 1 1 1 1 1 1 1 1 1 1 1 1 1 1 1 1 1 1 1 1 1 1 1 + ",
"1 1 1 1 1 1 1 1 1 2 1 1 o c *.U.3Xc.@X6.OXd.n + 1 1 1 1 1 1 1 1 1 1 1 1 1 1 1 1 1 1 1 1 1 1 1 1 1 4 ",
"1 1 1 1 1 1 1 1 1 1 1 + = ^ u.%XXX:X2X5X8X`.1.* 5 l 5 1 1 1 1 1 1 1 1 1 1 1 1 1 1 1 1 1 1 1 1 1 1 1 ",
"1 1 1 1 1 1 1 1 1 1 1 o a } N.<X].&.].%X:X#XE * _ h s + 1 1 1 1 1 1 1 1 1 1 1 1 + 1 1 1 1 1 1 1 1 1 ",
"1 1 1 1 1 1 1 1 1 1 + ; ) @.S.<XoX` @X,X8XZ.e.= ^ *.l.5 1 1 1 1 1 1 1 1 1 1 1 1 1 1 1 1 1 1 1 1 1 1 ",
"1 1 1 1 1 1 1 1 + + o t { m.].<Xt 6 > b [ * 4.g j #.Z.~.=.e 1 1 1 1 1 1 1 1 1 1 1 1 1 1 1 1 1 1 1 1 ",
"1 1 1 1 1 1 1 1 1 @ t x { B.;X).; $ t /./.g 4.L : d :.1X}.^.| r 1 1 1 1 1 1 1 1 1 1 1 1 1 1 1 1 + 4 ",
"1 1 1 1 1 1 1 1 + = t ) { N.7X(.f 3 0 [ -.j w.@.0 # + ! _.1X{.Q. .e 1 1 1 1 1 1 1 1 1 1 1 1 1 1 1 1 ",
"1 1 1 1 1 1 1 + $ t h { n.&. X!.= + L =.A 8 A m.a X 1 1 1 p _.7X}.Q. .r 1 1 1 1 1 1 1 1 1 1 1 1 1 1 ",
"1 1 1 1 1 1 1 X > t ) { m.C { b $ + s ..b @ c m.z & 1 1 1 1 1 ! {.7X{.W.| q 1 1 1 1 1 1 1 1 1 1 1 1 ",
"1 1 1 1 1 1 X = t h { { H.> _ h + 1 ; { x @ u m.^ > + + 1 1 1 1 1 k {.7X{.Q. .5 1 1 1 1 1 1 1 1 1 1 ",
"1 1 1 1 1 + = ; t ) { } g.v x 0 + 1 $ ^ x - 6 m.{ % X 1 1 1 1 1 1 1 1 k _.4X X~.=.e 1 1 1 1 1 1 + 4 ",
"1 1 1 1 1 X . - h { { n.Z { b $ 1 1 + s ~ s + r.{ % + 1 1 1 1 1 1 1 1 1 1 ! _.1X}.^. .r 1 1 1 1 1 1 ",
"1 1 1 1 1 +   t b { { m.` { z # 1 1 + - z j o r.{ t 1 1 1 1 1 1 1 1 1 1 1 1 1 ! _.1X}.Q. .q 1 1 1 1 ",
"1 1 1 1 1 1 @ ; [ { { f.) { s + 1 1 1 O s ! $ r.{ 8 1 1 1 1 1 1 1 1 1 1 1 1 1 1 4 ] ~. X1X[.;.l 1 1 ",
"1 1 1 1 1 1 + $ / { { s.) { 9 + 1 1 1 X > x & 0.) @ 1 1 1 1 1 1 1 1 1 1 1 1 1 1 1 1 1 q r k r 4 1 2 ",
"1 1 1 1 1 1 1 1 0 { y.B b [ $ 1 1 1 + + : z & K X 1 1 1 1 1 1 1 1 1 1 1 1 1 1 1 1 1 1 1 1 1 1 1 1 1 ",
"1 1 1 1 1 1 1 1 1 0 y.N z [ @ 1 1 1 1 + $ s 6 6 1 1 1 1 1 1 1 1 1 1 1 1 1 1 1 1 1 1 1 1 1 1 1 1 1 1 ",
"1 1 1 1 1 1 1 1 1 1 B V a ) @ 1 1 1 1 1 O t O 1 1 1 1 1 1 1 1 1 1 1 1 1 1 1 1 1 1 1 1 1 1 1 1 1 1 1 ",
"1 1 1 1 1 1 1 1 1 1 6 5 - ^ X 1 1 1 1 1 X t $ 1 1 1 1 1 1 1 1 1 1 1 1 1 1 1 1 1 1 1 1 1 1 1 1 1 1 1 ",
"1 1 1 1 1 1 1 1 1 1 1 1 X x X 1 1 1 1 1 3 t ! 3 1 1 1 1 1 1 1 1 1 1 1 1 1 1 1 1 1 1 1 1 1 1 1 1 1 1 ",
"1 1 1 1 1 1 1 1 1 1 1 1 .._ k 1 1 1 1 1 =.:.^.5 1 1 1 1 1 1 1 1 1 1 1 1 1 1 1 1 1 1 1 1 1 1 1 1 1 1 ",
"1 1 1 1 1 1 1 1 1 1 1 e <X.X).1 1 1 1 5 ).`.3X| 1 1 1 1 1 1 1 1 1 1 1 1 1 1 1 1 1 1 1 1 1 1 1 1 1 4 ",
"1 1 1 1 1 1 1 1 1 1 1 ;.XXZ z.! 1 1 1 4 C D S ;.1 1 1 1 1 1 1 1 1 1 1 1 1 1 1 1 1 1 1 1 1 1 1 1 1 1 ",
"1 1 1 1 1 1 1 1 1 1 1 l j D y 5 1 1 1 1 9 ~ i + 1 1 1 1 1 1 1 1 1 1 1 1 1 1 1 1 1 4 ( 4 1 1 1 1 1 1 ",
"1 1 1 1 1 1 1 1 1 1 1 + * ~ x & 1 1 1 1 j ^ - + 1 1 1 1 1 1 1 1 1 1 1 1 1 1 1 1 1 W E.W 1 1 1 1 1 1 ",
"1 1 1 1 1 + 1 1 1 1 1 1 O t b t 1 1 1 + # $ + 1 1 1 1 1 1 1 1 1 1 1 1 1 1 1 1 1 1 1 w 1 1 1 1 1 1 1 ",
"1 1 1 1 1 4 1 1 1 1 1 1 + X & 2 + 4 1 1 1 1 1 1 1 1 1 1 1 1 1 1 1 1 1 1 1 1 1 1 1 1 1 1 1 1 1 1 1 1 "
};
