/* XPM */
static char *_b913d6568724c92f1fe5b2ade3930f6j1mQJ30VhkG6Imuj[] = {
/* columns rows colors chars-per-pixel */
"50 50 221 2 ",
"   c #08070E",
".  c #0C0A0C",
"X  c #110E0E",
"o  c #060616",
"O  c #090717",
"+  c #0C0A15",
"@  c #02021D",
"#  c #08061B",
"$  c #0D0B1B",
"%  c #110D14",
"&  c #110E1C",
"*  c #141214",
"=  c #1D1516",
"-  c #14131C",
";  c #1B151B",
":  c #1D191D",
">  c #21171A",
",  c #241A1B",
"<  c #2B1E1E",
"1  c #2B211C",
"2  c #000120",
"3  c #0A0623",
"4  c #0C0A23",
"5  c #06052A",
"6  c #0C0C2A",
"7  c #130C23",
"8  c #190B25",
"9  c #1D0C28",
"0  c #0F102C",
"q  c #141123",
"w  c #1C1126",
"e  c #1E1B24",
"r  c #13122E",
"t  c #1D1129",
"y  c #0B0D3D",
"u  c #181632",
"i  c #241D24",
"p  c #281629",
"a  c #231E2B",
"s  c #311B22",
"d  c #381F2A",
"f  c #371336",
"g  c #1F2039",
"h  c #232129",
"j  c #2A232C",
"k  c #372926",
"l  c #33242E",
"z  c #3B242E",
"x  c #2E2631",
"c  c #272639",
"v  c #3D2333",
"b  c #322A34",
"n  c #342C3A",
"m  c #2C3934",
"M  c #36323C",
"N  c #3C333C",
"B  c #472A29",
"V  c #423123",
"C  c #57392C",
"Z  c #422532",
"A  c #4D2C33",
"S  c #492835",
"D  c #572937",
"F  c #45353B",
"G  c #5A3539",
"H  c #68242E",
"J  c #65383A",
"K  c #6A3B3D",
"L  c #664536",
"P  c #6C423B",
"I  c #774A37",
"U  c #73463C",
"Y  c #794C3D",
"T  c #6E503A",
"R  c #7B5838",
"E  c #120F49",
"W  c #1D2652",
"Q  c #2E2D44",
"!  c #322E45",
"~  c #2F3045",
"^  c #3E3541",
"/  c #363844",
"(  c #353349",
")  c #3E3E52",
"_  c #1F1963",
"`  c #433B44",
"'  c #473B44",
"]  c #463F4A",
"[  c #5C3E40",
"{  c #713C40",
"}  c #474046",
"|  c #4D454E",
" . c #584C47",
".. c #554A55",
"X. c #544C5D",
"o. c #6C4948",
"O. c #784242",
"+. c #754C44",
"@. c #7E4B41",
"#. c #64544C",
"$. c #6E5F4F",
"%. c #765846",
"&. c #6A4D59",
"*. c #6F5756",
"=. c #78664D",
"-. c #7A6B52",
";. c #514E60",
":. c #585566",
">. c #5D5A6A",
",. c #785C63",
"<. c #676169",
"1. c #7A626B",
"2. c #6A6875",
"3. c #757278",
"4. c #932E34",
"5. c #A72E36",
"6. c #8A5D39",
"7. c #94663C",
"8. c #843049",
"9. c #D23C42",
"0. c #844D45",
"q. c #8C5444",
"w. c #8B5944",
"e. c #8E5349",
"r. c #955E46",
"t. c #975A4A",
"y. c #91575F",
"u. c #AC5658",
"i. c #946244",
"p. c #9C6947",
"a. c #9A7A4A",
"s. c #9A6556",
"d. c #8B7055",
"f. c #A3694B",
"g. c #A66C4A",
"h. c #AC734B",
"j. c #AA7649",
"k. c #B67E47",
"l. c #B37E4D",
"z. c #B8784D",
"x. c #A87659",
"c. c #BD7451",
"v. c #A7596E",
"b. c #856D66",
"n. c #9D746E",
"m. c #977A68",
"M. c #887477",
"N. c #8D7078",
"B. c #A57861",
"V. c #B87571",
"C. c #D5494E",
"Z. c #CA4F75",
"A. c #E17D7C",
"S. c #A3874F",
"D. c #A9834E",
"F. c #BB824D",
"G. c #BC8B4D",
"H. c #AF8B54",
"J. c #BE8D53",
"K. c #B58659",
"L. c #BC9055",
"P. c #80906A",
"I. c #B9886C",
"U. c #B7966A",
"Y. c #B28E73",
"T. c #B9AF76",
"R. c #C78B4F",
"E. c #C38B50",
"W. c #C49350",
"Q. c #CD9C56",
"!. c #C4945A",
"~. c #D5A858",
"^. c #E8BD5A",
"/. c #C89C65",
"(. c #CE887D",
"). c #C1977C",
"_. c #DBB86C",
"`. c #D2AC79",
"'. c #E1BF76",
"]. c #31338D",
"[. c #797782",
"{. c #7D7A83",
"}. c #827A86",
"|. c #73999E",
" X c #89878E",
".X c #9A8B83",
"XX c #928B91",
"oX c #939297",
"OX c #989599",
"+X c #9B9C9D",
"@X c #B18F89",
"#X c #B79896",
"$X c #B7A29F",
"%X c #ACADAD",
"&X c #B6B0AE",
"*X c #B4B5B1",
"=X c #B9B5B5",
"-X c #BBBAB6",
";X c #BDBBB9",
":X c #E48A87",
">X c #CDA195",
",X c #E6B09F",
"<X c #C7B2AD",
"1X c #CDB3B0",
"2X c #C2BCBA",
"3X c #E9B4A8",
"4X c #F1DA98",
"5X c #C4C2BE",
"6X c #D7C3B0",
"7X c #EFCAB6",
"8X c #CACBC3",
"9X c #D6CBC6",
"0X c #D3D5CA",
"qX c #DAD3CA",
"wX c #DDDCD2",
"eX c #E9D5C9",
"rX c #FADDC9",
"tX c #FEE5CE",
"yX c #EAE2D9",
"uX c #FEE9D4",
"iX c #F2F0E4",
/* pixels */
"2 2 2 2 @ 2 2 2 2 2 2 2 2 2 2 2 2 o 2 2 3 @ 2 2 2 2 2 2 2 2 2 2 2 2 2 2 2 2 2 2 2 2 2 2 2 2 2 2 2 2 ",
"2 2 2 2 2 2 2 2 2 2 2 2 2 2 2 2 q ; $ 2 # $ 2 2 2 2 2 2 2 2 2 2 2 2 2 2 2 2 2 2 2 2 2 2 2 2 2 2 2 2 ",
"2 2 2 2 2 2 2 2 2 2 2 2 2 2 4 b n ; h D Z & 2 2 2 2 2 2 2 2 2 2 2 @ 2 2 2 2 2 2 2 2 2 2 2 2 2 2 2 2 ",
"2 2 2 2 2 2 9 3 2 2 2 2 2 2 M F B F ] v.v.8 2 2 2 2 2 2 2 2 2 2 2 2 2 2 2 2 2 2 2 2 2 2 2 2 2 2 2 2 ",
"2 2 2 2 2 2 Z L @ 4 2 2 2 @ $ ; 0.X.| *.Z.f 2 2 2 2 2 2 2 2 2 2 2 2 2 2 2 2 2 2 2 2 2 2 2 2 2 2 2 2 ",
"3 p 2 2 2 2 l L.Z D 2 2 2 t & R *.} m 1.8.t 2 2 2 2 2 2 2 2 2 2 2 2 2 2 2 2 2 2 2 2 2 @ 2 2 2 2 2 2 ",
"2 J 3 @ 2 2 3 i./.Y 2 p R *.a U =.XX*X7X/ 2 2 2 2 2 2 2 @ 2 2 2 2 2 2 2 2 2 2 2 2 2 2 2 2 2 2 2 2 5 ",
"2 v v 2 2 w 4 P B.4X%._./.....k P.b.tX3X' 2 2 2 2 2 2 2 2 2 2 2 2 2 2 2 2 2 2 2 2 2 2 2 2 2 2 2 2 @ ",
"2 t p.9 t g.m.~.{ x.L.W.@.}.+.U 6.(.V.k 3 2 2 2 2 2 2 2 2 2 2 2 2 2 2 2 2 @ 2 2 2 2 2 2 2 2 2 2 2 2 ",
"2 3 O.6.A l.4Xr.+.Q.e.f.F &.t.~.d ,X(.N 4 2 2 2 2 2 2 2 2 2 2 2 2 2 2 2 2 2 2 2 2 2 2 2 2 2 2 2 2 2 ",
"2 3 D { { E.l.K g.0.s.!.o.I._.^.z.V.3X$XM.r 3 @ 2 2 2 2 2 2 2 2 2 2 2 2 2 2 2 2 2 2 2 2 2 2 2 2 2 2 ",
"2 2 8 G t.t.i.4.4.7.>Xn.r.x.Q.z.T.S.rXeX2X{.u 2 2 2 2 2 2 2 2 2 2 2 2 2 2 2 2 2 2 2 2 2 2 2 2 2 2 2 ",
"2 3 z S w.e.f.g.R.g.~.'.).R.z.J.|.U.u.3X<X8Xf.3 2 2 2 2 2 2 @ 2 2 2 2 2 2 2 2 2 2 2 2 2 2 2 2 2 2 2 ",
"2 t 0.G.`.^.~.E.~.l.e.s./.`.s.6.w.T 5.y.OXY.R @ 2 2 2 2 2 2 2 2 2 2 2 2 2 2 2 2 2 2 2 2 2 2 2 2 2 2 ",
"2 d r.G.R.F.f.g.6.h.e.+.A 0.n.@XY v S.4.J K W 5 2 2 2 2 2 2 2 2 2 2 2 2 2 2 2 2 2 2 2 2 @ 2 2 2 2 5 ",
"2 z 0.Q.g.A C A B U 0._.U.J F = > % a C { < E 2 2 2 2 2 2 2 2 2 2 2 2 2 2 2 2 2 2 @ 2 2 2 2 2 2 2 2 ",
"2 z f.O.I , > > , L 0.K m.G %.V * X k L j.V @ 2 2 2 2 2 2 2 2 2 2 2 2 2 2 2 2 2 2 2 2 2 2 2 2 2 2 2 ",
"2 v C 9 A , > > C F.w.@.x / x * = * R a.s.C @ @ 2 2 2 2 2 2 2 2 2 2 2 2 2 2 2 2 2 2 2 2 2 2 2 2 2 2 ",
"2 q 3 @ Z U < > R i.P /.: = = : * j #.x.%Xh.% @ 2 2 2 2 2 2 2 2 2 2 2 2 2 2 2 2 2 2 2 2 2 2 2 2 2 2 ",
"2 2 @ @ $ K G J g.@.O.A q - * * : o.h.+XyXI.V @ 2 2 2 2 @ 2 2 2 2 2 2 2 2 2 2 2 2 2 2 2 2 2 2 2 @ 5 ",
"2 2 2 2 2 7 +.p.h.J t.9 2 - h R a.Q.6X2XwX}.6.@ 2 2 2 2 2 2 2 2 2 @ 2 2 2 2 2 2 @ 2 2 2 2 2 2 2 @ 2 ",
"2 2 2 2 2 2 2 Z J J i.3 # # , T Q.U.&Xv.C.5.6.@ 2 2 2 2 2 2 2 2 2 2 2 2 2 2 2 2 2 2 2 2 2 2 2 2 2 2 ",
"2 2 2 2 2 2 2 2 8 K G 3 2 k %.H.!.<XV.A.9.:Xc.> 2 2 2 2 2 2 2 2 2 2 2 2 2 2 2 2 2 2 2 2 2 2 2 2 2 2 ",
"2 2 2 2 2 2 2 2 2 w 3 @ @ . F -.U.0X9.:X9.3Xc.< 2 2 2 2 2 2 2 2 2 2 2 2 2 2 2 2 2 2 2 2 2 2 2 2 2 2 ",
"2 2 2 2 2 2 2 2 2 2 2 2 @ ; ` j.qX2X1X9XeXyXY.R 2 2 2 2 2 2 2 2 2 2 2 2 2 2 2 2 2 2 2 2 2 2 2 2 2 2 ",
"2 2 2 2 2 2 2 2 2 2 2 2   x #.K.qX#Xb.#X<X9X>X7.7 ( r 2 2 2 2 2 2 2 2 2 2 2 2 2 2 2 2 2 2 2 2 2 2 2 ",
"2 2 2 2 2 2 2 2 2 2 @ @ ; ` =.B.5X>XG ,XtXuXn.7.j e h @ 2 2 2 2 2 2 2 2 2 2 2 2 2 2 2 2 2 2 2 2 2 2 ",
"2 2 2 2 2 2 2 2 2 2 @   j | a.<X=Xi - i F | l F.; d.m.r 2 2 2 2 2 2 2 2 2 2 2 2 2 2 2 2 2 2 2 2 2 2 ",
"2 2 2 2 2 2 2 2 2 2 O i N ..L.qX{.w $ M .X.XN 7.x T .X[.( 3 2 2 2 2 2 2 2 2 2 2 2 2 2 2 2 2 2 2 2 2 ",
"2 2 2 2 2 @ 2 2 2 @ ; j | =.Y.iXM.d # j | M.x p.} 1 3.8XOX:.6 2 2 2 2 2 2 2 2 2 2 2 2 2 2 2 2 2 2 5 ",
"2 2 2 2 2 2 2 2 @ $ j N | D.,.-X,.l 2 #.<.F a  .S.; @ ~ *X;X3.( 2 2 2 2 2 2 2 2 2 2 2 2 2 2 2 2 2 2 ",
"2 2 2 2 2 2 2 @ % , j } | j.x ..b $ 2 i | ` & v S.x # 2 0  X0XoX>.3 2 2 2 2 2 2 2 2 2 @ 2 2 2 2 2 2 ",
"2 2 2 2 2 2 @   i i ] | ..7.j | h @ @ e } M @ p D.' * 2 2 2 ) 5X-X{.( 2 2 2 2 2 2 2 2 2 2 2 2 2 2 2 ",
"2 2 2 2 2 2 O i , x | | S.d n N 8 2 @ ; N x @ 3 J.} ; @ 2 2 2 6 2.wXoX2.6 2 2 2 2 2 2 2 2 2 2 2 2 2 ",
"2 2 2 2 2 2 X % i ` | | H.Z | n O 2 2 % x n $ 2 k.} . @ @ 2 2 2 2 ) %X*X{.( 6 2 2 2 2 2 2 2 2 2 2 2 ",
"2 2 2 2 @ @   % j | | | F.` | b @ 2 2 O i n ; @ F.| q @ 2 2 2 2 2 2 g 3.0XOX>.r 2 2 2 2 2 2 2 2 2 5 ",
"2 2 2 2 2 2 @ ; x | | $.7.| | j 2 2 2 @ ; x i @ k.' $ 2 2 2 2 2 2 2 2 2 ) ;X-X[.( 5 2 2 2 2 2 2 2 2 ",
"2 2 2 2 2 2 @ + e | ..S.G | ] & 2 2 2 @ ; a i @ F.j 2 2 2 2 2 2 @ 2 2 2 2 r [.0XoX;.r 2 2 2 2 2 2 2 ",
"2 2 2 2 2 2 2 2 4 ^ | S.[ | N # 2 2 2 2 $ h i @ t.O @ 2 2 2 2 2 2 2 2 2 2 2 2 c 0X*X XQ 2 2 2 2 2 2 ",
"2 2 2 2 2 2 2 2 2 # ^ h.p | b @ 2 2 2 2 + i ; @ Z @ @ 2 2 2 2 2 2 2 2 2 2 2 2 2 @ {.8X+X>.r 2 2 2 2 ",
"2 2 2 2 2 2 2 2 2 2 & q.e | i 2 2 2 2 2 o i $ @ 2 2 2 2 2 2 2 2 2 2 2 2 2 2 2 2 @ 2 Q  X+X<.u 2 2 2 ",
"2 2 2 2 2 2 2 2 2 2 2 9 $ } $ 2 2 2 2 2 @ : $ 2 2 2 2 2 2 2 2 2 2 2 2 2 2 2 2 2 2 2 2 2 2 2 2 2 2 2 ",
"2 2 2 2 2 2 2 2 2 2 2 2 o ^ @ @ 2 2 2 2 4 i M 6 2 2 2 2 2 2 2 2 2 2 2 2 2 2 2 2 2 2 2 2 2 2 2 2 2 2 ",
"2 2 2 2 2 2 2 2 2 2 2 2 X.] c @ 2 2 2 2 :.3. X6 2 2 2 2 2 2 2 2 2 2 2 2 2 2 2 2 2 2 2 2 2 2 2 2 2 3 ",
"2 2 2 2 2 2 2 2 2 2 2 r 5X&XOX2 2 2 2 3 XXOXwX| 2 2 2 2 2 2 2 2 2 2 2 2 2 2 2 2 2 2 2 2 2 2 2 2 2 2 ",
"2 2 2 2 2 2 2 2 2 2 2 2.;XD N.c 2 @ 2 5 ' H S 2.2 2 2 2 2 2 2 2 2 2 2 2 2 2 2 2 2 2 5 2 2 2 2 2 2 2 ",
"2 2 2 2 2 2 2 2 2 2 2 M x H s 0 2 2 2 @ 9 ` s @ 2 2 2 2 2 2 2 2 2 2 2 2 2 2 2 2 2 5 _ 5 2 2 2 2 2 2 ",
"2 2 2 2 2 2 2 2 2 2 2 @ * ! n 8 2 2 2 3 p ` * @ 2 2 2 2 2 2 2 2 2 2 2 2 2 2 2 2 2 E ].E 2 2 2 2 2 2 ",
"2 2 2 2 2 2 2 2 2 2 2 2 . i M h 2 2 2 2 4 $ # @ 2 2 2 2 2 2 2 2 2 2 2 2 2 2 2 2 2 2 y 2 2 2 2 2 2 2 ",
"2 2 2 2 2 2 2 5 2 2 2 2 2 o $ 3 2 2 2 2 2 2 2 2 2 2 2 2 2 2 2 2 2 2 2 2 2 2 2 2 2 2 2 2 2 2 2 2 2 2 "
};
