/* XPM */
static char *_4e704018db04246ec1a03bafc44a61d6wC3bK72lp7ytr9a[] = {
/* columns rows colors chars-per-pixel */
"50 50 218 2 ",
"   c #09070D",
".  c #0B0A0E",
"X  c #120E0F",
"o  c #050516",
"O  c #0B0915",
"+  c #03031C",
"@  c #08061A",
"#  c #0C0A1A",
"$  c #130E15",
"%  c #110718",
"&  c #110E1C",
"*  c #141314",
"=  c #1D1617",
"-  c #15121C",
";  c #1A151C",
":  c #1C1A1C",
">  c #21191D",
",  c #291C1D",
"<  c #35251E",
"1  c #000120",
"2  c #090522",
"3  c #070826",
"4  c #0B0922",
"5  c #06052B",
"6  c #0C0C29",
"7  c #120C24",
"8  c #1B0E27",
"9  c #0F1027",
"0  c #1C1326",
"q  c #1A1627",
"w  c #1D1923",
"e  c #11112E",
"r  c #0B0D3D",
"t  c #181834",
"y  c #241D25",
"u  c #231429",
"i  c #271829",
"p  c #331D22",
"a  c #351D2C",
"s  c #3A1E2F",
"d  c #211E34",
"f  c #371D30",
"g  c #1F2039",
"h  c #2C2326",
"j  c #25212C",
"k  c #2A232B",
"l  c #29262A",
"z  c #362423",
"x  c #352729",
"c  c #3B252E",
"v  c #3D3226",
"b  c #2D2631",
"n  c #28263B",
"m  c #332B34",
"M  c #352D3B",
"N  c #392F3F",
"B  c #323039",
"V  c #3C333C",
"C  c #4A173B",
"Z  c #611F23",
"A  c #462928",
"S  c #543829",
"D  c #4F2B31",
"F  c #4E2C3A",
"G  c #43343B",
"H  c #4A3739",
"J  c #583636",
"K  c #5E3A34",
"L  c #67272E",
"P  c #62343A",
"I  c #633A3A",
"U  c #67393A",
"Y  c #6C3D3D",
"T  c #703F3E",
"R  c #52453E",
"E  c #644C2D",
"W  c #68493A",
"Q  c #72443E",
"!  c #794A3E",
"~  c #7A5538",
"^  c #120F49",
"/  c #282741",
"(  c #2E2D44",
")  c #362E44",
"_  c #3D3643",
"`  c #383546",
"'  c #37374C",
"]  c #1F1963",
"[  c #22307A",
"{  c #433A43",
"}  c #463E48",
"|  c #6F3441",
" . c #723D40",
".. c #47404A",
"X. c #4D454E",
"o. c #5B494A",
"O. c #4A475A",
"+. c #4D4D5E",
"@. c #524953",
"#. c #5A5157",
"$. c #764341",
"%. c #7D4A43",
"&. c #63564F",
"*. c #70524E",
"=. c #765355",
"-. c #7C6449",
";. c #7C7152",
":. c #555163",
">. c #595667",
",. c #665866",
"<. c #735D68",
"1. c #477169",
"2. c #776865",
"3. c #666271",
"4. c #736A72",
"5. c #756D78",
"6. c #803F3C",
"7. c #973636",
"8. c #B3272F",
"9. c #CC2E36",
"0. c #8C513E",
"q. c #85593F",
"w. c #8E653F",
"e. c #913758",
"r. c #BE3F63",
"t. c #834B45",
"y. c #864B44",
"u. c #98404B",
"i. c #855443",
"p. c #8B5849",
"a. c #945A48",
"s. c #985559",
"d. c #8A694A",
"f. c #966845",
"g. c #94624B",
"h. c #9E6549",
"j. c #946B49",
"k. c #967648",
"l. c #9A7149",
"z. c #896856",
"x. c #91795A",
"c. c #A46A4C",
"v. c #B46142",
"b. c #A97949",
"n. c #B37B4D",
"m. c #B97C4C",
"M. c #BC6B56",
"N. c #A87755",
"B. c #B47E56",
"V. c #8A6B6D",
"C. c #926766",
"Z. c #8A6875",
"A. c #AC6667",
"S. c #A37566",
"D. c #BC7A6D",
"F. c #CA5157",
"G. c #A3874F",
"H. c #A9864D",
"J. c #BB894E",
"K. c #AD914F",
"L. c #A78754",
"P. c #B78658",
"I. c #998374",
"U. c #B68765",
"Y. c #B28D6C",
"T. c #B5887E",
"R. c #C2894F",
"E. c #CA9852",
"W. c #CD9B52",
"Q. c #D4A455",
"!. c #E8BF54",
"~. c #C59464",
"^. c #D5AE6A",
"/. c #DCB668",
"(. c #CCA272",
"). c #DCB879",
"_. c #EBC354",
"`. c #E4C37E",
"'. c #31338D",
"]. c #7A7983",
"[. c #A77D82",
"{. c #EE7B99",
"}. c #85828A",
"|. c #918B91",
" X c #939397",
".X c #9B9B9C",
"XX c #A68C8F",
"oX c #AE928F",
"OX c #B4A193",
"+X c #9F9FA1",
"@X c #AD9FA0",
"#X c #A6A6A6",
"$X c #B5A9AA",
"%X c #B9B7B3",
"&X c #BEBDB9",
"*X c #CD9486",
"=X c #E48A87",
"-X c #D1B091",
";X c #E9AE9D",
":X c #CBB2AB",
">X c #C9BDB9",
",X c #E9AEA8",
"<X c #BFC1B9",
"1X c #E3C589",
"2X c #C4C5BE",
"3X c #CAC1BA",
"4X c #DDC1B1",
"5X c #E8C6B8",
"6X c #FAD1B8",
"7X c #C9C6C3",
"8X c #D5C6C3",
"9X c #D8D8CE",
"0X c #DCDBD2",
"qX c #F1D4C6",
"wX c #FEE4CB",
"eX c #E5E6D8",
"rX c #F9EAD9",
"tX c #FEFDEE",
/* pixels */
"1 1 1 1 1 1 1 1 1 1 1 1 1 1 + # + 1 1 @ 1 1 1 + 1 1 1 1 1 1 1 1 1 1 1 1 1 1 1 1 1 1 1 1 1 1 1 1 1 1 ",
"1 1 1 1 1 1 8 1 1 1 1 1 1 @ b = : & + ; 1 1 1 1 1 1 1 1 1 1 1 1 1 1 1 1 + 1 1 1 1 1 1 1 1 1 1 1 1 1 ",
"1 1 1 1 1 1 %.2 3 1 1 1 q @.m > b e.e.% 1 1 1 1 1 1 1 1 1 1 1 1 1 1 1 1 1 1 1 1 1 1 1 1 1 1 1 1 1 1 ",
"u 0 1 1 1 + l.J f 8 1 1 y w K o.,.Z.{.C 1 1 1 1 1 1 1 1 1 1 1 1 1 1 1 1 1 1 1 1 1 1 1 1 + 1 1 1 1 1 ",
"8 J 1 1 2 1 c E.P.q 1 y S.z =.@.B G r.C 1 1 1 1 1 1 1 1 1 1 1 1 1 1 1 1 1 1 1 1 1 1 1 1 1 1 1 1 1 1 ",
"2 q.7 1 f 8 W %.).T.i.).W p.x.<.1.-XF 2 1 1 1 1 1 1 1 1 1 1 1 1 1 1 1 1 1 1 1 1 1 1 1 1 1 1 1 1 1 1 ",
"2 %.c + Q U.1XQ N.^./.L.G x w.{ $X6X=.1 1 1 1 1 1 1 1 1 1 1 1 1 1 1 1 1 1 1 1 1 1 1 1 1 1 1 1 1 1 3 ",
"2 J y.x g.`.N.Q W.h.c.C.<.x ;.S.XXT.k 1 1 1 1 1 1 1 1 1 1 1 1 1 1 1 1 1 1 1 1 1 1 1 1 1 1 1 1 1 1 1 ",
"1 s  . .R.n.0.b.a.p.N.Z.S.c.a *XA.z 1 1 1 1 1 1 1 + 1 1 1 1 1 1 1 1 1 1 1 + 1 1 1 1 1 1 1 1 1 1 1 1 ",
"1 2 F t.a.a.6.7.! (.S.a.c.E.0.*X;X4.@.2 1 1 1 1 1 1 1 1 1 1 1 1 1 1 1 1 1 1 1 1 1 1 1 1 1 1 1 1 1 1 ",
"3 I Q P.N.n.v.m.B.W.^.~.E.R.R.s.5X5X%XO.1 1 1 1 1 1 1 1 1 1 1 1 1 1 1 1 1 1 1 1 1 1 1 1 1 1 1 1 1 1 ",
"u y.J.~.!.Q.R._.P.a.S.).1XU.a.a.,XwX:X#X3 1 1 1 1 1 1 1 1 1 1 1 1 1 1 1 1 1 1 1 + 1 1 1 1 1 1 1 1 1 ",
"a p.Q.m.c.y.c.c.J.a.K I 0.! U p.s.5X5X7XV.1 + 1 1 1 1 1 1 1 1 1 1 1 1 1 1 1 1 1 1 1 1 1 1 1 1 1 1 1 ",
"!  .n.$.z z K K t.b.-XN.P W ! v 7.u.2X Xb.7 1 1 1 1 1 1 1 1 1 1 1 1 1 1 1 1 1 1 1 1 1 1 1 1 1 1 1 1 ",
"i.$.$.A > = = , t.T i.z.d.D * h d.7.F %.v 5 [ 5 1 1 1 1 1 1 1 1 1 1 1 1 1 1 1 1 1 1 1 1 1 1 1 1 1 1 ",
"S 3 8 J > > , w.n.h.F m W > * . h W L A @ 1 r 1 1 1 1 1 1 1 1 1 1 1 1 1 1 1 1 1 1 1 1 1 1 1 1 1 1 3 ",
"7 1 1 J ! , p h.i.x.d..._ : * * S ~ J.X & + 1 1 1 1 1 1 1 1 1 1 1 1 + 1 1 1 1 1 1 1 1 1 1 1 1 1 1 1 ",
"1 1 1 8 J Q Q b.P Q J h : : * b d.b.C.S : + 1 1 1 1 1 1 1 1 1 1 1 1 1 1 1 1 1 1 1 1 1 1 1 1 1 1 1 3 ",
"1 1 1 1 8 Y n.%.0.K q - * : * m k.V.3Xb.= @ 1 1 1 1 1 1 1 1 1 1 1 1 1 1 1 1 1 1 1 1 1 1 1 1 1 1 1 1 ",
"1 1 1 1 + 8 U U a.c 1 + - < j k.~.#XtXU.E & 1 1 1 1 1 1 + 1 1 1 1 1 1 1 1 1 1 1 1 1 1 1 1 1 1 1 1 1 ",
"1 1 1 1 1 1 8 P Q 2 1 2 * ~ /.Q.3X$X:Xs.0.> + + 1 1 1 1 1 1 1 1 1 1 1 1 1 1 1 1 1 1 1 1 1 1 1 1 1 1 ",
"1 1 1 1 1 1 + 8 i 1 + 7 D K.Q.Y.[.v.9.8.v.< @ + 1 1 1 1 1 1 1 1 1 1 1 1 1 1 1 1 1 1 1 1 1 1 + 1 1 1 ",
"1 1 1 1 1 1 1 1 1 1 1 h , z.L.-XA.{.9.=XM.S u 2 1 1 1 1 1 1 1 1 1 1 1 1 1 1 1 1 1 1 1 1 1 1 1 1 1 3 ",
"1 1 1 1 1 1 1 1 1 + + o k O.P.$XF.,X9.,XM.E h w n _ d 1 1 1 1 1 1 1 1 1 1 1 1 1 1 1 1 1 1 1 1 1 1 1 ",
"1 1 1 1 1 1 1 1 1 1 1 & V &.(.3X:X8XqXrXoXH.* j X.H R + + 1 1 1 + 1 1 1 1 1 1 1 1 1 1 1 1 1 1 1 1 1 ",
"1 1 1 1 1 1 1 1 1 1 + : ..b.OX@X<.XX:X8X4XP.v - B -.I.>.( 3 1 1 1 1 1 1 1 1 1 1 1 1 1 1 1 1 1 1 1 1 ",
"1 1 1 1 1 1 1 1 1 1 $ k X.P.>XXX{ D.6XwXOXj.W   B W XX#X X].:.( 1 1 1 1 1 1 1 1 1 1 1 1 1 1 1 1 1 1 ",
"1 1 1 1 1 1 + 1 + O > V #.P.9X@.q % m { { A l.; t ; V ].9XeX2X.X}.:.( 6 1 1 1 1 1 1 1 1 1 1 1 1 1 1 ",
"1 1 1 1 1 1 1 1 @ : i ..L.XX0Xb j O ,.OX2.x k.k + 1 1 1 1 +.|.%XeX&X+X}.O.( t 1 1 1 1 1 1 1 1 1 1 1 ",
"1 1 1 1 1 1 1 1 & y k X.G.OX0XG q + _ #.4.j j.R O 1 1 1 1 1 1 6 ' .X2X0X2X.X].:./ e 1 1 1 1 1 1 1 1 ",
"1 1 1 1 1 1 1 @ > y G X.R.@.5.l # o 2.X.m w f.o.y + 1 1 1 1 1 1 1 1 e g .X2XeX2X+X].3./ 6 1 1 1 1 3 ",
"1 1 1 1 1 1 + = j l X.X.m.{ _ # 1 + G X.B o w.&.y o 1 1 1 1 1 1 1 1 + 1 1 e ( .XeXeX&X X5.:.n 3 1 1 ",
"1 1 1 1 1 1 o > y m @.-.g._ i 1 1 1 - } M O f H.b $ 1 1 1 1 1 1 1 1 1 1 1 1 1 1 1 ( ].%XeX7X<X#X( 1 ",
"1 1 1 1 1 1 $ = y } X.G.*.{ q 1 1 1 o m N ; p G.b   1 1 1 1 1 1 1 1 + 1 1 1 1 1 1 1 1 1 1 1 1 1 1 1 ",
"1 1 1 1 1 1   : b X.X.G.o.X.q + 1 1 + y M k p H.V @ 1 1 1 1 1 1 1 1 1 1 1 1 1 1 1 1 1 1 1 1 1 1 1 1 ",
"1 1 1 1 1 1   > m @.X.m.X.X.7 1 1 + + # b N 0 f.} @ 1 + 1 1 1 1 1 1 1 1 1 1 1 1 1 1 1 1 1 1 1 1 1 1 ",
"1 1 1 1 1 1 @ & B X.X.c.X.{ % + 1 1 1 O i N - w.V + 1 1 1 1 1 1 1 1 1 1 1 1 1 1 1 1 1 1 1 1 1 1 1 3 ",
"1 1 1 1 1 1 + + b X.&.f.X.V @ 1 1 1 1 + , M & y.y 1 1 1 1 1 1 1 1 1 1 1 1 1 1 1 1 1 1 1 1 1 1 1 1 1 ",
"1 1 1 1 1 1 1 1 & { k.K @.k + + 1 1 1 + = b 4 F 1 1 1 1 1 1 1 1 1 1 1 1 1 1 1 1 1 1 1 1 1 1 1 1 1 1 ",
"1 1 1 1 1 1 1 1 + # -.S ..j 1 1 1 1 1 1 # b - 1 1 1 1 1 1 1 1 1 1 1 1 1 1 1 1 1 1 1 1 + 1 1 1 1 1 1 ",
"1 1 1 1 1 1 1 1 1 1 a p { w + 1 1 1 1 1 # y & 1 1 1 1 1 1 1 1 1 1 1 1 1 1 1 1 1 1 1 1 1 1 1 1 1 1 1 ",
"1 1 1 1 1 1 1 1 1 1 1 + m ; 1 1 1 1 1 1 + y # 1 1 1 1 1 1 1 1 1 1 1 1 1 1 1 1 1 1 1 1 1 1 1 1 1 1 1 ",
"1 1 1 1 1 1 1 1 1 1 1 1 j ; 1 1 1 1 1 1 4 y B 6 1 1 1 1 1 1 + 1 1 1 1 1 1 1 1 1 1 1 1 1 1 1 1 1 1 1 ",
"1 + 1 1 1 1 1 1 1 1 1 / @._ t 1 1 1 1 1 >.5.}.6 1 1 1 1 1 1 1 1 1 1 1 1 1 1 1 1 1 1 1 1 1 1 1 1 1 3 ",
"1 1 1 1 1 1 1 1 1 1 1 :.tX&X` 1 1 1 1 3 |.XX0XO.1 1 1 1 1 1 1 1 1 1 1 1 1 1 1 1 1 1 1 1 1 1 1 1 1 1 ",
"1 1 1 1 1 1 1 1 1 1 3 ].Z.| 3.1 1 1 1 3 F L F 3.1 1 1 1 1 1 1 1 1 1 1 1 1 1 1 1 1 1 1 1 1 1 1 1 1 1 ",
"1 1 1 1 1 1 1 1 1 1 e ) Z A j 1 1 1 1 + q ) p + 1 1 1 1 1 1 1 1 1 1 1 1 1 1 1 1 1 5 ] 5 1 1 1 1 1 1 ",
"1 1 1 1 1 1 1 1 1 1 + + & ) M 9 1 1 1 + b { - + 1 1 1 1 1 1 1 1 1 1 1 1 1 1 1 1 1 ^ '.^ 1 1 1 1 1 1 ",
"1 1 1 1 1 1 1 1 1 1 1 1 O y V q 1 1 1 1 # # + 1 1 1 1 1 1 1 1 1 1 1 1 1 1 1 1 1 1 1 r 1 1 1 1 1 1 1 ",
"1 1 1 1 1 1 1 3 1 1 1 1 + o # 2 1 3 1 1 1 1 1 1 1 1 1 1 1 1 1 1 1 1 1 1 1 1 1 1 1 1 + 1 1 1 1 1 1 1 "
};
