/* XPM */
static char *_46ba7810def46c19c36d9245975068eB4b4KBAWIsUIWXEC[] = {
/* columns rows colors chars-per-pixel */
"43 49 219 2 ",
"   c #05050F",
".  c #0E0B0E",
"X  c #110D0D",
"o  c #040415",
"O  c #0B0915",
"+  c #03031C",
"@  c #09071A",
"#  c #0D0C1C",
"$  c #120E14",
"%  c #110E19",
"&  c #141214",
"*  c #1E1616",
"=  c #15121B",
"-  c #1B151B",
";  c #1D1A1D",
":  c #231B1C",
">  c #2A1C1D",
",  c #331D1D",
"<  c #000120",
"1  c #0B0723",
"2  c #070823",
"3  c #0D0923",
"4  c #130B24",
"5  c #1C0F28",
"6  c #0F102C",
"7  c #161526",
"8  c #1B1422",
"9  c #1E1A22",
"0  c #1C1A2D",
"q  c #0B0838",
"w  c #1C1D38",
"e  c #2F0D2E",
"r  c #241D24",
"t  c #231429",
"y  c #251E28",
"u  c #2A1B28",
"i  c #381F25",
"p  c #341C2D",
"a  c #2A2225",
"s  c #272429",
"d  c #2B232C",
"f  c #392325",
"g  c #35232C",
"h  c #3C2E2D",
"j  c #232132",
"k  c #2D2633",
"l  c #27263E",
"z  c #3E2030",
"x  c #332B35",
"c  c #362E3C",
"v  c #383137",
"b  c #3A333C",
"n  c #601F2A",
"m  c #45292D",
"M  c #532F2F",
"N  c #4C3329",
"B  c #573329",
"V  c #4B2734",
"C  c #4A2B33",
"Z  c #532E35",
"A  c #5C2F39",
"S  c #483636",
"D  c #573336",
"F  c #5B353B",
"G  c #67222B",
"H  c #643C34",
"J  c #63343A",
"K  c #69333C",
"L  c #653B3A",
"P  c #6D3D3D",
"I  c #74353A",
"U  c #574734",
"Y  c #654F2A",
"T  c #6A4239",
"R  c #73433E",
"E  c #774B3B",
"W  c #61513D",
"Q  c #7A5737",
"!  c #7F6B3F",
"~  c #1D175D",
"^  c #362E43",
"/  c #333045",
"(  c #3C3441",
")  c #34344A",
"_  c #37354B",
"`  c #423741",
"'  c #423A44",
"]  c #503B4B",
"[  c #762C4A",
"{  c #713240",
"}  c #723E40",
"|  c #4A4549",
" . c #4E464E",
".. c #54434D",
"X. c #5A4B48",
"o. c #4A4556",
"O. c #4D4B5D",
"+. c #554A53",
"@. c #5E5254",
"#. c #624B49",
"$. c #774343",
"%. c #7A4442",
"&. c #724943",
"*. c #7D4A41",
"=. c #795744",
"-. c #7B5E4B",
";. c #695659",
":. c #79674F",
">. c #585466",
",. c #5C5B6B",
"<. c #5D5D71",
"1. c #615A65",
"2. c #77586B",
"3. c #6D6B71",
"4. c #74737C",
"5. c #8F3138",
"6. c #8A543E",
"7. c #90693E",
"8. c #872C51",
"9. c #A13C5F",
"0. c #854D46",
"q. c #865245",
"w. c #8C5947",
"e. c #925E45",
"r. c #93564A",
"t. c #945C48",
"y. c #855752",
"u. c #925D54",
"i. c #B8535A",
"p. c #836D4B",
"a. c #936544",
"s. c #9D634B",
"d. c #996A49",
"f. c #8E774F",
"g. c #9F794B",
"h. c #986654",
"j. c #9B7557",
"k. c #A46D4A",
"l. c #A56C4B",
"z. c #B76B4A",
"x. c #A27546",
"c. c #AD754D",
"v. c #AE7B4B",
"b. c #B5784B",
"n. c #A77955",
"m. c #B77C56",
"M. c #8F6B6A",
"N. c #837565",
"B. c #8A726A",
"V. c #B36F6B",
"C. c #CF4B51",
"Z. c #CD6D6E",
"A. c #9E824A",
"S. c #A4894E",
"D. c #B28149",
"F. c #BA814A",
"G. c #B7894B",
"H. c #BB894E",
"J. c #AE8159",
"K. c #B58754",
"L. c #978172",
"P. c #A98966",
"I. c #A68176",
"U. c #B18D71",
"Y. c #B8957E",
"T. c #C1874F",
"R. c #CC9A4F",
"E. c #C38E54",
"W. c #C69457",
"Q. c #CE9B51",
"!. c #D4A656",
"~. c #DEB159",
"^. c #E3BB55",
"/. c #C3886B",
"(. c #C89B61",
"). c #CAA167",
"_. c #D7AF6C",
"`. c #D3AD7B",
"'. c #E7C577",
"]. c #2F3087",
"[. c #797581",
"{. c #7D7B85",
"}. c #817E89",
"|. c #967A82",
" X c #E07394",
".X c #8F898F",
"XX c #9B8B85",
"oX c #8B8B90",
"OX c #958E94",
"+X c #979598",
"@X c #9B9B9D",
"#X c #AC8A89",
"$X c #B78A89",
"%X c #A8988E",
"&X c #B39793",
"*X c #A9A3A6",
"=X c #B5A4A4",
"-X c #BCB4B2",
";X c #BBBAB7",
":X c #BFB7BB",
">X c #CA9B90",
",X c #D4A88D",
"<X c #D5B287",
"1X c #E6AD9D",
"2X c #C6B5AB",
"3X c #D9B3A7",
"4X c #C2B8B8",
"5X c #EAB1A5",
"6X c #BFC1BA",
"7X c #ECD187",
"8X c #F6CDBA",
"9X c #C9C5C2",
"0X c #CFD2CA",
"qX c #D8D8CE",
"wX c #DDDDD2",
"eX c #F3CBC1",
"rX c #DFE1D3",
"tX c #E7E6DA",
"yX c #F6F5E7",
/* pixels */
"< 4 4 < < < 3 d.4 1 2 < < < 0 ; - # + % < < < < < < < < < < < < < < < < < < < < < < <.",
"< 5 z < < < 1 x.W } 5 + 4 o.' : s { 8.- < < < < < < < < < < < < < < < < < < < < < < <.",
"< 4 L < < 6 < p W.K.5 2 : N.T S 1.2. X[ < < < < < < < < < < < < < < < < < < < < < < <.",
"< 4 e.4 < Z t a.6.`.#.S (.a.A ..@.b 9.8.< < < < < < < < < < < < < < < < < < < < < < <.",
"< 4 %.T < a.,X_.P V.`.~.).E P... .$X@.e + < < < < < < < < < < < < < < < < < < < < < <.",
"< < A } A c.'.a.6.Q.d.v.a.x A.3.0X8XB.2 < < < < < < < < < < < < < < < < < < < + < < <.",
"< < p P l.c.l.R x.R r.s.M.;.W 3.=X5X@.+ < < < < < < < < < < < < < < < < < < < < < < <.",
"< 5 p } r.r.0.5.8.n.,Xj.h.Y.6./.V.N # + < < < < < < < < < < < < < < < < < < < < < < <.",
"1 J l.J.).b.c.z.b.E.E.d.z.H.Q.,X5X;.b 1 < < < < < < < < < < < < < < < < < < < < < < <.",
"4 %.G.c.~.Q.R.!.^.t.(.<X7X`.c./.8X3X*X+.< < < < < < < < < < < < < < < < < < < < < < <.",
"g 0.v.m.s.e.s.s.c.k.P R d.y.N.a.1X8X2X:X] < < < < < < < < < < < < < < < < < < < < < <.",
"D s.q.R , > m M T r.G.%.R H B.3.t.#X-X2Xm.< < < < < < < < < < < < < < < < < < < < < <.",
"Q g V f : * : : L P n.`.R.f , Q q.5.2.j.U + + < < < < < < < < < < < < < < < < < < < <.",
"t + 4 P > * : a.b.%.F i #.T . a =.I K f = < + < < < < < < < < < < < < < < < < < < < <.",
"< < < C H > , d.q.K.-.` X.f - . : B 7.* r < < < < < + < < < < < < < < < < < < < < < <.",
"+ < < 4 L $.R c.J $.-.` ` & & & C 7.b., r < < < < < < < < < < < < < < < < < < < < < <.",
"< < < < u $.c.*.%.T t 9 & & & a -.g.u.N : @ + < < < < < < < < < < < < < < < < < < < <.",
"< < < < < 5 $.K q.m 7 s . ; & d -.U.=Xx.a - < + < < < < < < < < < < < < < < < < < < <.",
"< < < < < < m } F < + < # & r p.P.*XtX/.Y r @ < < < < < < < < < < < < < < < < < < < <.",
"< < < < < < < C 3 < + o N :.S.!.2X9XyX+Xl.; - < < < < < < < < < < < < < < < < < < < <.",
"< < < < < < < < < < < 2 r A.W.&X=XV.i.C.C.. r O < < < < < < < < < < < < < < < < < < <.",
"< < < < < < < < < < < N g.d.!.&XV.eXC.5Xm.: ; s @ < < + < < < < < < < < < < < < < < <.",
"< < < < < < < < < < < O S  .(.4XZ.>XC.5XZ.6.& c y 0 ^ j 2 < < < < < < < < < < < < < <.",
"< < < < < < < < < + + * ` f.,X*X4X4X9XwX#Xf.& f c | d X.3 < < < < < < < < < < < < < <.",
"+ < < < < < < < < < o u | G.=X=Xu.$X3XwX8XE.$ 0.h x S U.>./ 7 + + < < < < < < < < < <.",
"< < < < < < < < < + % x  .F.9XB.C -.V.%XN.b.y @ + k S B.@X+X4.>.l 2 < < < < < < < < <.",
"< < < < < < < < + o r ' p.I.tX( 7 & x ;.%Xe.W o < 0 0 b 4.yXtX6X@X4.>.) 2 + < < < < <.",
"< < < < < < < < + * d | f.&X:Xs j . | %X..i S.% < < + < + 2 ) oXyXtX6X+X[.>./ < < < <.",
"< < < < < < < < % a x  .E.wX-XD 0 + d  .XXi S.y + < < < < < < < < ,.oXqXwX;X@X{.O.^ ,.",
"< < < < < < < + : u (  .v.9X*Xd 7 + ;.+.| - x.x # < < < < < < < < < < < O.@XwXrX9X+X[.",
"< < < < < < < % r d | :.e.+.o.# + + ;  .' o x.' 9 + < < < < < + < < < < < < < ,.@X9XwX",
"< < < < < < + - r x o.f.T | x + < + O | | o w.#.u + < < < < < < < < < < < < < < < 6 {.",
"< < < < < < O r r S  .f.&.( y + < < @ k b = M f.a O + + < < < < < < < < < < < < < < <.",
"< < + < < < X - d '  .H... .y < < < + r c y B f.a o < < < < < < < < < < < < < < < < <.",
"< < < < + < o 8 k  . .D... .t < < < < & k b B f.b + < < < < < < < < < < < < < < < < <.",
"< < < < < +   r c  . .D... .9 < < < < o r ^ r v.( + < < < < < < < < < < < < < < < < <.",
"< < < < < < + % v  .+.v... .# < < < < + r k d b.x + < < < < < < < < < < < < < < < < <.",
"< < < < < < + + j  .f.q.|  .O < < < < < & k g 0.4 < < < < < < < < < < < < < < < < < <.",
"< < < < < < < < # v f.T (  .O < < < < < # u u p + < < < < < < < < < < < < < < < < < <.",
"< < < < < < < < < @ Q B x o.O < < < < < o a 9 < < < < < < < < < < < < < < < + < < < <.",
"< < < < < < < < < < p p y  .o < < < < < + r = < < < < < < < < < < < < < < < < < < < <.",
"< < < < < < < < < < < < % ' o < < < < < < & 8 2 < < < < < < < < < < < < < < < < < < <.",
"< < < < < < < < < < < < 7 ( # < < < < < w v 1.w < < < < < < < < < < < < < < < < < < <.",
"< < < < < < < < < < < < OX.X}.< < < < < ) ;XwXO.< < < < < < < < < < < < < < < < < < <.",
"< < < < < < < < < < < w ;X|.+Xw < < < < 4.{ |.oX2 < < < < < < < < < < < < < < < < < <.",
"< < < < < < < < < < < O.,.n I ^ < < < < @ V G d 6 < < < < < < < < < < < < < < < < < <.",
"< < < < < < < < < < < <   V k 4 < < < < @ ^ ^ % < < < < < < < < < < < < < 2 ~ q < < <.",
"< < < < < < < < < < < < o 9 ^ ( 3 < < < @ s : + < < < < < < < < < < < < < q ].~ < < <.",
"< < < < < < < < + < < < + o r d @ < < < < + + < < < < < < < < < < < < < < < q < < < <."
};
