/* XPM */
static char *_d35ea2b765a41fcf5a8dab43d2249adrMnTKeElGMWgBNif[] = {
/* columns rows colors chars-per-pixel */
"50 50 208 2 ",
"   c #0B090D",
".  c #040415",
"X  c #0C0A14",
"o  c #02031D",
"O  c #0A071B",
"+  c #0D0B1B",
"@  c #120E13",
"#  c #110C1B",
"$  c #151315",
"%  c #1D1516",
"&  c #15121C",
"*  c #1B161C",
"=  c #1B1A1B",
"-  c #22191C",
";  c #2B1A1C",
":  c #33251C",
">  c #000120",
",  c #0A0622",
"<  c #070826",
"1  c #0A0923",
"2  c #06042C",
"3  c #0C0C2A",
"4  c #140B26",
"5  c #0F1021",
"6  c #1D1325",
"7  c #1B1524",
"8  c #13122C",
"9  c #0B0D3D",
"0  c #171733",
"q  c #231C24",
"w  c #271928",
"e  c #241D2B",
"r  c #2D1B2B",
"t  c #311A22",
"y  c #341D2C",
"u  c #201E38",
"i  c #3C1330",
"p  c #1F2039",
"a  c #2B2027",
"s  c #262029",
"d  c #2A222A",
"f  c #362527",
"g  c #3D2E23",
"h  c #34212B",
"j  c #3D262D",
"k  c #322A2D",
"l  c #3A3027",
"z  c #2E2732",
"x  c #2C2737",
"c  c #22223A",
"v  c #2B2B3D",
"b  c #322B35",
"n  c #392B38",
"m  c #35303E",
"M  c #3B333E",
"N  c #442E25",
"B  c #48282A",
"V  c #54362D",
"C  c #432532",
"Z  c #4C2C32",
"A  c #492C37",
"S  c #522732",
"D  c #542E35",
"F  c #563535",
"G  c #593A36",
"H  c #68242E",
"J  c #64353B",
"K  c #643C3C",
"L  c #6C3B3E",
"P  c #70323A",
"I  c #584439",
"U  c #6B4538",
"Y  c #724937",
"T  c #794B3E",
"R  c #6B543F",
"E  c #765737",
"W  c #120F49",
"Q  c #2C2D43",
"!  c #3A2D43",
"~  c #3E3642",
"^  c #36344A",
"/  c #1F1963",
"(  c #212F72",
")  c #423A45",
"_  c #463E49",
"`  c #593348",
"'  c #743F41",
"]  c #4C4142",
"[  c #4D454E",
"{  c #54484A",
"}  c #454356",
"|  c #4C4A5D",
" . c #564B57",
".. c #5C515A",
"X. c #6A4D47",
"o. c #764241",
"O. c #794947",
"+. c #63554C",
"@. c #70564E",
"#. c #7C6449",
"$. c #585567",
"%. c #5C5D6A",
"&. c #665F6E",
"*. c #755D68",
"=. c #55736F",
"-. c #736864",
";. c #6A6775",
":. c #6A6874",
">. c #756F76",
",. c #952F36",
"<. c #C9333A",
"1. c #85543E",
"2. c #B7403F",
"3. c #95673C",
"4. c #8E3454",
"5. c #AF3861",
"6. c #864A47",
"7. c #834C44",
"8. c #835142",
"9. c #895A46",
"0. c #955A48",
"q. c #865E5E",
"w. c #985853",
"e. c #8E6142",
"r. c #836F4F",
"t. c #986641",
"y. c #9C6449",
"u. c #98684B",
"i. c #8E774F",
"p. c #94764B",
"a. c #8B6C5B",
"s. c #9A6A57",
"d. c #977656",
"f. c #A86945",
"g. c #A46B4B",
"h. c #A6754A",
"j. c #AB734B",
"k. c #B2714F",
"l. c #B47B4A",
"z. c #B37A4C",
"x. c #A97859",
"c. c #A8496D",
"v. c #916F6F",
"b. c #897876",
"n. c #977876",
"m. c #A8756F",
"M. c #B57777",
"N. c #D04F54",
"B. c #E17D7C",
"V. c #83875C",
"C. c #A3874F",
"Z. c #A8854D",
"A. c #B4864C",
"S. c #BB854E",
"D. c #B78658",
"F. c #9C826A",
"G. c #91837E",
"H. c #B78D61",
"J. c #BE936A",
"K. c #A98379",
"L. c #B68B78",
"P. c #CA8E4F",
"I. c #CB9F4F",
"U. c #C08B51",
"Y. c #C99854",
"T. c #CDA25E",
"R. c #D6AA58",
"E. c #E3BB5A",
"W. c #C5966A",
"Q. c #D3AB6A",
"!. c #DDB668",
"~. c #EAC977",
"^. c #31338D",
"/. c #7B7983",
"(. c #D06F8F",
"). c #88858B",
"_. c #95908D",
"`. c #959498",
"'. c #BA8984",
"]. c #A7989A",
"[. c #B39191",
"{. c #B3A19B",
"}. c #9E9FA0",
"|. c #A3A4A3",
" X c #AEA6AA",
".X c #B1AAA4",
"XX c #B4ADB1",
"oX c #B5B5B2",
"OX c #BABAB6",
"+X c #D3918D",
"@X c #E48A88",
"#X c #CAAA8E",
"$X c #E5B19D",
"%X c #CEB1AD",
"&X c #C4B8B4",
"*X c #C3BCBA",
"=X c #ECBBAE",
"-X c #92D2B1",
";X c #C3C3BD",
":X c #F6D7AD",
">X c #F3CABC",
",X c #BFC3C1",
"<X c #C9C7C2",
"1X c #D7D8CD",
"2X c #DDDBD3",
"3X c #E8DBCF",
"4X c #FBE4CE",
"5X c #E5E5D9",
/* pixels */
"> > > > > > > > > > > > > > > > # X o > o o > > > > > > > > > > > > > > > > > > > > > > > > > > > > ",
"> > > > > > > > > > > > > > o 6 e * & o & o > > > > > > > > > > > > > > > > > > > > > > > > > > > > ",
"> > > > > > 4 , > > > > > 1 ) [ 7 b A 5.y o > > > > > > > > > > > > > > > > > > > > > > > > > > > > ",
"> > > > > > j G > , o > > + d g U *...(.c.> > > > > > > > > > > > > > o > > > > > > > > > > > > > > ",
", Z > > > > j A.h D > > > > & U [  .a O.4.> > > > > > > > > > > > > > > > > > > > o > > > > > > > > ",
"> A 4 > > , < e.T.E > 0 R +.l H...=.+X-.i > > > > > > > > > > > > > > > > > > > > > > > > > > > > > ",
"> j F o , Z d 9.x.:XX.Q.W.z j 3.{ ,X>X[.6 > > > > > > > > > > > > > > > > > > > > > > > > > > > > < ",
"> y 0.> w j.#Xh.' !.S.Q.@.*.O.V.o.m.$X] , > > > > > > > > > > > > > > > > > > > > > > > > > > > > > ",
"> r 6.K K Q.Q.L g.Y.6.0. .f j.N s.+XG , > > > > > > > > > > > > > > > o > > > > > > > > > > > > > > ",
"> 1 L L g.k.g.9.g.7.x.d.J L.R.T.w.>Xn.X.w > > > > > > > > > > > > > > > > > > > > > > > > > > > > > ",
"> > 6 ' 0.0.6.,.4.D.W.o.j.H.R.P.y.=X>X X*.o > > > > o > > > > > > > > > > > > > > > > > > > > > > > ",
"> r J y.D.k.k.f.A.l.!.W.D.P.U.F.-XL.4X&XXXu > > > > > > > > > > > > > > > > > > > > > > > > > > > > ",
", ' S.g.E.I.Y.I.E.1.9.x.~.#Xu.g.x.,.v.%XXXm.+ > > o > > > > > > > > > > > > > > > > > > > > o > > > ",
", o.I.U.g.0.f.y.h.f.o.F 6.6.'.0.8.f.,.].b.A., o > > > > > > > > > > > > > > > > > > > > > > > > > > ",
"h g.O.0.t ; B Z U 7.!.W.j I b.V q X.P ` 8.k ( 2 > > > > > > > > > > > > > > > > > o > > > > > > > > ",
"h z.D T - - % % V 0.J a.G X.R - @ t S 0.U o W > > > > > > > > > > > > > > > > > > > > > > > > > > < ",
"r y > Z N - - N z.y.8.n ] I I $ $ % E l.t., > > > > > > > > > > > > > > > > > > > > > > > > > > > > ",
"> > > w Y B - Y y.U J.g 7 s % = @ b u.n.s.; > > > > > > > > > > o > > > > > > > > > > > > > > > > > ",
"> > > > B T L 0.8.o.F 6 > = $ $ q { x.&X{.3.o o > > > > > > o > > > > > > > > > > > > > > > > > > > ",
"> > > > > j 0.y.J t.3 > > = : & I R.].5X*Xj.* o > > > > > > > > > > > > > > > > > > > > > > > > > < ",
"> > > > > > C L O.9.o o 5 X f R.E.K.<X%XM.w.N o > > > > > > > > > > > > > > > > > > > > > > > > > > ",
"> > > > > > < y ' y > > o h p.Y.Y..Xc.<.<.2.Y o > > > > > > > > > > > > > > > > > > > > > > > > > > ",
"> > > > > > > > y , > > o : #.d.#X[.>XN.B.+XY o > > > > > > > > > > > > > > > > > > > o > > > > > > ",
"o > > > > > > > > > > > . q { D.2X'.+XN.@X+X1.# > > > > > > > > > > > > > > > > > > > > > > > > > > ",
"> > > > > > > > > > > > @ n #.L.<X XXXoX<XOXx.: > > > > > > > > > > > > > > > > > > > > > > > > > > ",
"> > > > > > > > > > > . = [ p.{.&Xq.M.$X3X4XW.l ~ ~ c o > > > > > > > > > > > > > > > > > > > > > > ",
"> > > > > > > > > > o @ z +.J.2XG.A V a.b.-.Y E z I I o > > > > > > > > > > > > > > > > > > > > > < ",
"> > > > > > > > > o X q ) p.L.2X[ & % ) G.b.j h.& #.G.} < > > > > > > > > > > > > > > > > > > > > > ",
"> > > > > > > > o o - z [ A..X2XA e X -.G.{ j Z.* I _.|.:.0 < o > > > > > > > > > > > > > > > > > > ",
"> > > > > > > > o $ q ) [ D.OX2Xo.8 . } ..] j Z.r $ m |.;X).^ 3 > > > > > > > > > > > > > > > > > > ",
"> > > > > > > o X q b [ C.Z  .>.a 5 . n.[ d A Z.M X > > | 1X|.;.0 > > > > > > > > > > > > > > > > > ",
"> > > > > > o X q s [ [ D.- ~ [ @ o . ) [ 7 r Z.) $ > > > c ;XOX).^ < > > > > > > > > > > > > > > > ",
"> > > > > > X q - n [ [ S.& ~ ~ > > . m [ 7 > g.[ - . > > > > %.5X}.&.0 o o > > > > > > > > > > > > ",
"> > > > o . $ % d _ [ r.T d ~ s o > . d M @ > t.[   . > > o > > 8 OX<X_.} < > > > > > > > > > > > > ",
"> > > > > o @ 7 b [ [ C.B _ [ 6 o > > * b q . t.[ & o > > > > > > > ;.oX|.:.Q o > > > > > > > > > > ",
"> > > > > o   - ) [ [ z.- [ [ & > > > $ d n + t.[ q > > > > > > > > > c oX<X/.} < o > > > > > > > < ",
"> > > > > > o & [ [ [ h.e [ _ + > > > X r b * 3.[ + > > > > > > > > > > > :.,X}.:.c > > > > > > > > ",
"> > > > > > o o z [ +.e.k [ b O > > > . - d e 6.s > > > > > > > > > > > > > c OXOX/.} > > > > > > > ",
"> > > > > > > > + ~ i.B b [ e > > > > o = s q S > > > > > > > > > > > > > > > > %.2X|.;.8 o > > > > ",
"> > o > > > > > > + #.Z k [ & > > > > > & q $ o > > > > > > > > > > > > > > > > > p `.;X|.| < > > > ",
"> > > > > > > > > > y y q _ , o > > > > + q + o > > > > > > > > > > > > > > > > > > > Q %.} c > > > ",
"> > > > > > > > > > > > $ ~ O > > > > > O q + > > > > > > > > > > > > > > > > > > > > > > > > > > > ",
"> > > > > > > > > > o > X m . > > > > > 1 = m 3 > > > > > > > > > > > > > > > > > > > > > > > > > > ",
"> > > > > > > > > > > >  ._ c > > > > o $.>.).3 > > > > > o > > > > > > > > > > > > > > > > > > > < ",
"> > > > > > > > > > > 0 <XXX`.> > > > 3 `.[.2X} > > > > > > > > > > > > > > > > > > > > > > > > > > ",
"o > > > > > > > > > > ;.OXH v.Q > > > < A H A :.> > > > > > > > > > > > > > > > > > > > > > > > > > ",
"> > > > > > > > > > > v x H w 3 > > > o 4 ! t o > > > > > > > > > > > > > > > > > 2 / 2 > > > > > > ",
"> > > > > > > > o > > o $ ! m 4 > > > o z ) $ o > > > > > > > > > > > > > > > > > W ^.W > > > > > > ",
"> > > > > > > > > > > > X q m e > > > > + + o o > > > > > > > > > > > > > > > > > > 9 > > > > > > > ",
"> > > > > > > < > > > > o . + 1 > > > > > > > > > > > > > > > > > > > > > > > > > > > > > > > > > > "
};
