/* XPM */
static char *f1a02046f7784dc28887b8399e93eb08s50uLIAnum4tEyCu[] = {
/* columns rows colors chars-per-pixel */
"42 49 214 2 ",
"   c #0A080D",
".  c #120D0E",
"X  c #050516",
"o  c #080715",
"O  c #0C0A14",
"+  c #02021D",
"@  c #0B0A1A",
"#  c #130F13",
"$  c #120E1B",
"%  c #151314",
"&  c #1D1617",
"*  c #14121B",
"=  c #1A151C",
"-  c #1C191D",
";  c #22151A",
":  c #22191B",
">  c #2D1F1C",
",  c #2D231C",
"<  c #3B271D",
"1  c #000120",
"2  c #090622",
"3  c #070826",
"4  c #0D0A22",
"5  c #0B0B29",
"6  c #130B25",
"7  c #1B0D26",
"8  c #1D0829",
"9  c #0F102C",
"0  c #151123",
"q  c #1A1420",
"w  c #1E1A21",
"e  c #13122E",
"r  c #0F0738",
"t  c #090938",
"y  c #1B1934",
"u  c #231D24",
"i  c #241329",
"p  c #29162B",
"a  c #291C29",
"s  c #351D2D",
"d  c #391E2C",
"f  c #371336",
"g  c #1F2039",
"h  c #262024",
"j  c #2A232C",
"k  c #32252D",
"l  c #392928",
"z  c #25352F",
"x  c #272435",
"c  c #2D2531",
"v  c #322A34",
"b  c #352D3C",
"n  c #37313A",
"m  c #3A323D",
"M  c #462A2B",
"N  c #46332A",
"B  c #56362D",
"V  c #452D31",
"C  c #492935",
"Z  c #5A2530",
"A  c #542F34",
"S  c #4A3432",
"D  c #49363C",
"F  c #453B3D",
"G  c #543134",
"H  c #57343A",
"J  c #5A3738",
"K  c #7B2D34",
"L  c #613936",
"P  c #64353B",
"I  c #653A3A",
"U  c #6C393C",
"Y  c #5C4429",
"T  c #5B4637",
"R  c #6B462C",
"E  c #664637",
"W  c #6C433A",
"Q  c #764839",
"!  c #75493C",
"~  c #795338",
"^  c #1D175D",
"/  c #2D2C44",
"(  c #322E41",
")  c #3C3542",
"_  c #39394D",
"`  c #482D41",
"'  c #423B45",
"]  c #463944",
"[  c #473F49",
"{  c #593C47",
"}  c #6E2E45",
"|  c #494349",
" . c #4E464E",
".. c #454255",
"X. c #484656",
"o. c #4F4B5E",
"O. c #5A4A55",
"+. c #684846",
"@. c #764241",
"#. c #7D4443",
"$. c #774A43",
"%. c #6E5F4F",
"&. c #795346",
"*. c #6B4F57",
"=. c #62595D",
"-. c #77654E",
";. c #7F6850",
":. c #595467",
">. c #705D6D",
",. c #7A6C66",
"<. c #756B79",
"1. c #873739",
"2. c #C52B33",
"3. c #805B3B",
"4. c #8B653F",
"5. c #8F3446",
"6. c #CD3C42",
"7. c #854B47",
"8. c #94484B",
"9. c #855242",
"0. c #8C5445",
"q. c #845947",
"w. c #945949",
"e. c #875B55",
"r. c #A95741",
"t. c #B05045",
"y. c #886C4C",
"u. c #9B644A",
"i. c #9A664A",
"p. c #8E774F",
"a. c #96774B",
"s. c #916A51",
"d. c #85705A",
"f. c #9E7455",
"g. c #9F715B",
"h. c #A16D46",
"j. c #A36C4B",
"k. c #A76C4B",
"l. c #AA7A47",
"z. c #A6724B",
"x. c #AC734F",
"c. c #AA744C",
"v. c #B77D4F",
"b. c #BB7C56",
"n. c #8D5D6F",
"m. c #92766D",
"M. c #847777",
"N. c #AE706C",
"B. c #C14850",
"V. c #CC5378",
"C. c #D17275",
"Z. c #A2864E",
"A. c #AC834B",
"S. c #B7864C",
"D. c #A98250",
"F. c #BA8554",
"G. c #B68B59",
"H. c #B19453",
"J. c #96856B",
"K. c #B48367",
"L. c #AB8F75",
"P. c #AB857A",
"I. c #B7A16A",
"U. c #C68E57",
"Y. c #CB9751",
"T. c #C69759",
"R. c #D49F50",
"E. c #D6A753",
"W. c #E5BB54",
"Q. c #C68C75",
"!. c #DFB765",
"~. c #C9A37A",
"^. c #DDBA78",
"/. c #2F3087",
"(. c #797882",
"). c #A77D82",
"_. c #83818A",
"`. c #88848F",
"'. c #8A8A90",
"]. c #97989B",
"[. c #9B999D",
"{. c #A79799",
"}. c #B39490",
"|. c #A79FA7",
" X c #A9A5A7",
".X c #AEAEAB",
"XX c #AFB0AD",
"oX c #B3AEB1",
"OX c #B5B3B0",
"+X c #BCB5B3",
"@X c #BEBCB9",
"#X c #C99A8E",
"$X c #CD9D94",
"%X c #C7A986",
"&X c #D1AA84",
"*X c #E5A497",
"=X c #C6ADAA",
"-X c #D2A0A0",
";X c #CDB1A9",
":X c #C9BAB3",
">X c #F0BEB6",
",X c #EFD691",
"<X c #C6C1BB",
"1X c #EBC7B6",
"2X c #E8CBB8",
"3X c #B6D5CB",
"4X c #CCCAC4",
"5X c #CFD1C6",
"6X c #D8D7CE",
"7X c #DEDED3",
"8X c #F7D2C1",
"9X c #E4E2D8",
"0X c #FFE8D1",
"qX c #F4F3E6",
/* pixels */
"1 1 1 1 1 1 + 1 1 1 1 1 1 1 1 X + 1 1 + 1 1 1 1 1 1 1 1 1 1 1 1 1 1 1 1 1 1 1 1 1 1 ",
"1 1 1 1 1 1 1 1 1 1 1 1 1 1 4 = @ 1 + @ 1 1 1 1 1 1 1 1 1 1 1 1 1 1 1 1 1 1 1 1 1 1 ",
"1 1 1 1 1 2 1 1 1 1 1 1 2 n ' = u } C $ 1 1 1 1 1 1 1 1 1 1 1 1 1 1 1 1 1 1 1 1 1 1 ",
"1 1 1 1 1 H 6 1 1 1 1 1 c ) < D O.n.V.8 1 1 1 1 1 1 1 1 1 1 1 1 1 1 1 1 1 1 1 1 1 1 ",
"2 1 1 1 1 ! ~ 9 p 1 1 1 X % Q O.O.O.V.f 1 1 1 1 1 1 1 1 1 1 1 1 1 1 + 1 1 1 1 1 1 1 ",
"C 1 1 1 1 p S.i.d + 1 D S ~ m.| z m.5.8 1 1 1 1 1 1 1 1 1 1 1 1 1 1 1 1 1 1 1 1 1 1 ",
"C i 1 3 4 3 E ^.J.V G.G.v S y.'.3X2X| 1 1 1 1 1 1 1 1 1 1 1 1 1 1 1 1 1 1 1 1 1 1 1 ",
"d ! 1 a W +.v.9.%XU.!.e.,.h J.H >X#Xn 1 1 1 1 1 1 1 1 1 1 1 1 1 1 1 1 1 1 1 1 1 1 1 ",
"6 0.V C F.,Xs.@.E.w.k.<.{ h.B Q.N.> 1 1 1 1 1 1 1 1 1 1 1 1 1 1 1 1 1 1 1 1 1 1 1 1 ",
"2 P #.W E.T.7.b.u.w.i.*.e.E.Q $X*XX.c 1 1 1 1 1 1 1 1 1 1 1 1 1 1 1 1 1 1 1 1 1 1 1 ",
"1 s U w.k.j.1.1.q.&Xe.u.K.Y.v.N.2X;X{.e 1 1 1 1 1 1 1 1 1 1 1 1 1 1 1 1 1 1 1 1 1 1 ",
"1 7 A 7.7.9.t.k.F.U.G.x.Y.Y.I.L.1X0X:X.X/ 1 1 1 1 1 1 1 1 1 1 1 1 1 1 1 1 1 1 1 1 1 ",
"i @.A.^.Y.R.Y.W.j.x.~.,X~.i.s.d.3.*X;X9X$Xs 1 1 1 1 1 1 1 1 1 1 1 1 1 1 1 1 1 1 1 1 ",
"V z.c.Y.Y.v.j.h.F.#.I $.7.P.0.z.t.1.=X|.T.u 1 1 1 1 1 1 + 1 1 1 1 1 1 1 1 1 1 1 1 1 ",
"V 0.E.k.W L J B 9.c.^.&.I l M > &.1.{ *.> + 1 1 1 1 1 1 1 1 1 1 1 1 1 1 1 1 1 1 1 1 ",
"S w.i.@.; ; ; ; ! @.q.g.y.B . . = M K M + 1 1 1 1 1 1 1 1 1 1 1 + 1 1 1 1 1 1 1 1 1 ",
"V E p A : : ; ~ k.0.{ | c % % % T &.k.Y @ 1 1 1 1 1 1 1 1 1 1 1 1 1 1 1 1 1 1 1 1 1 ",
"7 2 + A B ; ; 3.3.f.a.h - % = u T f.m.~ * 1 1 1 1 1 1 1 1 1 1 1 1 1 + 1 1 1 1 1 1 1 ",
"+ 1 1 7 Q J J U.P U S % % % * c y.J.4XK.< + + 1 1 1 1 1 1 1 1 1 1 1 1 1 1 1 1 1 1 1 ",
"1 1 1 + p 3.z.i.U 7.3 $ % , u a.U.:XqXP.R + 1 1 1 1 1 1 1 1 1 1 1 1 1 1 1 1 1 1 1 1 ",
"1 1 1 1 1 2 G P #.W + $ X ~ !.T.<X|.=X8.Q o 1 1 1 1 1 1 1 1 1 1 1 1 1 1 1 1 1 1 1 1 ",
"1 1 1 1 1 1 1 s 7.l + 6 S H.Y.%X).B.2.6.r.$ 1 1 1 1 1 1 1 1 1 1 1 1 1 1 1 1 1 1 1 1 ",
"1 + 1 1 1 1 1 1 p 1 + w : d.G.:XC.>X6.8Xb., + 1 1 1 1 1 1 1 1 1 1 1 1 1 1 1 1 1 1 1 ",
"1 1 1 1 1 1 + 1 1 1 + O c ;.&X4XC.-XC.>XQ.< O + 1 1 1 1 1 1 1 1 1 1 1 1 1 1 1 1 1 1 ",
"1 1 1 1 1 1 1 1 1 1 + = [ A.=X X X.XOX+X}.R = ) ) x 1 1 1 1 1 1 1 1 1 1 1 1 1 1 1 1 ",
"1 1 1 1 1 1 1 1 1 + O v  .F.:X}.H *X2X0X}.y.w ) +.F 1 1 + 1 1 1 1 1 1 1 1 1 1 1 1 1 ",
"1 1 1 1 1 1 1 1 + + = ) y.P.6X+.k +.,.,.l l.u x y.<.:.y 1 1 1 1 1 1 1 1 1 1 1 1 1 1 ",
"1 1 1 1 1 1 1 1 + # j  .Z.+XoXu * h ,.}.j l.v = T {..X(.X.e 1 1 1 1 1 1 1 1 1 1 1 1 ",
"1 1 1 1 1 1 1 1 # u m  .z.9X{.k 0 h =.M.j l.' q @ g '.7XXX(.o.e 1 1 1 1 1 1 1 1 1 1 ",
"1 1 1 1 1 1 + + : j [ %.g.9X{.k 1 h X.| u +.a.= + 1 1 / [.7X.X(...5 1 1 1 1 1 1 1 1 ",
"1 1 1 1 1 1 + * a v X.p.L O.| * + T =.m * C Z.j O 1 1 1 1 g '.5XOX_.:.t 1 1 1 1 1 1 ",
"1 1 1 1 1 + O u j |  .A.l | v + 1 h  .v + M Z.b * + 1 1 1 1 1 / ].5X.X`.[ e 1 1 1 1 ",
"1 1 1 1 + O - u v  . .S.v ) i + 1 = ' ) $ i A.m % + 1 1 1 1 1 1 1 / (.5XXX(.o.y 1 1 ",
"1 1 1 1 + . # a |  .-.~ ' ) * 1 1 o c ( i + z.'   + 1 1 1 1 1 1 1 1 1 g  X7XXX(.X.5 ",
"1 1 1 1 + O $ v  . .y.@. .n X 1 1 1 & b j + h.| q 1 1 1 1 1 1 1 1 1 1 1 1 x '.5XOX_.",
"1 1 1 1 1 X & )  . .S.[  .k + 1 1 1 O c b X h.| q 1 1 1 1 1 1 1 1 1 1 1 1 1 1 y [.@X",
"1 1 1 1 1 1 X b  . .A.]  .u + 1 1 1 X u b o u.b + 1 1 1 1 1 1 1 1 1 1 1 1 1 1 1 1 9 ",
"1 1 1 1 1 1 + 0  .-.4.v  .* 1 1 1 1 + w c o 7.4 1 1 1 1 1 1 1 1 1 1 1 1 1 1 1 1 1 1 ",
"1 1 1 1 1 1 1 + u %.Q k  .o 1 1 1 1 1 % c o i 1 1 1 1 1 1 1 1 1 1 1 1 1 1 1 1 1 1 1 ",
"1 1 1 1 1 1 1 1 + N Q u X.X 1 1 1 1 1 O j o 1 1 1 1 1 1 1 1 1 1 1 1 1 1 1 1 1 1 1 1 ",
"1 1 1 1 1 1 1 1 1 2 i $ ) X 1 1 1 1 1 X - o 1 1 1 1 1 1 1 1 1 1 1 1 1 1 1 1 1 1 1 1 ",
"1 1 1 1 1 1 1 1 1 1 + X b X 1 1 1 1 1 4 u x 1 1 1 1 1 1 1 1 1 1 1 1 1 1 1 1 1 1 1 1 ",
"1 1 1 1 1 1 1 1 1 1 1 .. .( 1 1 1 1 1 >.<.`.1 1 1 1 1 1 1 1 1 1 1 1 1 1 1 1 1 1 1 1 ",
"1 1 1 1 1 1 1 1 1 1 5  X X[.1 1 1 1 5 |.{.6X/ 1 1 1 1 1 1 1 1 1 1 1 1 1 1 1 1 1 1 1 ",
"1 1 1 1 1 1 1 1 1 1 X.+X} ,._ + 1 1 2 ` K D :.1 1 1 1 1 1 1 1 1 1 1 1 1 1 1 1 1 1 1 ",
"1 1 1 1 1 1 1 1 1 1 x n Z s e 1 1 1 1 u ` : 1 1 1 1 1 1 1 1 1 1 1 1 1 1 1 3 ^ r 1 1 ",
"1 1 1 1 1 1 1 1 1 1 1 # b ( 0 1 1 1 + j b # 1 1 1 1 1 1 1 1 1 1 1 1 1 1 1 t /.^ 1 1 ",
"1 1 1 1 1 1 1 1 1 1 1   = m x 1 1 1 1 X X + 1 1 1 1 1 1 1 1 1 1 1 1 1 1 1 1 t 3 1 1 ",
"1 1 1 1 1 1 3 1 1 1 1 1 1 @ 2 1 1 1 1 1 3 1 1 1 1 1 3 1 1 1 1 1 1 1 1 1 1 1 3 1 1 1 "
};
