/* XPM */
static char *_323eade7b554a9cab824a68856dc7f8BL78Wk8YfCRxzdmU[] = {
/* columns rows colors chars-per-pixel */
"43 49 220 2 ",
"   c #0C0C0F",
".  c #120D0F",
"X  c #040515",
"o  c #0A0716",
"O  c #0C0A14",
"+  c #03031D",
"@  c #0C0B1B",
"#  c #100D12",
"$  c #120D1C",
"%  c #141213",
"&  c #1C1617",
"*  c #16121B",
"=  c #1B151B",
"-  c #1C191C",
";  c #211419",
":  c #24191C",
">  c #000120",
",  c #0A0623",
"<  c #070826",
"1  c #0D0923",
"2  c #0C0C2A",
"3  c #140B25",
"4  c #1B0F27",
"5  c #0F102C",
"6  c #171423",
"7  c #1A1425",
"8  c #1D1923",
"9  c #13132E",
"0  c #1B192B",
"q  c #0B0838",
"w  c #1A1935",
"e  c #1E1F38",
"r  c #241D24",
"t  c #211429",
"y  c #211D2D",
"u  c #2C1B2B",
"i  c #331F23",
"p  c #321B2D",
"a  c #3C1D2D",
"s  c #201D32",
"d  c #272029",
"f  c #2B242D",
"g  c #312222",
"h  c #3C242E",
"j  c #3B282A",
"k  c #2D2936",
"l  c #20213A",
"z  c #332B35",
"x  c #3B2F32",
"c  c #352D3C",
"v  c #2D3635",
"b  c #373134",
"n  c #3A3236",
"m  c #3C343E",
"M  c #4F1F37",
"N  c #47272B",
"B  c #4A3126",
"V  c #57392D",
"C  c #422331",
"Z  c #452C32",
"A  c #4C2834",
"S  c #572C38",
"D  c #463336",
"F  c #573435",
"G  c #6B2531",
"H  c #673B37",
"J  c #64363B",
"K  c #633A3A",
"L  c #6D3C3D",
"P  c #743D3A",
"I  c #554837",
"U  c #66482C",
"Y  c #73443E",
"T  c #724A39",
"R  c #725233",
"E  c #7B5B3E",
"W  c #1D175D",
"Q  c #322F46",
"!  c #3E3642",
"~  c #37344B",
"^  c #37374C",
"/  c #6A1D41",
"(  c #443D46",
")  c #493A45",
"_  c #463D4A",
"`  c #5C3D41",
"'  c #653D42",
"]  c #753F40",
"[  c #484046",
"{  c #4D454E",
"}  c #56484B",
"|  c #564A56",
" . c #59525A",
".. c #694B49",
"X. c #784643",
"o. c #675A4F",
"O. c #7B5843",
"+. c #7D5548",
"@. c #664A56",
"#. c #615657",
"$. c #655A5D",
"%. c #7F5658",
"&. c #7B674F",
"*. c #555264",
"=. c #5B5768",
"-. c #5D5D71",
";. c #615464",
":. c #745761",
">. c #6C6B77",
",. c #746C70",
"<. c #766E7D",
"1. c #8B252E",
"2. c #AB2F37",
"3. c #804F3F",
"4. c #81583E",
"5. c #946D37",
"6. c #91763F",
"7. c #8B3D41",
"8. c #CD3A41",
"9. c #874D44",
"0. c #855343",
"q. c #8A5346",
"w. c #845947",
"e. c #915C46",
"r. c #97554D",
"t. c #955B49",
"y. c #995D49",
"u. c #894B55",
"i. c #865552",
"p. c #A25D49",
"a. c #B44E50",
"s. c #8B6946",
"d. c #9B6546",
"f. c #996649",
"g. c #9B7A4A",
"h. c #8A6C55",
"j. c #9D685A",
"k. c #8F7351",
"l. c #A26F47",
"z. c #A36A4C",
"x. c #AA6D4D",
"c. c #A47449",
"v. c #AC714E",
"b. c #AD7B4B",
"n. c #B37A4C",
"m. c #A76D52",
"M. c #AE7151",
"N. c #AE546D",
"B. c #8D716A",
"V. c #857373",
"C. c #B2706B",
"Z. c #A6777C",
"A. c #D5494E",
"S. c #C16B6B",
"D. c #DE7070",
"F. c #7E8259",
"G. c #A2864E",
"H. c #AF844E",
"J. c #B2834D",
"K. c #BA824D",
"L. c #AF895A",
"P. c #B78857",
"I. c #BC8C53",
"U. c #848075",
"Y. c #A88862",
"T. c #B98C62",
"R. c #AB8574",
"E. c #BE9576",
"W. c #C79551",
"Q. c #CB9551",
"!. c #CB9A53",
"~. c #D69F51",
"^. c #D9A952",
"/. c #D1AF5C",
"(. c #CAA269",
"). c #E7C77A",
"_. c #2F3087",
"`. c #7C7B84",
"'. c #817D85",
"]. c #D25C82",
"[. c #87848C",
"{. c #9A8488",
"}. c #8E8C95",
"|. c #949499",
" X c #99999B",
".X c #A7978E",
"XX c #A79896",
"oX c #B4999A",
"OX c #9AB692",
"+X c #B0AB8F",
"@X c #ADA09F",
"#X c #A19CA2",
"$X c #A7A8A7",
"%X c #B3A3A3",
"&X c #B6ACAC",
"*X c #B2B4AF",
"=X c #B4B5B1",
"-X c #BABAB6",
";X c #BEBBB8",
":X c #E49995",
">X c #DAB88B",
",X c #CCA99C",
"<X c #DAAE99",
"1X c #C4AFAF",
"2X c #C4B9B5",
"3X c #E5CB8F",
"4X c #EDD186",
"5X c #C3C1BD",
"6X c #EAC2AD",
"7X c #E4C9B6",
"8X c #F3CDBB",
"9X c #A7DAD2",
"0X c #CAC6C1",
"qX c #CDCCC5",
"wX c #DAC7C4",
"eX c #D6D5CD",
"rX c #D9D5D0",
"tX c #F8DCC8",
"yX c #E4E1D9",
"uX c #F9E5D8",
/* pixels */
"> > > > > > > > > > > > > > > , X > > + + > > > > > > > > > > > > > > > > > > > > > -.",
"> > > > > > > > > > > > > > > 8 o + > @ > > > > > > > > > > > > > > > > > > > > > > -.",
"> > > > > > > > > > > > + 7 _ - 8 A M r > > > > > > > > > > > > > > > > > > > > > > -.",
"> > > > > p u > > > > > 7 _ j Z | @.]./ > > > > > > > > > > > > > > > > > > > > > > -.",
"t > > > > Z s., t > > > X = V ` <.) N.N.> > > > > > > > > > > > > > > > > > > > > > -.",
"S 1 > > > t J.0.F + > 3 k g k.| v ..u./ > > > > > > > > > > > > > > > > > > > > > > -.",
"C Z > > 4 > K ).Y.y O.L.D x s.$.9X8XU.3 > > > > > > > > > > > > > > > > > > > > > > -.",
"h O.+ 3 e.h.H.0.3XP.4Xi.;.D F.Z %X8XB.3 > > > > > > > > > > > > > + > > > > > > > > -.",
"p 9.j C P.3X9.t.W.f.v.@.) z.U j.C.+.1 > > > > > > > > > > > > > > > > > > > > > > > -.",
"4 L ] 4.Q.n.X.I.f.r.%.` w.~.E u.6X@.0 > > > > > > > > > > > > > > > > > > > > > > > -.",
"> a ] z.y.y.P P f.>X+.m.T./.~.y.tX<X{.' > > > > > > > > > > > > > > > > > > > > > > -.",
"4 C X.t.p.3.a.p.T.J.f.m.W.!.Y.+X,XtX2X{.< > > > > > > > > > > > > > > > > > > > > > -.",
"S f.I.).^.^.!.~.c.(.>X4X(.M.V.OX7.6X2XrX..> > > > > > > > > > > > > > > > > > > > > -.",
"X.b.K.Q.z.n.n.^.x.L X.f.i.X.e.f.2.u.;X Xn.1 > > > > > > > > > > > > > > > > > > > > -.",
"e.g.M.J F Y 3.9.q.P...K ..7Xi.F c.1.' V.U + > > > > > > > > > > > > > > > > > > > > -.",
"x.P q.: ; : : V X.m.3XB O.j . & c L J S + > > > > + > > > > > > > > > > > > > > > > -.",
"T 4 S : : & g d.e.L D ) I E % % = T x.5.> > > > > > > > > > > > > > > > > > > > > > -.",
"> > u U g & V n.f.T.d b c - & % z w.M.d.@ + > > > > > > > > > > > > > > > > > > > > -.",
"> > , Y H N d.0.J s.: @ & - - % ! g.XXR.B + > > > > > > > > > > > > > > > > > > > > -.",
"> > > , T l.n.J 9.4 + + - % % f W.{.qX1X5.+ > > > > > > > > > > > > > > > > > > > > -.",
"> > > > 1 ' P ] 0.> > 3 % H g.!.E.0XyX%XM.4 > > > > > > > > > > > > > > > > > > > > -.",
"> > > > > 3 S 9.Z + + @ $ I I.!.,X'.a.2.x.i > > > > > > > > > > > > > > > > > > > > -.",
"> > > > > > 3 J 3 > > 1 U L.g.E.oX:XA.D.S.U + > > > > > > > > > > > > > > > > > > > -.",
"> > > > > > > > > > > X = { P.wXN.:X8.D.A.R + > > > > > > > > > > > > > > > > > > > -.",
"+ > > > > > > > > > > O z &.E.eXwXwXwXuX%XM.O + > > > > > > > > > > > > > > > > > > -.",
"> > > > > > > > > > + : ( k.,X2X:.Z.oX&XtXP.= s c 9 > > > > > > > > > > > > > > > > -.",
"> > > > > > > > > >   k o.L.0X@X' C.<X7X%Xn.b ! b d + > > > > > > > > > > > > > > > -.",
"> > > > > > > > > X = ! s.R.yX .* % z #.#.B 6.- k.,.s > > > > > > > > > > > > > > > -.",
"> > > > > > > > + = f { g.oXqXc 0 * $..X[ Z G.* E .X`.^ > > > > > > > > > > > > > > -.",
"> > > > > > > > # r m o.T.0XqX' 6 @ [ $...A G.8 - >.0X|.=.5 > > > > > > > > > > > > -.",
"> > > > > > > X r d { k.O.'.#XD < * V.{ r A G.f + > Q -X=X`.~ > > > > > > > > > > > -.",
"> > > > > > X : d _ { H.i _ [ * + @ [ { = C G.( O > > > >.qX X>.9 > > > > > > > > > -.",
"> > > > + X = r c { { l.@ ! ! @ + X m { $ 3 H._ = + + > > ^ -X=X[.Q 2 > > > > > > > -.",
"> > > > + & ; r ( { o.0.r ! f + + o z ( @ > l._ . + > > > > 9 >.0X|.=.9 > > > > > > -.",
"> > > > X . = z { { G.j ( _ 8 > > + - c & + l.[ O + > > > > > > l 5X;X'.Q < > + > > -.",
"> > > > > # = ! } { I.g { _ 6 > > + & f f X l.{ = > > > > > > > > 9 >.rX X=.w + > > -.",
"> > > > > + = _ } { n.k { ( @ > > > @ r c $ l.{ @ > > > > > > > > > > l =X-X[.Q < > -.",
"> > > > > + @ m { } b.n { c @ > > > o r f - y.f > > > > > > > > > > > > > `.qX|.*.2 -.",
"> > > > > > > 6 _ k.C n { y + > > > X r r r S > > > > > > > > > > > > > > > l *X;X`.}.",
"> > > > > > > + y s.a n _ * > > > > + = r * 3 > > > > > > > > > > > > > > > > 9 [.0X$X",
"> > > > > > > > + B a f [ @ > > > > > O r @ > > > > > > > > > > > > > > > > > > > 9  X",
"> > > > > > > > > < < d c @ > > > > > @ r @ > > > > > > > > > > > > > > > > > > > > -.",
"> > > > > > > > > > > * z + > > + > > @ r 0 > > > > > > > > > > > > > > > > > > > > -.",
"> > > > > > > > > > > k c 0 > > > > > *.{ <.> > > > > > > > > > > > > > > > > > > > -.",
"> > > > > > > > > > 2 5X&X`.+ > > > 2 }.%X0Xl > > > > > > > > > > > > > > > > > > > -.",
"> > > > > > > > > > *.0X:.'.e > > > 9 :.G V.=.> + > > > > > > > > > > > > > > > > > -.",
"> > > > > > > > > > *.` G a w > > > + $ ) ; 2 > > > > > > > > > > > > > > < W q > > -.",
"> > > > > > > > > > X : Q k @ > > > + Q ) * > > > > > > > > > > > > > > > q _.W > > -.",
"> > > > > > > > > > > O f _ w > > > + O # + > > > > > > > > > > > > > > > > q < > > -."
};
