/* XPM */
static char *ed7b80fb07af45b7b1bb551a5fe7d9e3MiJS3oBLqsrvoOLf[] = {
/* columns rows colors chars-per-pixel */
"42 49 194 2 ",
"   c #0E0B0B",
".  c #120D0E",
"X  c #030416",
"o  c #0C0A14",
"O  c #03031C",
"+  c #0A0718",
"@  c #0C0A1C",
"#  c #120F13",
"$  c #110C1A",
"%  c #131214",
"&  c #1A1317",
"*  c #16141C",
"=  c #1B151B",
"-  c #1D1A1D",
";  c #21181C",
":  c #29191C",
">  c #39201F",
",  c #000120",
"<  c #0C0522",
"1  c #0B0B23",
"2  c #0B0B29",
"3  c #170A27",
"4  c #0F102C",
"5  c #1C1525",
"6  c #1B1923",
"7  c #13122F",
"8  c #1F1D2A",
"9  c #0F0738",
"0  c #090938",
"q  c #1A1933",
"w  c #241D24",
"e  c #2C1A21",
"r  c #24142B",
"t  c #241D2B",
"y  c #341C2B",
"u  c #3A1929",
"i  c #221B33",
"p  c #1F2039",
"a  c #2B2224",
"s  c #252529",
"d  c #2A242C",
"f  c #2D292F",
"g  c #342828",
"h  c #2D2633",
"j  c #2A2635",
"k  c #3D2431",
"l  c #332C35",
"z  c #362E3C",
"x  c #363133",
"c  c #37343D",
"v  c #3B333C",
"b  c #452926",
"n  c #512F2C",
"m  c #443228",
"M  c #48353A",
"N  c #43393F",
"B  c #563439",
"V  c #70212B",
"C  c #6F2937",
"Z  c #663937",
"A  c #653B3B",
"S  c #584531",
"D  c #6B512F",
"F  c #69483C",
"G  c #735034",
"H  c #1D175D",
"J  c #2E2E45",
"K  c #3D2C40",
"L  c #393446",
"P  c #3A3850",
"I  c #423A44",
"U  c #4C3A46",
"Y  c #453D49",
"T  c #663040",
"R  c #4D454E",
"E  c #534847",
"W  c #464357",
"Q  c #4E4B5D",
"!  c #524752",
"~  c #634442",
"^  c #724840",
"/  c #6F5D45",
"(  c #64574F",
")  c #6E5F4F",
"_  c #785C48",
"`  c #664C54",
"'  c #794E51",
"]  c #61575C",
"[  c #74624B",
"{  c #7C6749",
"}  c #7F6850",
"|  c #555264",
" . c #645562",
".. c #6B5A64",
"X. c #7E686E",
"o. c #7E706B",
"O. c #716273",
"+. c #79727B",
"@. c #811F2C",
"#. c #A72E36",
"$. c #83533C",
"%. c #866834",
"&. c #97693C",
"*. c #8F304F",
"=. c #AC3E46",
"-. c #A13154",
";. c #D23C42",
":. c #895846",
">. c #935D45",
",. c #A8555F",
"<. c #8B6A46",
"1. c #966847",
"2. c #8E774F",
"3. c #90744F",
"4. c #816055",
"5. c #A16C41",
"6. c #A67447",
"7. c #B57F47",
"8. c #B5754B",
"9. c #A67655",
"0. c #8D556F",
"q. c #AA4D6E",
"w. c #886A68",
"e. c #926466",
"r. c #8F7972",
"t. c #96757A",
"y. c #A57669",
"u. c #B4756E",
"i. c #D54E53",
"p. c #C77679",
"a. c #8B8853",
"s. c #A3874F",
"d. c #AD844C",
"f. c #B28149",
"g. c #B3884E",
"h. c #AC8D57",
"j. c #B78657",
"k. c #BE9359",
"l. c #B78866",
"z. c #BF9369",
"x. c #AD8873",
"c. c #B58674",
"v. c #B48678",
"b. c #B6AB76",
"n. c #C8894F",
"m. c #CF964C",
"M. c #CC9556",
"N. c #E7BB5B",
"B. c #C09179",
"V. c #2F3087",
"C. c #797782",
"Z. c #7D7C85",
"A. c #816F81",
"S. c #927686",
"D. c #E46489",
"F. c #5B9BB1",
"G. c #85848B",
"H. c #958387",
"J. c #8A8B90",
"K. c #948F94",
"L. c #96949A",
"P. c #9A9A9D",
"I. c #B78E88",
"U. c #A79596",
"Y. c #BE9390",
"T. c #B2A096",
"R. c #A7A6A6",
"E. c #A8AAA5",
"W. c #ACACAA",
"Q. c #B9A3A3",
"!. c #B2B1AD",
"~. c #B4B4B1",
"^. c #BBB6B5",
"/. c #D18B86",
"(. c #E48A87",
"). c #C4B19E",
"_. c #EAA49E",
"`. c #C8B5AE",
"'. c #C6BBB8",
"]. c #E4B8AA",
"[. c #CDC2AC",
"{. c #C3C0BE",
"}. c #D8C9BC",
"|. c #F8CCB4",
" X c #C8C8C1",
".X c #D4CCC5",
"XX c #D6CFCE",
"oX c #D3D3CA",
"OX c #DFDED5",
"+X c #F8DAC8",
"@X c #E5DDD3",
"#X c #E6E5D9",
"$X c #E9E7DB",
"%X c #F5F3E7",
/* pixels */
", , , , , , , , , , , , , O , , , O , , , , , , , , , , , , , , , , , , , , , , , , ",
", , , , , , , , , , , , @ % O , , @ , , , , , , , , , , , , , , , , , , , , , , , , ",
", , , , , , , O , , , 5 v & - y r @ , , , , , , , , , , , , , , , , , , , , , , , , ",
", , , , , , , , , O z R : l v q.*.< , , , , , , , , , , , , , , , , , , , , , , , , ",
", , , , , , , , , , 5 * $. .! 0.D.3 , , , , , , , , , , , , , , , , , , , , , , , , ",
", , , , , , , , , , @ F ` N s ~ -.3 , , , , , , , , , , , , , , , , , , , , , , O , ",
", , , , , , , , , , 8 %.[ H.E.[.h , , O , , , , , , , , , , , , , , , , , , , , , , ",
", , , , , , , , , j R a a...+X].I , , , , , , , , , , , , , , , , , , , , , , , , , ",
", , , , , , , , , A.' Z <.u.c.M < , , , , , , , , O , , , , , , , , , , , , , , , , ",
", , , , , , , , t ..:.k.> |.u.d , , , , , , , , , , , , , , , , , , , , , , , , , , ",
", , , , O , , L ..A N.N.8./.].L.X.< O , , , , , , , , , , , , , , , , , , , , , , , ",
", , < ' r i 1 S.A 8.m.n.b.y.+X+X^.| 2 , , , , , , , , , , , , , , , , , , , , , , , ",
", , u v.y./.U O.x :.j.1.F.M./.|.`.OXr.< , , , , , , , , , , , , , , , , , , , , , , ",
", , r d x M ..i ^ N.m.u.:.%.#.e.^.oXn.r , , , , , , , , , , , , , , , , , , , , , , ",
", , , X & s l q B A w.} B l 6.@...4.S O , , , , , , , , , , , , , , , , , , , , , , ",
", , , , O + w d h m _ b # # k Z Z u O , , , , , , , , , , , , , , , , , , , , , , , ",
", , , , , , O l N f S ; %   m G 8.g O O , , , , , , , , , , , , , , , , , , , , , , ",
", , , , , , , + f c a % - & _ 3.9.b @ O , , , , , , , , , , , , , , , , , , , , , , ",
", , , , , , , 1 ; % % - . l [ x.U.6.$ , , , , , , , , , , , , , , , , , , , , , , , ",
", , , , , , O 8 O * % . ; / 9.^.$X8.. , , , , , , , , , , , , , , , , , , , , , , , ",
", , , , , , , , , - ; 1.h.M..X{.XXw.D + O O , , , , , , , , , , , , , , , , , , , , ",
", , , , , , , , , O a <.n.x.Q.,.=.#.&.O , , , , , , , , , , , , , , , , , , , , , , ",
", , , , , , , , , g G s.k.'.p.(.i._.8.o , , , , , , , , , , , , , , , , , , , , , , ",
", , , , , , , , , o l 2.B.^.i.(.;._.8.. O , , , , , , , , , , , , , , , , , , , , , ",
", , , O , , , , X = I d.@X^.XXXX%X#Xt.n o i L O , O , , , , , , , , , , , , , , , , ",
", , , , , , , , o l ) l..XI.` Y.[.}./.D f c x d , , , , , , , , , , , , , , , , , , ",
", , , , , , , X 5 I { x. Xy.B v.Q.).F <.6 l 9...q , , , , , , , , , , , , , , , , , ",
", , , , , , O o s R 6.`.R.# % d E o.. f.6 s 1.I.Z.Q q , , , , , , , , , , , , , , , ",
", , , , , , @ w v ( z.OX+.* @ v T. .7 f.d w w F.#XR.C.Q 7 , , , , , , , , , , , , , ",
", , , , , O = t R ( z.%Xt.d + f R a.6 1.E o O O 4 P.$XW.Z.Q 2 , , , , , , , , , , , ",
", , , , O $ w x R d.` K. .% O ] ] x s ~ [ w , , , , j J.oXW.G.| 7 , , , , , , , , , ",
", , , , o w a Y R g.k R d O O f R d < Z [ l + , , , , , q J.oX~.J.| q , , , , , , , ",
", , , X ; w l R R 5.w I 6 , O w R h O B } v * , , , , , , , J Z. X~.Z.Q q , , , , , ",
", , X & = d I R [ $.v z * O , $ v z o 3 g.x   , , , , , , , , , p E.#XR.C.W 7 , , , ",
", , X # 6 l ! R s.B R c O , , O t K w < d.L o , , , , , , , , , , , 4 P.$XE.Z.Q 2 , ",
", , O X ; v E ! k.U R d O , , O * l h $ d.U % , , , , , , , , , , , , , p P.oXW.J., ",
", , , O * Y R R 7.R R 5 , , , , $ d z $ d.v O , , , , , , , , , , , , , , , q | ~., ",
", , , , O l R ( &.I U * , , , , X w K $ >.5 , , , , , , , O , , , , , , , , , , , , ",
", , , , , 1 U 2.u v I o , , , , X ; h $ b , , , , , , , , , , , , , , , , , , , , , ",
", , , , , , @ { u x N O , , , , , $ d O , , , , , , , , , , , , , , , , , O , , , , ",
", , , , , , , y y d v X , , , , , # w X , , , , , , , , , , , , , , , , , , , , , , ",
", , , , , , , , , 5 x O , , , , , X t $ , , , , , , , , , , , , , , , , , , , , , , ",
", , , , , , , , , 5 j 1 , , , , , L L | , , , , , , , , , , , , , , , , , , , , , , ",
", , , , , , , , , R.K.| , , , , , L.^.L.2 , , , , , , , , , , , , , , , , , , , , , ",
", , , , , , , , P XXS.K.2 , , , J t.T !.J , , , , , , , , , , , , , , , , , , , , , ",
", , , , , , , , r...V B 7 , , , O e C * J , , , , , , , , , , , , , , , , 2 H 9 , , ",
", , , , , , , , O w K t < , , , O z L # , , , , , , , , , , , , , , , , , 0 V.H , , ",
", , , , , , , , , # h P 5 , , , O w - O , , , , , , , , , , , , , , , , , , 0 , , , ",
", , , , , , , , , @ @ a 1 O , , , , O , , , , , , , , 2 , , , , , , , , , , , , , , "
};
