/* XPM */
static char *cd891e475d6f4b3e827149df5ea3fc059wCBV6eRdzPskvuE[] = {
/* columns rows colors chars-per-pixel */
"50 50 105 2 ",
"   c black",
".  c #000006",
"X  c #000009",
"o  c #01010C",
"O  c #000011",
"+  c #000015",
"@  c #00001B",
"#  c #00001F",
"$  c #000023",
"%  c #020123",
"&  c #030027",
"*  c #000029",
"=  c #00002F",
"-  c #030130",
";  c #010036",
":  c #050037",
">  c #010039",
",  c #04003B",
"<  c #01003D",
"1  c #010043",
"2  c #010049",
"3  c #00004C",
"4  c #010057",
"5  c #01005B",
"6  c #010061",
"7  c #080260",
"8  c #010068",
"9  c #09076B",
"0  c #0A066D",
"q  c #020070",
"w  c #020073",
"e  c #030077",
"r  c #030079",
"t  c #03007D",
"y  c #0A0D78",
"u  c #605F68",
"i  c #05008A",
"p  c #05008B",
"a  c #0C1384",
"s  c #070394",
"d  c #070798",
"f  c #080C9E",
"g  c #0F1F95",
"h  c #10249C",
"j  c #0910A3",
"k  c #0910A4",
"l  c #0B1AAF",
"z  c #0C1BAF",
"x  c #0C1DB4",
"c  c #132FA6",
"v  c #0D22B8",
"b  c #0129B8",
"n  c #0F2BBF",
"m  c #1A45B7",
"M  c #1A47BB",
"N  c #1C4EBF",
"B  c #1031C2",
"V  c #1031C3",
"C  c #1238C7",
"Z  c #123CCA",
"A  c #133DCA",
"S  c #1340CC",
"D  c #1543CD",
"F  c #1544CD",
"G  c #1853D5",
"H  c #205CC6",
"J  c #215CC6",
"K  c #205DC6",
"L  c #215DC6",
"P  c #2262CA",
"I  c #256CCF",
"U  c #2770D1",
"Y  c #2871D1",
"T  c #2872D1",
"R  c #2977D5",
"E  c #2C7DD7",
"W  c #318ADC",
"Q  c #3DA0E3",
"!  c #42ABE7",
"~  c #4AB9EC",
"^  c #56C8F0",
"/  c #56C9F0",
"(  c #62D6F3",
")  c #73E2F6",
"_  c #73E3F6",
"`  c #A4A4A5",
"'  c #A5A5A5",
"]  c #82EBF9",
"[  c #8FF1FA",
"{  c #A3F5FB",
"}  c #A4F6FB",
"|  c #B1F9FC",
" . c #BFFBFC",
".. c #C5FBFE",
"X. c #D0FBFE",
"o. c #D1FCFE",
"O. c #DBFCFE",
"+. c #E1FCFE",
"@. c #E2FDFE",
"#. c #EEFEFF",
"$. c #F3FDFF",
"%. c #F3FEFF",
"&. c #F4FEFF",
"*. c #FCFFFF",
"=. c white",
/* pixels */
"                                                              O O $ $ y y 9 9 e q = = o o           ",
"                                                              2 2 y y T T H H c c e q # #           ",
"                                                              2 2 y y U U H H c c q e # $           ",
"                                                          $ $ p p m m @.@.' ' ' ' j j = -           ",
"                                                          $ $ p p m m @.@.` ' ` ' k j = =           ",
"                                                      . . 8 8 l z ' ' %.#.=.*.) _ k j $ $           ",
"                                                      . . 8 8 l l ' ' #.#.=.=.) _ k k & $           ",
"                                                      : : k k I I #.#.#.#.=.=.M M p p + +           ",
"                                                      : : k k I I #.#.#.#.=.=.M M p p @ #           ",
"                                              o o = = p p Z Z | | %.%.%.%.' ` k j 8 8 o X           ",
"                                              o o = = p p Z Z | | %.%.%.%.' ` k j 8 8 o o           ",
"                                              - - u u n n Q Q =.=.=.=.%.%.G G f f % %               ",
"                                              - - u u n n Q Q =.=.=.=.%.&.G G f f % %               ",
"                                              < < | | } } o.o.%.%.=.=./ / x x 8 8                   ",
"                                              < < | | } } o.o.&.%.=.=./ ^ x x 8 8                   ",
"                                              3 3 x x ....%.%.=.=.=.=.R R k k ; ;                   ",
"                                              3 3 x x ....&.&.=.=.=.=.R R j j ; -                   ",
"                                          O + s s S S  . .=.=.=.=.....o.X.B B & *                   ",
"                                          + O s s S S  . .=.=.=.=.....o.X.B V & $                   ",
"                                          3 3 k k ~ ~ =.=.=.=.o.o.H H ' ' g g & %                   ",
"                                          3 3 k k ~ ~ =.=.=.=.o.o.H H ' ' g h & &                   ",
"                                      + + p p C C #.#.=.=.=.=.! ! x x 0 0 . . X o                   ",
"                                      + + p p C C #.#.=.=.=.=.! ! x x 0 0 . . o o                   ",
"                                      4 4 f f / / =.=.=.=.X.X.n n p p + O                           ",
"                                      4 4 f f / / =.=.=.=.X.X.n B p p + O                           ",
"                                  @ @ s s D D =.=.=.=.=.=.W W k k 1 1                               ",
"                                  @ @ s s F F =.=.=.=.=.=.W W k k 1 1                               ",
"                              . . 5 5 l l ( ( =.=.=.=.O.O.v v t t o O                               ",
"                              . . 5 5 l l ( ( =.=.=.=.O.O.v v t t O o                               ",
"                              # # s s D D =.=.=.=.=.=.E E f f > > . .                               ",
"                              # # s s F F =.=.=.=.=.=.E E f f > >                                   ",
"                          X X 6 6 l l ] ] =.=.=.=.....v v r r o o                                   ",
"                          X X 6 5 z z ] ] =.=.=.=.....v v r r o o                                   ",
"                          $ $ d d H H %.%.=.=.&.&.I I s s : :                                       ",
"                          $ # d s H H &.&.=.=.&.&.I I s s : ,                                       ",
"                      X X 6 6 b b [ [ =.=.=.=.....l l e e X X                                       ",
"                      X X 6 6 b b [ [ =.=.=.=.....l x e e X X                                       ",
"                      * * d d H H &.&.=.=.=.=.P P p p - -                                           ",
"                      * * d d H H &.&.=.=.=.=.P P p p - -                                           ",
"                  X X 8 8 k j } } =.=.=.=.} } z l q q o o                                           ",
"                  X X 8 8 f j } } =.=.=.=.{ } z z q q o o                                           ",
"                  $ % t p T T &.&.&.&.&.&.N F p p = -                                               ",
"                  $ $ t t T T &.&.&.&.&.%.N N p p = -                                               ",
"                  , : p p @.@.@.@.' ' / / d d 5 6 X X                                               ",
"                  : , p p @.@.@.@.' ' / / d d 6 6 X o                                               ",
"                  % % a a E E ' ' H H h h 4 4 # $                                                   ",
"                  % % a a E E ' ' H H h h 4 5 # #                                                   ",
"                  X o 7 5 a y s s s s 4 5 X o                                                       ",
"                  X X 7 7 a a s s s s 4 4 o o   .                                                   ",
"                  o o : ; , , $ % = = O o                                                           "
};
