/* XPM */
static char *result[] = {
/* columns rows colors chars-per-pixel */
"43 50 14 1 ",
"  c #000020",
". c #000120",
"X c #010223",
"o c #030225",
"O c #030325",
"+ c #030426",
"@ c #0F0738",
"# c #090938",
"$ c #090D3B",
"% c #0A0D3C",
"& c #1D165D",
"* c #1D175D",
"= c #1F2B72",
"- c #2F3087",
/* pixels */
".......................................... ",
".......................................... ",
".......................................... ",
".......................................... ",
".......................................... ",
".......................................... ",
".......................................... ",
".......................................... ",
".......................................... ",
".......................................... ",
".......................................... ",
".......................................... ",
".......................................... ",
"......X...........X....................... ",
".....o&@.........X=$...................... ",
".....#-*X.........%+...................... ",
"......#O.................................. ",
".......................................... ",
".......................................... ",
".......................................... ",
".......................................... ",
".......................................... ",
".......................................... ",
".......................................... ",
".......................................... ",
".......................................... ",
".......................................... ",
".......................................... ",
".......................................... ",
".......................................... ",
".......................................... ",
".......................................... ",
".......................................... ",
".......................................... ",
".......................................... ",
".......................................... ",
".......................................... ",
".......................................... ",
".......................................... ",
".......................................... ",
".......................................... ",
".......................................... ",
".......................................... ",
".......................................... ",
".......................................... ",
"......................................X... ",
".....................................o&@.. ",
".....................................#-*X. ",
"......................................#O.. ",
".......................................... "
};
