/* XPM */
static char *d13fa3170ec24306ae8325403a934b72jbn5AFCvX6I5ci9z[] = {
/* columns rows colors chars-per-pixel */
"51 50 175 2 ",
"   c None",
".  c #0C0B0B",
"X  c #130E0E",
"o  c #120F11",
"O  c #151214",
"+  c #181215",
"@  c #15151B",
"#  c #1B151A",
"$  c #1D1A1D",
"%  c #221A1D",
"&  c #251916",
"*  c #331B1D",
"=  c #32221E",
"-  c #231C23",
";  c #231F29",
":  c #2C1D21",
">  c #3C1F2B",
",  c #252225",
"<  c #2C2425",
"1  c #272029",
"2  c #2A232B",
"3  c #2D282A",
"4  c #34232C",
"5  c #332A2F",
"6  c #392729",
"7  c #2F2731",
"8  c #2F2C36",
"9  c #332B35",
"0  c #352D3B",
"q  c #3C2B33",
"w  c #3B333B",
"e  c #383137",
"r  c #47331D",
"t  c #482B27",
"y  c #53352A",
"u  c #542836",
"i  c #453A37",
"p  c #543134",
"a  c #5E3E37",
"s  c #72232F",
"d  c #642F36",
"f  c #613330",
"g  c #59493A",
"h  c #624529",
"j  c #694736",
"k  c #7C4C3B",
"l  c #75443E",
"z  c #7B5334",
"x  c #745C3C",
"c  c #7A593C",
"v  c #3D3642",
"b  c #3E3A42",
"n  c #412F43",
"m  c #433B45",
"M  c #443B45",
"N  c #732440",
"B  c #643B41",
"V  c #703847",
"C  c #713F4C",
"Z  c #4E454E",
"A  c #474249",
"S  c #594F4F",
"D  c #594C46",
"F  c #534954",
"G  c #574B56",
"H  c #5E5455",
"J  c #694942",
"K  c #67474A",
"L  c #62554E",
"P  c #6A5847",
"I  c #735949",
"U  c #625C5A",
"Y  c #79674F",
"T  c #7C675C",
"R  c #7B7851",
"E  c #6D5262",
"W  c #615B68",
"Q  c #506767",
"!  c #706070",
"~  c #726D7A",
"^  c #7A6374",
"/  c #74707C",
"(  c #7F7171",
")  c #B22931",
"_  c #814C3A",
"`  c #855638",
"'  c #A2503E",
"]  c #9D3A5A",
"[  c #875B48",
"{  c #8E5D5A",
"}  c #A9454B",
"|  c #B74049",
" . c #8C6646",
".. c #876C4E",
"X. c #9D6644",
"o. c #98694A",
"O. c #8F704C",
"+. c #94724D",
"@. c #997549",
"#. c #8A6158",
"$. c #8E7055",
"%. c #937754",
"&. c #A3694C",
"*. c #B7754C",
"=. c #AA7E54",
"-. c #BA7C5C",
";. c #A64263",
":. c #856568",
">. c #9A6F68",
",. c #9C756A",
"<. c #97786F",
"1. c #997C61",
"2. c #867877",
"3. c #BC7D78",
"4. c #D5494E",
"5. c #CF4470",
"6. c #D26F72",
"7. c #CA7F74",
"8. c #A9804E",
"9. c #AC815E",
"0. c #9C8575",
"q. c #B58D64",
"w. c #B79060",
"e. c #A5847F",
"r. c #C88D53",
"t. c #C79459",
"y. c #D29C55",
"u. c #D7A555",
"i. c #E3B055",
"p. c #C9876B",
"a. c #C89B64",
"s. c #CFA67F",
"d. c #797584",
"f. c #887285",
"g. c #A57A81",
"h. c #D9678A",
"j. c #7FB4A7",
"k. c #8B898F",
"l. c #898086",
"z. c #97878F",
"x. c #9C8E81",
"c. c #8D8C92",
"v. c #9D9093",
"b. c #9B979C",
"n. c #A58586",
"m. c #B99A89",
"M. c #A28E93",
"N. c #A39FA3",
"B. c #A3A0A4",
"V. c #B0ABAD",
"C. c #BEACAB",
"Z. c #B9B9B5",
"A. c #BEBABA",
"S. c #B6B2B2",
"D. c #C99282",
"F. c #D79698",
"G. c #E59995",
"H. c #D6AB9B",
"J. c #D6B89E",
"K. c #C4AAA9",
"L. c #C6BAB6",
"P. c #E7B4AA",
"I. c #C3C4BD",
"U. c #CCC1BC",
"Y. c #D2C4BE",
"T. c #F7C6AF",
"R. c #EFD2BE",
"E. c #F3D4BE",
"W. c #D6D1CB",
"Q. c #DBD7CF",
"!. c #E2D0C0",
"~. c #F8D6C3",
"^. c #EBEBDD",
"/. c #E3E1D8",
"(. c #F1F1E1",
/* pixels */
"                                                                                                      ",
"                                                                                                      ",
"                                                                                                      ",
"                                                                                                      ",
"                                                                                                      ",
"                                              o                                                       ",
"                                          M w # > N #                                                 ",
"                                        ; e y Z E h.]                                                 ",
"                                          & B G i ;.5.                                                ",
"                                          I T Q x.H                                                   ",
"                                        F < R M.~.e.                                                  ",
"                                      ! E k z 3.#.9                                                   ",
"                                      F [ u.p T.:.m                                                   ",
"                                    ^ J *.i.r.H.P.V.                                                  ",
"                            D.D.7.  f.J t.&.j.w.E.R.Q.z.                                              ",
"                            a 3 K ,.q o.u.-.o._ } K.L.s.                                              ",
"                              + 2 7 < j ..T p g ' V :.c                                               ",
"                                  - 9 < P j X O 6 d t                                                 ",
"                                    e b 8 $ O O j X.z                                                 ",
"                                    $ - $ O O , @.n.o.#                                               ",
"                                    7 O $ O O L ,.W.D.r                                               ",
"                                        @ h 8.t.L./.n.`                                               ",
"                                          x u.m.g.| ) `                                               ",
"                                        = %.w.C.H.4.G.-.+                                             ",
"                                        1 I J.K.F.6.P.p.&                                             ",
"                                      @ b o.W.v.M.K.U.n.h q b m                                       ",
"                                      < G 9.A.>.{ H.R.<.x 3 i %.                                      ",
"                                    + w Y m.S.# o w H $ o., i e.k.~                                   ",
"                                  + 1 A 8.L.l.# @ ( 2.3 @.2 - U ^.Z.k./                               ",
"                                  - 9 S =.W.n.- o Z H ,  .i         ^.I.c./                           ",
"                                # ; A L ` F v @ 3 ( m @ k D $           ^.I.k./                       ",
"                              X - 9 Z +.6 b 1   O m w   X.L ;               ^.I.c./                   ",
"                            o % - m Z +.q v %     7 w $   ..$ .                 (.I.c.~               ",
"                            X o 7 Z Z @.M M       # 0 ;   %.7                       ^.Z.k./           ",
"                              # 0 Z Y [ Z e         7 7 * +.e                           ^.I.b./       ",
"                              + v Z Y J Z 2         - 0 * +.:                                         ",
"                                2 Z +.4 Z ;         + 7 : d                                           ",
"                                  3 o.: Z -         o 2                                               ",
"                                    _ % A #           ;                                               ",
"                                        w o           $ -                                             ",
"                                        m 0         W W d.                                            ",
"                                      b.A.B.        N.M.A.                                            ",
"                                      V.C K         p s A                                             ",
"                                      1 u 2         ; n O                                             ",
"                                      . ; v 7       $ $                                               ",
"                                          #                                                           ",
"                                                                                                      ",
"                                                                                                      ",
"                                                                                                      ",
"                                                                                                      "
};
