/* XPM */
static char *_6057b879368481897be0123bf7b9a2dXb2Hr0MCFK4vz2sw[] = {
/* columns rows colors chars-per-pixel */
"10 36 155 2 ",
"   c None",
".  c #1E1E1E",
"X  c #1F3B26",
"o  c #292620",
"O  c #292622",
"+  c #2F2A20",
"@  c #2E2A21",
"#  c #2F2A21",
"$  c #332C21",
"%  c #312C22",
"&  c #352F21",
"*  c #283A25",
"=  c #333221",
"-  c #353121",
";  c #363121",
":  c #343321",
">  c #373022",
",  c #373023",
"<  c #353322",
"1  c #333422",
"2  c #333522",
"3  c #363421",
"4  c #353622",
"5  c #363622",
"6  c #373024",
"7  c #383121",
"8  c #383321",
"9  c #3B3221",
"0  c #383023",
"q  c #3B3222",
"w  c #3B3322",
"e  c #3B3521",
"r  c #383522",
"t  c #383622",
"y  c #3D3423",
"u  c #3E3422",
"i  c #3E3522",
"p  c #3C3424",
"a  c #3D3424",
"s  c #333822",
"d  c #333923",
"f  c #303B23",
"g  c #363922",
"h  c #303A24",
"j  c #333B24",
"k  c #303C24",
"l  c #303D25",
"z  c #303F25",
"x  c #333E24",
"c  c #333E26",
"v  c #353D26",
"b  c #3B3822",
"n  c #3F3822",
"m  c #383F26",
"M  c #413722",
"N  c #403623",
"B  c #433823",
"V  c #433923",
"C  c #443823",
"Z  c #433824",
"A  c #413826",
"S  c #413B26",
"D  c #453A25",
"F  c #463A24",
"G  c #463B24",
"H  c #443A27",
"J  c #443D26",
"K  c #473C26",
"L  c #473C27",
"P  c #4D3F24",
"I  c #413928",
"U  c #433A29",
"Y  c #4A3E28",
"T  c #4B3E28",
"R  c #4A3E29",
"E  c #1F492B",
"W  c #1F4A2B",
"Q  c #1F4C2B",
"!  c #1F4D2C",
"~  c #204429",
"^  c #224F2C",
"/  c #304026",
"(  c #304226",
")  c #304326",
"_  c #3B4127",
"`  c #3B4528",
"'  c #3B4429",
"]  c #3C4C2B",
"[  c #3A4B2C",
"{  c #22522D",
"}  c #20532E",
"|  c #22532E",
" . c #21542E",
".. c #22542E",
"X. c #22552E",
"o. c #23552F",
"O. c #22562E",
"+. c #22562F",
"@. c #22572F",
"#. c #24572F",
"$. c #24582F",
"%. c #25592F",
"&. c #265A2F",
"*. c #275B2F",
"=. c #285C2F",
"-. c #31532B",
";. c #37592D",
":. c #265B30",
">. c #265C31",
",. c #275D31",
"<. c #285D30",
"1. c #2A5E30",
"2. c #2B6031",
"3. c #2B6131",
"4. c #4F4025",
"5. c #4F4125",
"6. c #4D4027",
"7. c #4D4029",
"8. c #4F4229",
"9. c #4C402A",
"0. c #43482D",
"q. c #524325",
"w. c #514226",
"e. c #524326",
"r. c #544426",
"t. c #574627",
"y. c #574727",
"u. c #504228",
"i. c #514328",
"p. c #50422A",
"a. c #51432B",
"s. c #524428",
"d. c #564628",
"f. c #55472A",
"g. c #53462D",
"h. c #54462C",
"j. c #54482F",
"k. c #55482F",
"l. c #594828",
"z. c #5C4A29",
"x. c #5F4C29",
"c. c #4B572D",
"v. c #5A4C30",
"b. c #614E2A",
"n. c #64502B",
"m. c #62502C",
"M. c #65512D",
"N. c #66522C",
"B. c #635232",
"V. c #635437",
"C. c #655434",
"Z. c #6C5834",
"A. c #3B8A37",
"S. c #3B8938",
"D. c #3B8A38",
/* pixels */
"      D.A.D.D.      ",
"    m ` v _ ` c     ",
"  p D K o o s.a L   ",
"y R 9.A j.v.U h.s.8 ",
"* N z.y s.f.D P 8 ~ ",
"%.3 l.C e.z.y P * =.",
">.d t.D e.z.D t.( 3.",
"{ n z.N l.b.C P 2 %.",
"{ 8 x.y l.n.V 4.2 O.",
"=.g l.C P l.C t.) 3.",
"$.5 l.N q.z.y q.* =.",
"E V b.V b.N.C P 8 { ",
"$.5 l.V 5.l.V e.) =.",
"<.g l.G P y.C y.) 3.",
"! y b.y z.n.N P 3 O.",
"{ e l.V y.b.N P 5 $.",
"=.g l.C P l.C y.) 3.",
"O.b l.V y.z.N 4.x =.",
"E V b.V z.n.N P 3 { ",
">.2 l.C q.l.V q.) 3.",
"=.g y.C P y.V y.) 3.",
"E n x.C x.n.y 4.& O.",
"{ 5 x.A y.b.N 5.g $.",
"<.g y.G 4.t.C 9.[ 3.",
"O.e l.V r.z.& V.0.=.",
"^ y b.V z.b.y f.8 #.",
":.5 y.D q.z.y C * 3.",
"$.g y.V P t.N r.* 3.",
"~ N b.D b.b.C P 3 } ",
":.8 z.Z q.l.N e.c =.",
"O.5 e.8 T T C e.d =.",
"< & C.h.k.v.D B.% h ",
"Z.L O . . . . o a.U ",
"  < O % 6 3 @ @ D   ",
"  s.D M.9.5.m.A R   ",
"      c.-.;.]       "
};
