/* XPM */
static char *_d80733baf904daf862e75d818f26a8bQbK6yFhb0actv5ey[] = {
/* columns rows colors chars-per-pixel */
"34 69 172 2 ",
"   c #10150F",
".  c #12140F",
"X  c #0F1314",
"o  c #121210",
"O  c #131311",
"+  c #111312",
"@  c #131313",
"#  c #121411",
"$  c #101413",
"%  c #131512",
"&  c #121413",
"*  c #141613",
"=  c #121315",
"-  c #131315",
";  c #111514",
":  c #131514",
">  c #131416",
",  c gray8",
"<  c #141615",
"1  c #141416",
"2  c #141517",
"3  c #272727",
"4  c #282627",
"5  c #262827",
"6  c #252429",
"7  c #252628",
"8  c #262628",
"9  c #262729",
"0  c #272729",
"q  c #25242A",
"w  c #26252A",
"e  c #26252B",
"r  c #27262B",
"t  c #27262C",
"y  c #282629",
"u  c #28262B",
"i  c #28272C",
"p  c #29272C",
"a  c #28272D",
"s  c #28282A",
"d  c #6F5D69",
"f  c #735B68",
"g  c #705C68",
"h  c #715D68",
"j  c #715D69",
"k  c #725C68",
"l  c #725C69",
"z  c #735D69",
"x  c #705F69",
"c  c #725E69",
"v  c #735D6A",
"b  c #705E6A",
"n  c #715F6B",
"m  c #725E6A",
"M  c #735F6A",
"N  c #735F6B",
"B  c #745C6A",
"V  c #745E6B",
"C  c #735C6C",
"Z  c #F64F60",
"A  c #F84F62",
"S  c #F55060",
"D  c #F75061",
"F  c #F65161",
"G  c #F85061",
"H  c #F85162",
"J  c #9B7791",
"K  c #9B7793",
"L  c #997694",
"P  c #987794",
"I  c #9B7695",
"U  c #9A7795",
"Y  c #9B7697",
"T  c #9A7797",
"R  c #9C7796",
"E  c #9A7891",
"W  c #9B7991",
"Q  c #997893",
"!  c #9B7992",
"~  c #9A7893",
"^  c #9A7A92",
"/  c #9C7A93",
"(  c #997895",
")  c #9A7994",
"_  c #9B7994",
"`  c #9B7A95",
"'  c #9B7896",
"]  c #9A7996",
"[  c #9C7894",
"{  c #9D7995",
"}  c #9C7A95",
"|  c #9C7997",
" . c #9B7898",
".. c #9C7999",
"X. c #FD8D99",
"o. c #FF8E98",
"O. c #FF8D9A",
"+. c #FD8F9A",
"@. c #FE8E9A",
"#. c #FF8E9B",
"$. c #FF8F9B",
"%. c #FD8F9C",
"&. c #FE8E9C",
"*. c #FF8E9D",
"=. c #FF8F9D",
"-. c #FF8D9E",
";. c #FF8F9E",
":. c #FF8F9F",
">. c #FF9097",
",. c #FF9099",
"<. c #FE909B",
"1. c #FF909C",
"2. c #FF919C",
"3. c #FE909D",
"4. c #FF909E",
"5. c #CDCDCB",
"6. c #CDCDCD",
"7. c #CECCCD",
"8. c #CECECC",
"9. c #CFCFCD",
"0. c #CFCDCE",
"q. c #CDCFCE",
"w. c #CECECE",
"e. c gray81",
"r. c #CED0CD",
"t. c #CFCDD0",
"y. c #CDCED0",
"u. c #CECED0",
"i. c #CFCFD1",
"p. c gray82",
"a. c #D1D1D3",
"s. c gray83",
"d. c #D5D5D5",
"f. c #D4D4D6",
"g. c #E1E1E1",
"h. c #E3E1E2",
"j. c #E1E3E2",
"k. c #E2E2E2",
"l. c #E4E4E2",
"z. c #E5E4E2",
"x. c #E5E5E3",
"c. c #E4E6E3",
"v. c #E5E3E4",
"b. c #E7E3E4",
"n. c #E5E3E6",
"m. c #E3E5E4",
"M. c #E4E4E4",
"N. c gray90",
"B. c #E6E4E5",
"V. c #E4E6E5",
"C. c #E6E6E4",
"Z. c #E4E4E6",
"A. c #E4E5E7",
"S. c #E5E5E7",
"D. c #E7E5E6",
"F. c #E6E4E7",
"G. c #E5E7E6",
"H. c #E6E6E6",
"J. c #E6E6E8",
"K. c #ECECEC",
"L. c gray93",
"P. c #ECECEE",
"I. c #FEFEFC",
"U. c #FFFEFC",
"Y. c #FEFFFD",
"T. c #FFFFFD",
"R. c #FFFDFE",
"E. c #FFFDFF",
"W. c #FEFEFE",
"Q. c #FFFEFF",
"!. c #FEFFFF",
"~. c white",
/* pixels */
"!.!.!.!.!.!.!.!.!.!.!.!.!.!.!.!.!.!.!.!.!.!.!.!.!.!.!.!.!.!.!.!.!.!.",
"!.!.!.!.!.!.!.!.!.!.!.!.!.!.!.!.!.!.!.!.!.!.!.!.!.!.!.!.!.!.!.!.!.!.",
"!.L.a.8.8.y.y.r.8.8.y.y.y.8.8.8.8.y.8.8.8.0.8.8.y.8.8.8.8.y.y.8.d.K.",
"!.f.h.B.B.B.B.B.| ( K K Y Y Y K | ( I [ J ( | | | ( B.B.B.V.B.B.h.a.",
"!.0.V.B.M.V.B.( & & : 9 u & u & | | 1 * & & & 1 & 2 I V.V.V.B.V.B.8.",
"!.8.B.V.B.B. .& & @ : s & 9 & W !.!.E & & & 4 * 3 & : P V.F.B.B.V.8.",
"!.8.B.B.V.( 9 u X & & & u & | !.E | !.|   u & & @ 3 @ @ I V.V.M.B.8.",
"!.8.x.B.( :   9 9 & & X & E !./ @ : K !.K @ & & @ @ 3 @ @ I V.B.V.8.",
"!.y.V.B.( : & @ 9 9 @ & / !.[ @ & @ & E !.| & & & @ 1 9 & ( x.M.M.8.",
"!.r.c.V.I 3 & & & u 9 I !.| | E I | J ( | !.I & & 9 : @ s E B.V.J.y.",
"!.8.B.B.E : 9 : * & 9 ( !.!.!.!.!.!.!.!.!.!.| @ & & 9 : : ( V.B.B.y.",
"!.8.B.B.( * @ 9 & 2 * 2 ( K | K | E I ( | E & * & & : 9 & ` B.M.B.8.",
"!.8.B.B.V.B.V.M.B.V.B.B.B.B.B.B.B.B.B.B.B.F.M.V.B.F.B.V.B.B.B.B.B.8.",
"!.!.@.1.!.f E M h M d d M M M d ( I d ( M I ( M M M I h M !.<.@.!.F ",
"!.!.=.@.!.M M E M M d I f M M ( !.!.I M I M I ( d M M ( h !.@.<.!.F ",
"!.!.<.@.!.I d h ( g M M ( d ( !.I J !.I M J M T I M M M | !.@.1.!.Z ",
"!.!.@.1.!.h K M M g M M f ( !.E M M I !.E M M M ( | z M M !.=.@.!.Z ",
"!.!.1.@.!.h C K d f M d E !.I M M M M I !.I g M C ( K z f !.@.=.!.F ",
"!.!.@.1.@.!.C M  .M h ( !.J E | I ( I | J !.I d h d I | !.@.@.=.!.Z ",
"!.0.!.@.@.<.!.M M E h I !.!.!.!.!.!.!.!.!.!.I M M M M !.=.@.@.!.B.t.",
"!.8.B.!.=.<.@.!.M M M M I | E | E | | K I I M M M M !.@.=.<.!.V.B.8.",
"!.8.V.B.!.@.1.@.!.!.!.!.!.!.!.!.!.!.!.!.!.!.!.!.!.!.@.@.@.!.B.V.B.8.",
"!.8.M.B.x.!.@.1.@.@.@.<.=.@.@.@.@.@.@.@.@.@.@.@.=.@.1.<.!.B.G.B.B.8.",
"!.8.B.M.B.B.!.:.1.@.1.@.@.<.=.=.1.@.@.<.1.=.@.@.1.@.<.!.B.B.B.V.B.y.",
"!.8.F.B.V.V.V.!.( I I | K K | K ( I | ( E | ( | ( K !.B.V.B.V.B.B.y.",
"!.8.J.B.J.B.B.( : 2 & 3 9 * 3 & | / : * & & & 2 . * | B.B.B.B.V.B.r.",
"!.r.B.B.B.B.I - & & & 9 @ 9 & I !.!.I & & * 5 & 9 & & I B.G.V.V.V.y.",
"!.y.V.B.B.| 9 9 & & & & 9 2 ( !.K | !.| & s & & & s & : ( V.M.B.B.8.",
"!.8.B.V. .& & 9 s 2 @ - & I !...2 & K !.E 2 & : & & u @ @ E B.V.B.y.",
"!.8.V.B.E & & & s s & & ( !.K @   2 @ ..!.( & @ @ & @ 9 & | B.B.B.8.",
"!.8.B.B.` 9 & & & 5 u  .!.E | / / K E ..| !.J * & 4 & & 4 E B.V.V.r.",
"!.8.B.B.( : 9 @ & & 3 E !.!.!.!.!.!.!.!.!.!.( @ & & 9 : & | B.B.B.y.",
"!.8.V.B.( & @ 3 & - X @ ( I E I | ( / ( ( I : : & : : s & E M.M.B.r.",
"!.r.B.B.V.B.V.B.B.M.x.M.B.V.V.F.B.B.B.B.B.B.V.B.V.B.B.B.B.B.B.B.J.8.",
"!.!.@.=.!.M ( M M d M M M M M M ( ( M ( M ( J M M d ( h x !.=.=.!.H ",
"!.!.@.@.!.M M I M M M ( M C M ( !.!.( h ( M | E M M M | h !.@.=.!.F ",
"!.!.@.@.!.K f M ( M d g K f I !.I P !.( M | M E ( M M M [ !.@.@.!.H ",
"!.!.=.1.!.M I M M M f M M / !.E M M | !.( N h M | ( M M g !.@.@.!.F ",
"!.!.@.1.!.M M ( g f M M / !.( M M M M J !.( M M M I I M M !.1.@.!.A ",
"!.!.1.@.@.!.d M E d M L !.| | I I E I T I !.I M d d J I !.=.@.<.!.A ",
"!.0.!.@.1.=.!.M M I M J !.!.!.!.!.!.!.!.!.I.( z h d M !.@.=.@.!.B.8.",
"!.8.B.!.<.<.@.!.M M M g | ( ( ..J ( ( I | I h M M M !.@.@.@.!.B.B.8.",
"!.8.F.B.!.@.@.>.!.!.!.!.!.!.!.!.!.!.!.!.!.!.!.!.!.!.@.@.=.!.B.B.B.y.",
"!.8.V.F.x.!.=.=.<.@.<.@.@.@.@.1.1.=.@.1.@.@.1.=.<.@.@.<.!.B.B.B.B.8.",
"!.8.V.B.B.B.!.<.@.=.@.@.@.@.@.=.<.@.1.@.1.=.=.@.@.1.@.!.B.B.V.B.B.r.",
"!.8.B.V.B.B.B.I.[ | / E ( J | | | | ( J ( | | ( I K !.B.M.V.B.V.B.8.",
"!.8.G.B.B.B.B.E & @ & u 9 - 4 & J T & & @ :   * &   ( B.G.B.V.B.V.8.",
"!.8.B.B.G.G.( & * & & u 2 9 2 ( !.!.( & & - 4 @ 9 & * ( B.V.B.B.B.y.",
"!.0.B.B.x.I 9 9 @ : & & 5 & I !./ ( !.K 2 u 2 - & 9 * 2 | B.B.V.B.8.",
"!.y.B.B.E & @ 9 u : & & & E !.| & & K !.K   : : & 2 4 @ & ( B.B.B.y.",
"!.8.V.B.| & & X 9 9 @ : I !.I & & * & I !.I & @ & & & u : ( M.V.V.y.",
"!.r.B.V.( 9 & : @ 9 9 I !.I | ( | ..E ( ..!.K @ @ 9 * & 9 E B.h.B.8.",
"!.8.B.B.( < t @ & & s ( !.!.!.!.!.!.!.!.!.!.( : * : 9 : : ( V.J.B.y.",
"!.y.J.B.( : & 9 < & & & / K | | / ( ..I / E 2 : @ : @ 9 : I B.V.B.r.",
"!.8.B.B.B.B.V.B.B.G.M.B.V.B.x.B.B.B.B.B.B.B.l.B.F.F.M.V.B.B.V.V.B.8.",
"!.!.1.1.!.d ( M N h g g M M h M ( ( M ( N ( ( M h M J M M !.1.=.!.F ",
"!.!.@.=.!.M M I h n M J f d M I !.!.E M I M I ( d M M J M !.@.=.!.F ",
"!.!.@.=.!.( d M / h M d I f I !.( I !.K M ( M I J M g M E !.@.@.!.F ",
"!.!.@.@.!.f ( M h M g f M I !.( M M I !.I M M M I ( M g M !.=.=.!.A ",
"!.!.@.@.!.M M E M M M d ( !.I M h M n I !.( d f M  .I M M !.=.=.!.Z ",
"!.!.@.1.=.!.z M P M M I !.| I ( E | | / ( !.I M M g I ( !.@.=.@.!.H ",
"!.0.!.1.@.=.!.M M I f J !.!.!.!.!.!.!.!.!.!.I f M M M !.@.@.@.!.B.8.",
"!.8.B.!.@.@.@.!.d M h M | E | | / | | | E  .M g d M !.=.=.@.!.B.B.8.",
"!.8.B.B.!.=.=.@.!.!.!.I.!.!.!.!.!.!.!.!.!.!.!.!.!.!.=.@.<.!.B.B.B.y.",
"!.8.B.B.V.!.<.@.@.1.@.1.@.1.@.1.@.1.@.1.@.1.@.1.@.1.@.1.!.B.B.B.x.8.",
"!.a.h.F.B.B.!.<.1.@.1.@.1.@.1.@.1.@.1.@.1.@.1.@.@.@.@.!.B.G.V.B.h.s.",
"!.L.f.8.0.y.8.!.!.!.!.!.!.!.!.!.!.!.!.!.!.!.!.!.!.!.!.8.8.8.y.r.a.K.",
"!.!.!.!.!.!.!.!.!.!.!.!.!.!.!.!.!.!.!.!.!.!.!.!.!.!.!.!.!.!.!.!.!.!.",
"!.!.!.!.!.!.!.!.!.!.!.!.!.!.!.!.!.!.!.!.!.!.!.!.!.!.!.!.!.!.!.!.!.!."
};
