/* XPM */
static char *_6ad4ecee2bc441aabc8171aedb1cb34J8071EZkmTvRXzG3[] = {
/* columns rows colors chars-per-pixel */
"50 50 68 1 ",
"  c #323E35",
". c #374137",
"X c #3B4731",
"o c #3E4933",
"O c #35433A",
"+ c #3A453C",
"@ c #3F493F",
"# c #404C36",
"$ c #40483F",
"% c #45503A",
"& c #3C4640",
"* c #3E4B42",
"= c #424E45",
"- c #454F48",
"; c #445146",
": c #485247",
"> c #46534A",
", c #4A554D",
"< c #4C594F",
"1 c #515B4F",
"2 c #4E5750",
"3 c #4D5B52",
"4 c #505753",
"5 c #525D54",
"6 c #565F59",
"7 c #4F6257",
"8 c #546256",
"9 c #596356",
"0 c #596953",
"q c #55645A",
"w c #5A655C",
"e c #56695D",
"r c #5B695D",
"t c #5E7655",
"y c #5E7856",
"u c #626C5E",
"i c #576961",
"p c #5D6B62",
"a c #5D7165",
"s c #5E7168",
"d c #626D64",
"f c #646F69",
"g c #637165",
"h c #687165",
"j c #647864",
"k c #6C7866",
"l c #64736A",
"z c #69756C",
"x c #65796B",
"c c #6B7A6E",
"v c #727F65",
"b c #6B7571",
"n c #6C7B72",
"m c #717D74",
"M c #747E79",
"N c #698056",
"B c #698758",
"V c #76935D",
"C c #6B816C",
"Z c #74896C",
"A c #7D976C",
"S c #6D8075",
"D c #6F8078",
"F c #738275",
"G c #748278",
"H c #79877F",
"J c #82A366",
"K c #7B8880",
/* pixels */
"===$=$-63*&&*&*ii7iii6iiiwfsiidffw66644466wdhbhuuu",
"$++ $-444*&&****7644i76i6ifsfbffdddww6wdhhhuhhhu66",
"6665wu6434336>*4744>**-*--i6d6f62,,24446644-::4hd6",
"665644,-,,,344437744*44>--,44fw446214:444:::44:4u6",
"4,,,4,->3,*,,>23447474--,>>,,6dwww42=-=---::-::$:4",
"54444,=,3*3,,>3,*44733i7,>>,2-4dd9664242442:::444:",
"2,223,--3,3*,,33,3333*77q2<44--6w96uu665422444944$",
"22,2,2>-*,*,,,,,3**34,33ieq66-=4596666992::444964:",
"222,2,>>>>->>>>23,>>,,=,53333>+,5165611014::4:444:",
"222222>*-*>>>>>>>>3>>>*>,,>,2=+,1,11691514:%::$-4:",
"441422>=>**,>->>,>,,>>>>->=>,:+,1>,599111995u1::4:",
"152255>=>>->>>>,,>2>>>>,>=>>>>o:11:<11166199::::44",
"442233>*>**>2,,3>*3*==>,>>-===.:61:11,,,:::1:$=4::",
">:==>2*O****,**& O***O&&**OO+=.=:$$:,:$%1:::=+::4:",
"=**=*=-3ii66ii6& &3,2,36q3,,q9$;===5u5:$:16hdhdhkh",
"qqeeiq32533556i*,isldipddlpplduru6uduu2:666uudkbhu",
"377733**>>>>*<eebzfprwwwip65r9659189dd:189619dddwu",
"333***3**>>*>*<7sirwqeeqq633q655<5519,.=<:15wuu66w",
"*7733*333>*7<>*<q8888qqq6q3398w91:<95:@=989duu955u",
"7**37**3>>*<*<<*8858888qq8q8q9q988<31<=3q5w99wurwu",
"3*3*3*7*3<*3*<**88770888888eq8w89q6:3>><q3w9rruuuu",
"*337*3733>7*7>7*88778888q888q8w88qw<3>>>68q0ru0u9u",
"*,373373337*7>>>887888888898q988q88q3,*,8e5uru0uuu",
"s77773337377>7>*qe8170e9qqqqrw8wwwqqq>*<q6drguu0uu",
"ii7737333333<*<*8te0errrertia98qrrew8;**>9ujkhuuuu",
"i7i3333333>>7**<*;7q973778q78883q7333**&=*:,;:::::",
"333,3**,***&*&**+*;;****;**@@*******=+;*+;<8<15511",
"3777e7*7pweqeeeiae77qqq5713373q83733>+,38q9e0u0901",
"7issi**eeeeippeaaeeqqeqqqq3673ee7333*O*338wr999919",
"777i73*3qqqqeeereaeeeeeqqeeq8,we7><**23338rr09,199",
"e777i7*783qreererr0ereweqqiwe>ew3<<*353539wer95909",
"iei7i**3q8qrreqqqe9eprweqiiee,ppii>>3iq8q9wruu519u",
"eeie3,*3i7wprr88wq8wweerrrpeq,epe33,qqq6qqwpgr919u",
"iiiii3*37irrw98qq9988wwrrpppq3ifi5>qqpiwwqwdguu1ud",
"ssias>*,iippr858w86888wrppppe3plp53epppppwpfzhu1ru",
"issas7*iipprerw5rw8rwpwpzppgw5pfiqepplzpppfxhgrrhl",
"sssssi>iaprrepw8rddwipppfppfi2piiddffllappdlxwddgg",
"lxxssi,iappr9uw5pzcrwpqqw33pp3p36ffzblgfppglxrggdd",
"llxsss,iepeqqq88ghnz9633332363>6pffzlxlappgxxczgdp",
"i737is3*,><<75,5qqw9q3,*>>*&==>3qpppppppapppdldrpd",
"iieess7*333733-,3358533>*&& O&--6wwwiqewe87733<<<,",
"SSCCSCsiepsisp5qw9pllcbzdp-,2--ppllffqpnnbbnxxhfpq",
"CcCxssi7eppllw3358pxzchzbzi-2--dgcbnbqlnnglncbnnzp",
"xxaCaasiippnlp,2qqgnnnnczzw264-4mzcMnesGGnGbnbnnnw",
"xtapsnsxliibf6>38plnncczlgw,2d&dcmzMzepnbbnzznnnnz",
"gr9qxDxKxniqpi2qgbbbFccldwd16b26bcMbbisnnlbxnbnbcm",
"000anDDnnxsppi>2nGnbnScduw96-4f6bbbbfqinnxnnFncncd",
"VAyjnsiixlslie*<bHGdxFmnhw1,6dp24bMMn8aSSGSngnbcd,",
"JByCGp7ieebsi<37bDGpbGSSmkh52ddf=dMvMdhMMmznmGhr:;",
"NZFCCnplpaisx3>isnKKbFxSmc6wd6dz=:hvvdfbMcffmk%X##"
};
