/* XPM */
static char *_e30a8fcaa9e4d54b50f5af6f9cbe6dcn2N4BE5hrzSU9T48[] = {
/* columns rows colors chars-per-pixel */
"42 49 206 2 ",
"   c #110D0D",
".  c #040413",
"X  c #090715",
"o  c #0C0A16",
"O  c #03031C",
"+  c #090718",
"@  c #0B0A1A",
"#  c #120F11",
"$  c #110D1E",
"%  c #0F1011",
"&  c #161316",
"*  c #1E1617",
"=  c #15121A",
"-  c #1B151C",
";  c #1D191C",
":  c #271A1A",
">  c #221A1C",
",  c #372A1F",
"<  c #000120",
"1  c #090622",
"2  c #0E0B23",
"3  c #0B0A28",
"4  c #190720",
"5  c #120B24",
"6  c #1A0F26",
"7  c #161325",
"8  c #1D1924",
"9  c #14132E",
"0  c #1C1A29",
"q  c #090938",
"w  c #191A36",
"e  c #241D25",
"r  c #2A1E22",
"t  c #261628",
"y  c #2A1A2B",
"u  c #361A28",
"i  c #331E2C",
"p  c #310D30",
"a  c #3D1F31",
"s  c #1F2039",
"d  c #272327",
"f  c #26232D",
"g  c #2A222C",
"h  c #382827",
"j  c #2D2530",
"k  c #2A2837",
"l  c #332C35",
"z  c #3C2C33",
"x  c #352D3D",
"c  c #2A3130",
"v  c #393338",
"b  c #3C343D",
"n  c #442F1E",
"m  c #402327",
"M  c #5A282E",
"N  c #4A3727",
"B  c #58372C",
"V  c #452833",
"C  c #4C2B33",
"Z  c #532D35",
"A  c #463639",
"S  c #543333",
"D  c #5B3535",
"F  c #622330",
"G  c #65393B",
"H  c #6B3B3D",
"J  c #713B3D",
"K  c #58442A",
"L  c #684539",
"P  c #72433B",
"I  c #76493B",
"U  c #7E523E",
"Y  c #1D175D",
"T  c #2E2C44",
"R  c #392C41",
"E  c #353647",
"W  c #3D3541",
"Q  c #3E3E52",
"!  c #531E41",
"~  c #522E42",
"^  c #443942",
"/  c #473F49",
"(  c #543B44",
")  c #6D3C4B",
"_  c #713B40",
"`  c #484148",
"'  c #4E454E",
"]  c #594649",
"[  c #4F4C5E",
"{  c #544B56",
"}  c #5A5255",
"|  c #664B44",
" . c #7B4441",
".. c #7D4B41",
"X. c #6F5D46",
"o. c #63564E",
"O. c #7B5A49",
"+. c #6C4C59",
"@. c #66565B",
"#. c #7B6A42",
"$. c #79674F",
"%. c #766557",
"&. c #4F4E61",
"*. c #555163",
"=. c #5A5565",
"-. c #6B5766",
";. c #726B6A",
":. c #6C6D77",
">. c #76737F",
",. c #973235",
"<. c #B3272F",
"1. c #C92D35",
"2. c #855A36",
"3. c #8F643A",
"4. c #966C3A",
"5. c #AE3C4F",
"6. c #D23C42",
"7. c #834341",
"8. c #824B44",
"9. c #845341",
"0. c #8B5347",
"q. c #8A5948",
"w. c #935A49",
"e. c #94594A",
"r. c #8C4F59",
"t. c #9A5655",
"y. c #B24F4B",
"u. c #9B6645",
"i. c #9A6749",
"p. c #8E774F",
"a. c #987348",
"s. c #9B734B",
"d. c #896F50",
"f. c #8D6955",
"g. c #996A58",
"h. c #AB654A",
"j. c #A56C4B",
"k. c #A5734A",
"l. c #AB744A",
"z. c #A67A4C",
"x. c #B47A4D",
"c. c #A26C54",
"v. c #A97956",
"b. c #805A66",
"n. c #AF4769",
"m. c #8C6B6B",
"M. c #946569",
"N. c #AA7268",
"B. c #9D834A",
"V. c #AA854D",
"C. c #B7844C",
"Z. c #A98456",
"A. c #B68555",
"S. c #B68557",
"D. c #91827E",
"F. c #B1856E",
"G. c #BD9564",
"H. c #C5894D",
"J. c #C28D53",
"K. c #CA9A54",
"L. c #D9A953",
"P. c #D5A95B",
"I. c #C99C61",
"U. c #C8977A",
"Y. c #D1A976",
"T. c #E7C67B",
"R. c #2F3087",
"E. c #797782",
"W. c #7D7B85",
"Q. c #8F7E86",
"!. c #AA7C81",
"~. c #DF5B83",
"^. c #858289",
"/. c #958D93",
"(. c #AA8788",
"). c #BC9C97",
"_. c #B9A09C",
"`. c #9F9FA0",
"'. c #84AFA9",
"]. c #A2A2A3",
"[. c #AEA7A9",
"{. c #B9A8A6",
"}. c #BBAFB0",
"|. c #B6B6B2",
" X c #BCB7B3",
".X c #C49F8D",
"XX c #E48A87",
"oX c #CBA889",
"OX c #E1A393",
"+X c #C3B4A9",
"@X c #C5B8B3",
"#X c #E7ACA6",
"$X c #E3C586",
"%X c #C3C3BD",
"&X c #ECD7A1",
"*X c #F5CCB9",
"=X c #C9C7C2",
"-X c #CACAC2",
";X c #D3CAC7",
":X c #D6D8CC",
">X c #DCDAD2",
",X c #E7D0CA",
"<X c #FCDAC3",
"1X c #E7E5DA",
"2X c #F9E6D5",
"3X c #EEEDE1",
/* pixels */
"< < < < < < < < < < < < < < O - O O < + < < < < < < < < < < < < < < < < < < < < < < ",
"< < < < < < t 5 < < < < < 2 W & ; u t = < < < < < < < < < < < < < < < < O < < < < < ",
"< 1 < < < < V L < 6 < < 0 { r j R r.n.4 < < < < < < < < < < < < < < < < < < < < < < ",
"< Z < < < < y V.~ C < O + e B ( -.-.~.! < < < < < < < < < < < < < < < < < < < < < < ",
"< y C < < 7 1 9.T.O.1 K s.| m.' c | 5.p < < < < < < < < < < < < < < < < < < < < < < ",
"< t i.< 5 ..| z.e.&Xk.T.| K Z.+.'.<XE < < < < < < < < < < < < < < < < < < < < < < < ",
"O t w.y a S.&X9.0.P.j.c.-.g #.o.m.*X( < < < < < < < < < < < < < < < < < < < < < < < ",
"< 5 _ H I P.S...J.i.e.M.b.9.B .XM.| 1 < < < < < < < < < < < < < < < < < < < < < < < ",
"< < a G h.e.u.J J w.oXg.j.U.S F.OX' 6 < < < < < < < < < < < < < < < < < < < < < < < ",
"< 1 i J 0.2.7.y.h.K.l.j.x.H.C.t.<X.X/.i < < < < < < < < < < < < < < < O < < < < < < ",
"O V q.S.T.L.K.K.K.j.I.Y.$XY.j.h.#X2X@X^.< < < < O < < < < < < < < < < < < < < < < < ",
"< G l.C.H.l.x.l.L.k._ ..g.0.G l.M.<X@X=XR < < < < < < < < < < < < < < < < < < < < < ",
"5 w.9.x.D B H P q.w.K.f.G q.t.d ,.M.+X[.S.2 < < < < < < < < < < < < < < < < < < < < ",
"6 k.H 8.: > > > S ..s.G.i.z > , s.,.@.r.K O < < < < < < < < < < < < < < < < < < < < ",
"6 L 5 Z : > > N a.w.G z A L & o V J M D + < < < < < < < < < < < < < < < < < < < < < ",
"2 1 < y P h * M l.9.F.' W e &   r 2.3.: o < < < < < < < < < < < < < < < < < < < < < ",
"< < < < S J D i.9.J L g d ; & d a.s.f.n - O < < < < < < < < < < < < < < < < < < < < ",
"< < < < 1 D i.i.G q.5 d o &   g d.m.{.4.; + < < < < < < < < < < < < < < < < < < < < ",
"< < < < < 1 D _  .U < O o h ; o.I.[.3XF.N o < < < < < < < < < < < < < < < < < < < < ",
"< < < < < < 1 C 8.t < O & B K.K.@X[.}.t.3.- < < < < < < < < < < < < < < < < < < < < ",
"< < < < < < < < V < < 5 h B.K.G.(.6.1.<.h.: O O < < < < < < < < < < < < < < < < < < ",
"< < < < < < < < O < < $ h p.Z..X!.XX1.XXh.m 8 O < < < < < < < < < < < < < < < < < < ",
"< < < < < < < < < < < @ 8 ' S.+Xy.#X6.#XN.B j e x T 9 < < < < < < < < < < < < < < < ",
"< < < < < < < < < < < + j { K.:X@X;X,X3X!.s.  l v X.z < < < < O < < < < < < < < < < ",
"< < < < < < < < < < O & ^ p.(.}.-.F._.@X*XS.; = f v.E.[ T 3 < < < < < < < < < < < < ",
"< < < < < < < < < O X d ` x.@X].z g.). X;.k.A o f X.|.|.`.Q.&.T 9 < < < < < < < < < ",
"< < < < < < < < < O ; l o.S.3X[ 0 o v %.@.S B.= 9 @ E :.|.1X=X`.W.=.T 3 < < < < < < ",
"< < < < < < < < O & y b $.N.3Xx f o @.D./ V Z.e O O < < < w :.%X1X-X].>.=.E 1 < < < ",
"< < < < < < < O + e g ' d.M.>X( 7 . W } ;.f H.l + < < < < O < < s W.=X:X=X].W.&.T 3 ",
"< < < < < < < O > y b ' V.^ =.d $ O @.' l 0 C.^ - O < < < < < < < < < Q E.|.:X=X].^.",
"< < < < < < O o e e / ' V.A b + < < d ' l O u.o.e O < < < < < < < < < < < < Q :.|.>X",
"< < < < < < O ; e j { $.s.W f O < O = b x + u p.r X < < < < < < < < < < < < < < < k ",
"< < < < < < .   e b ' $.w.' f < < < + g R - a p.> . < < < < < O < < < < < < < < < < ",
"O < < < < < . $ e / ' f.O.' 0 < < < < - x l r p.l O < < < < < < < < < < < < < < < < ",
"< < < < < < O & e ' ' s.] ' = < < < < . j x . C.l 1 < < < < < < < < < < < < < < O < ",
"< < < < < < O + e ' ' s.] ` @ < < < < + e x . l.e < < < < < < < < < < < < < < < < < ",
"< < < < < < < < 1 W o.j./ W . < < < < O - x . J < < < < < < < < < < < < < < < < < < ",
"< < < < < < < < < 2 K 3.^ b < < < < < O $ j . 2 < < < < < < < < < < < < < < < < < < ",
"< < < < < < < < < < e P l l < < < < < O # j . < < < < < < < < < < < < < < < < < < < ",
"< < < < < < < < < < O 2 d g < < < < < O O e . < < < < < < < < < < < < < < < < < < < ",
"< < < < < < < < < < < < 8 d < < < < < < O e w O < < < < < < < < < < < < < < < < < < ",
"< < < < < < < < < < < 3 k l w < < < < < *.} W.< < < < < < < < < < < < < < < < < < < ",
"< < < < < < < < < < < T ;X].Q O < < < < /.{.=Xw < < < < < < < < < < < < < < O < < < ",
"< < < < < < < < < < < &.[.) W.< < < < 3 +.F ;.*.< < < < < < < < < < < < < < O O < < ",
"< < < < < < < < < < 3 / m M f < < < < O 8 ~ - < < < < < < < < < < < < O < < < . < < ",
"< < < < < < < < < < < O # R x 7 < < < < x W o < < < < < < < < < < < < < < 1 Y Y < < ",
"< < < < < < < < < < < < . ; W j < < < O o o < < < < < < < < < < < < < < < q R.Y < < ",
"< < < < < < < < < < < O O O + 1 < < < < < O < < < < < < < < < < < < < < < < q < < < ",
"< < < < < < 1 < < < < < < < < 3 < < < < < < < < < 3 < < < < < < < < < < < < 1 < < < "
};
