/* XPM */
static char *_6df67eb136444fdb3bfb0ede503ce13mGdI3LXgbMlmG471[] = {
/* columns rows colors chars-per-pixel */
"42 49 188 2 ",
"   c #0E0B0B",
".  c #120D0E",
"X  c #030416",
"o  c #0C0A14",
"O  c #03031C",
"+  c #0B0619",
"@  c #0C0A1C",
"#  c #120F13",
"$  c #110C1A",
"%  c #131214",
"&  c #1A1317",
"*  c #16141C",
"=  c #1B151B",
"-  c #1D1A1D",
";  c #21181C",
":  c #29191C",
">  c #39201F",
",  c #000120",
"<  c #0C0522",
"1  c #0C0B24",
"2  c #0B0B29",
"3  c #190A29",
"4  c #0F102C",
"5  c #151521",
"6  c #1B1524",
"7  c #1E1B24",
"8  c #13122F",
"9  c #1F1D2A",
"0  c #0C0835",
"q  c #090938",
"w  c #1A1834",
"e  c #1D153F",
"r  c #241D24",
"t  c #2C1A21",
"y  c #231228",
"u  c #241D2B",
"i  c #341C2B",
"p  c #3A1929",
"a  c #231B34",
"s  c #1F2039",
"d  c #2B2224",
"f  c #25222B",
"g  c #2A242C",
"h  c #2C2B2E",
"j  c #342828",
"k  c #2D2633",
"l  c #2A2635",
"z  c #3D2431",
"x  c #332C35",
"c  c #362E3D",
"v  c #363133",
"b  c #37343D",
"n  c #3B333C",
"m  c #452926",
"M  c #443228",
"N  c #5B3D2A",
"B  c #462232",
"V  c #48353B",
"C  c #583539",
"Z  c #70212B",
"A  c #6F2937",
"S  c #663937",
"D  c #653B3B",
"F  c #584531",
"G  c #6B512F",
"H  c #704D37",
"J  c #1D175D",
"K  c #2E2E45",
"L  c #3D2C40",
"P  c #393446",
"I  c #3A3850",
"U  c #423A44",
"Y  c #4A3A45",
"T  c #453D49",
"R  c #663040",
"E  c #4D454E",
"W  c #534847",
"Q  c #464357",
"!  c #4E4B5D",
"~  c #524752",
"^  c #644948",
"/  c #6F5D45",
"(  c #64574F",
")  c #6E5F4F",
"_  c #674C53",
"`  c #794E51",
"'  c #61575C",
"]  c #6A555A",
"[  c #7A5253",
"{  c #74624B",
"}  c #7C6749",
"|  c #7F6850",
" . c #555264",
".. c #645562",
"X. c #6B5B65",
"o. c #7E686E",
"O. c #7E706B",
"+. c #716273",
"@. c #79727B",
"#. c #A72E36",
"$. c #83533C",
"%. c #866834",
"&. c #97693C",
"*. c #8F304F",
"=. c #AA394F",
"-. c #D23C42",
";. c #895846",
":. c #935D45",
">. c #A8555F",
",. c #8B6A46",
"<. c #966847",
"1. c #8E774F",
"2. c #816055",
"3. c #A16C41",
"4. c #A67447",
"5. c #B57F47",
"6. c #B5754B",
"7. c #A67655",
"8. c #8D556F",
"9. c #AA4D6E",
"0. c #886A68",
"q. c #926466",
"w. c #8F7972",
"e. c #96757A",
"r. c #A57669",
"t. c #B4756E",
"y. c #D54E53",
"u. c #C77679",
"i. c #8B8853",
"p. c #A3874F",
"a. c #AD844C",
"s. c #B3884E",
"d. c #AC8D57",
"f. c #B78657",
"g. c #BE9359",
"h. c #BF9369",
"j. c #AD8873",
"k. c #B58674",
"l. c #B48678",
"z. c #B6AB76",
"x. c #C8894F",
"c. c #CF964C",
"v. c #CC9556",
"b. c #E7BB5B",
"n. c #C5867D",
"m. c #C09179",
"M. c #2F3087",
"N. c #797782",
"B. c #7D7C85",
"V. c #816F81",
"C. c #927686",
"Z. c #E46489",
"A. c #5B9BB1",
"S. c #85848B",
"D. c #958387",
"F. c #8A8B90",
"G. c #948F94",
"H. c #96949A",
"J. c #9A9A9D",
"K. c #B78E88",
"L. c #A79596",
"P. c #BE9390",
"I. c #A7A6A6",
"U. c #A8AAA5",
"Y. c #ACACAA",
"T. c #B9A3A3",
"R. c #B2B1AD",
"E. c #B4B4B1",
"W. c #BBB6B5",
"Q. c #D18B86",
"!. c #C4B19E",
"~. c #EAA49E",
"^. c #C3AEA0",
"/. c #C8B5AE",
"(. c #C6BBB8",
"). c #E4B8AA",
"_. c #C3C0BE",
"`. c #D8C9BC",
"'. c #F8CCB4",
"]. c #C8C8C1",
"[. c #D4CCC5",
"{. c #D6CFCE",
"}. c #D3D3CA",
"|. c #F8DAC8",
" X c #E5DDD3",
".X c #E6E5D9",
"XX c #E9E7DB",
"oX c #F5F3E7",
/* pixels */
", , , , , , , , , , , , , , O O , , O , , , , , , , , , , , , , , , , , , , , , , , ",
", , , , , , , , , , , , O 1 % @ , , + , , , , , , , , , , , , , , , , , , , , , , , ",
", , , , , , , , , , , , 9 n * - p u @ , , , , , , , , , , , , , , , , , , , , , , , ",
", , , , , , , , , , O c T : x n 9.*.< , , , , , , , , , , , , , , , , , , , , , , , ",
", , , , , , , , , , , * ; $.X.~ 8.Z.3 , , , , , , , , , , , , , , , , , , , , , , , ",
", , , , , , , , , , , @ N ~ W h Y =.3 , , , , , , , , , , , , , , , , , , , , , , , ",
", , , , , , , , , , O r ;.{ D.U./.k , , , , , , , , , , , , , , , , , , , , , , , , ",
", , , , , , , , , , l E d i.X.|.).V , , , , , , , , , , , , , , , , , , , , , , , , ",
", , , , , , , , , , V.[ C ,.t.t.V 1 , , , , , , , , , , , , , , , , , , , , , , , , ",
", , , , , , , , , u ] :.x.> '.r.h , , , , , , , , , , , , , , , , , , , , , , , , , ",
", , , , , , , O P +.D b.b.6.Q.).L.o.< , , , , , , , , , , , , , , , , , , , , , , , ",
", , , < ` y a < C.R 6.v.x.z.r.|.|.W.! 2 , , , , , , , , , , , , , , , , , , , , , , ",
", , , z l.r.n.Y +.x ;.f.:.A.v.K.'.(..Xe.< , , , , , , , , , , , , , , , , , , , , , ",
", , , 6 j c V ^ 6 H b.c.t.;.%.#.q.W.[.x.y , , , , , , , , , , , , , , , , , , , , , ",
", , , , X & f x * V D 0.2.C v 4.Z ..q.F O , , , , , , , , , , , , , , , , , , , , , ",
", , , , , 0 e r g h M | m . . z A S > X , , , , , , , , , , , , , , , , , , , , , , ",
", , , , , , q @ v P v F ; % . M H 6.j + , , , , , , , , , , , , , , , , , , , , , , ",
", , , , , , , , @ h b r . - - H <.7.m @ , , , , , , , , , , , , , , , , , , , , , , ",
", , , , , , , , 1 -   % - % x { k.L.4.$ , , , , , , , , , , , , , , , , , , , , , , ",
", , , , , , , , 7 , - % . - / 7.W..Xf.. , , , , , , , , , , , , , , , , , , , , , , ",
", , , , , , , , , , - ; ,.d.v.`._.[.q.$.  O , , , , , , , , , , , , , , , , , , , , ",
", , , , , , , , , , O j ,.x.j.T.>.>.#.3.X O , , , , , , , , , , , , , , , , , , , , ",
", , , , , , , , , , j G p.h._.u.n.y.~.6.+ O , , , , , , , , , , , , , , , , , , , , ",
", , , , , , , , , , # v 1.l.(.y.u.-.~.5.  O , , , , , , , , , , , , , , , , , , , , ",
", , , , , , , , , O - U s. XW.{.{.oX.Xe.N o a P , , , , , , , , , , , , , , , , , , ",
", , , , , , , , ,   x ) 7.[.K.] Q./.`.P.G g P v a , , , , , , , , , , , , , , , , , ",
", , , , , , , , O - P } l.].r.C K.^.!.F ,.r k d.X.w O O , , , , , , , , , , , , , , ",
", , , , , , , O # g E 4./.Y.# # r E O.  5.r f ,.J.S.! w , , , , , , , , , , , , , , ",
", , , , , , , @ r P ( g. X@.* @ V L.' - 5.g 7 r A..XI.N.! 8 , , , , , , , , , , , , ",
", , , , , , O = r E ( m.oXe.j O h E w.* <.W @ O   4 J.XXY.B.! 2 , , , , , , , , , , ",
", , , , , O # r h E a._ G...% O ' ' v f H ) ; O X O , l F.}.Y.S. .8 , , , , , , , , ",
", , , , , o r f E ~ s.z E f , O h ~ h , D } k + , O , , , w F.}.E.F.! e , , , , , , ",
", , , , X ; t x E ~ 4.r U r , O u E h O C } c & O , , , , , , K B.].E.B.! w , , , , ",
", , , O % = d U ~ ) H V n $ , , $ n n + 3 s.v . , , , , , , , , , s U..XI.N.Q 8 , , ",
", , , X . = x E E p.V E c O , , O g n 6 1 a.U + , , , , , , , , , , , 4 J.XXU.B.! 2 ",
", , , , o ; P ~ E g.Y E f O , , O $ c k $ a.U $ , , , , , , , , , , , , , l J.}.Y.F.",
", , , , O * T E E 5.U E r , , , , $ g n $ a.n O , , , , , , , , , , , , , , , s ! E.",
", , , , , O x E ( &.U E # , , , , X r c $ :.6 , , , , , , , , , , , , , , , , , , , ",
", , , , , , 1 T 1.m P U @ , , , , X r k $ B , , , , , , , , , , , , , , , , , , , , ",
", , , , , , O $ ,.p v V O , , , , , # g X , , , , , , , , , , , , , , , , , , , , , ",
", , , , , , , , i i u n O O , , , , o u X O , , , , , , , , , , , , , , , , , , , , ",
", , , , , , , , , , * c O O , , , , X r @ , , , , , , , , , , , , , , , , , , , , , ",
", , , , , , , , , , 5 k 1 , , , , , P P  ., , , , , , , , , , , , , , , , , , , , , ",
", , , , , , , , , , I.G. ., , , , O J.W.J.2 , , , , , , , , , , , , , , , , , , , , ",
", , , , , , , , , I {.C.H.2 , , , K e.R R.K , , , , , , , , , , , , , , , , , , , , ",
", , , , , , , , , w.X.Z C 8 , , , O t A 5 l , , , , , , , , , , , , , , , , , , , , ",
", , , , , , , , , O t L f , , , , O c P # , , , , , , , , , , , , , , , , < J q , , ",
", , , , , , , , , , $ k T 6 , , O O r 7 O , , , , , , , , , , , , , , , , q M.J , , ",
", , , , , , , , , , O o r @ , , , , O O , , , , , , , , , , , , , , , , , , q , , , "
};
