/* XPM */
static char *e627718c962741e5ddc72a1053275dbfabpAidSry8eenGYs[] = {
/* columns rows colors chars-per-pixel */
"50 51 75 1 ",
"  c #000000",
". c #080707",
"X c #090807",
"o c #090708",
"O c #0B0A0A",
"+ c #120D0E",
"@ c #1B0E0D",
"# c #1B100F",
"$ c #130F11",
"% c #161213",
"& c #1B1414",
"* c #1E1817",
"= c #1C1619",
"- c #1D1A1B",
"; c #201514",
": c #201817",
"> c #211C1D",
", c #1D1D22",
"< c #231F20",
"1 c #1E2125",
"2 c #1D242E",
"3 c #1E2631",
"4 c #1D2A36",
"5 c #1C2C3A",
"6 c #252222",
"7 c #2A2425",
"8 c #202128",
"9 c #2C2629",
"0 c #2C292A",
"q c #31272C",
"w c #322C2E",
"e c #34302E",
"r c #232F3C",
"t c #352E31",
"y c #392F33",
"u c #353132",
"i c #3B3335",
"p c #3E3439",
"a c #3D393A",
"s c #41353B",
"d c #423B3D",
"f c #1C3043",
"g c #1C3448",
"h c #193752",
"j c #1D3B54",
"k c #463C41",
"l c #493E44",
"z c #1F425D",
"x c #174063",
"c c #16466D",
"v c #164A73",
"b c #154E7A",
"n c #464142",
"m c #4B4245",
"M c #4D4449",
"N c #4E494B",
"B c #50474C",
"V c #524A4D",
"C c #564E52",
"Z c #584F53",
"A c #575151",
"S c #585255",
"D c #5B5758",
"F c #5F5859",
"G c #615C5C",
"H c #6D696B",
"J c #777372",
"K c #165384",
"L c #155588",
"P c #135D98",
"I c #156097",
"U c #106DB0",
"Y c #0D7DCB",
"T c #0C81D1",
"R c #0B89DD",
/* pixels */
"                                                  ",
"         $-<=O                                    ",
"      >wlkkkkk0.                                  ",
"    XalllllsklMk<X                                ",
"    -dMllBNMBllBNl<                               ",
"     %0nCNMllBCllsyy0O                            ",
"       %7kBMBCVMkkkksly,.                         ",
"        @&6MBCVmllpsskMla<.                       ",
"        O&@*9dVllssipslllkkt<                     ",
"        O*&#@&6aMllmllllMllMBk<X                  ",
"        .:>-&&@&7akmBMlllmMBCNlViO                ",
"        .$%-<=&%@&>uMBMlMMMMCClMCN9O              ",
"        .%&=====&#@%<dCNBBBZCCCBASCk=             ",
"        .==::%+&>=%#@%<aCSZFCCBBMNCMMw            ",
"         --%=$$%<:-*&@%$<dSZClllMMAVa-            ",
"         <==&&$-77>>>==&$=<lSSVBAVi-.             ",
"         &:<-=%-77>7>:>::;#*9NDAe*%$              ",
"        o&=:=%$&>97776:>>6&;#*e<%%*>              ",
"        o&=%=$$$777796>6>>>>:&+&-6pu              ",
"        .&%%=$$%77>:>7>6667;<7:6aVm>              ",
"        o,==-$$@>;@@@#&-7><:*=7mMsy:              ",
"        o=<::%$=;@&;*;&&:97=*=:tdq<>              ",
"         ===>&++@>4r<ch#&>7-%&=py>7<              ",
"         %&==$++;:fv-Lb-@&>>=&*w77q>              ",
"         $%&=$+O@:>,6r3>>;*><==qtss7              ",
"         $===%$$&&&-zIz>g8=->>60ds7>              ",
"         %>==%$@&@#-xPLjv5;:==>nsqq<              ",
"         $=,>:%$**&5YUc5>-:==*>tq77:              ",
"         %&->=$%;=:gTRc=&->:&==yy97&              ",
"         ===-&O%*>3fLTv,##&7-==ttqq>              ",
"        X===-%+%::188KKg;#&>>6>qinV&              ",
"        .>:==$%%6*->:rr0>>:==>7wBuwO              ",
"         =,>-%%=66**>bz%b5>>==:ytqq$              ",
"        +=%--==%106*-bz>53>>:=:pqqp.              ",
"     .O--=%---$%6071*11:>:*6>=;tpsy.              ",
"    $----%%=-%%%67777***&##6<>:dllNO              ",
" .$--,--*-*%=%%,07e769><:*>:><>uVFmX              ",
"O=-<<,,---7-=%%%670070<9007:==>lmmlX              ",
" O68<1<<00-27<-%7,6600<7907:=->ysds.              ",
"  .-67ua1%%%-rnD,*%-7710077>-:>siysX              ",
"    1N061-*%-%-uu-%%-%%0999<>>:disd$              ",
"     .$-1<,----%-eu-%%--<9<<777wiZV=              ",
"        X+<<,-,--%6n0-%*,<<=&>7wmsd<              ",
"           O%<110au1110a0-<:%=>7isd7              ",
"             X%ea071<=-ui--=&=-<sddd              ",
"                 %00786-8w0<--:<lldlO             ",
"                  $ee0ue000uw<<8ddlmnt.           ",
"                    -adaadNGGduidmmmmmm%          ",
"                      7dGJHNNnnNANNNm6%           ",
"                       XuNNnMnnNNAmw.             ",
"                          %0070uyee.              "
};
