/* XPM */
static char *_7f7bfc083b24cddc285cf957e954ac4syQmsEbqOW7bET17[] = {
/* columns rows colors chars-per-pixel */
"50 50 128 2 ",
"   c #0E2536",
".  c #0F2A37",
"X  c #0E2639",
"o  c #0E293D",
"O  c #102636",
"+  c #132937",
"@  c #11263A",
"#  c #142A3C",
"$  c #182D3E",
"%  c #15303E",
"&  c #1A303E",
"*  c #0E2C42",
"=  c #142D42",
"-  c #182F43",
";  c #0E3147",
":  c #0F384C",
">  c #153145",
",  c #1B3144",
"<  c #153947",
"1  c #15344A",
"2  c #1B354A",
"3  c #15394D",
"4  c #1B394E",
"5  c #173750",
"6  c #163D53",
"7  c #1C3C52",
"8  c #1D3F58",
"9  c #203747",
"0  c #21374B",
"q  c #22394E",
"w  c #223D53",
"e  c #293F56",
"r  c #174052",
"t  c #1D4155",
"y  c #1E425A",
"u  c #1E485E",
"i  c #214156",
"p  c #284555",
"a  c #23445B",
"s  c #29465C",
"d  c #25495E",
"f  c #29495E",
"g  c #244661",
"h  c #254B63",
"j  c #2A4C64",
"k  c #2B4E69",
"l  c #235067",
"z  c #2B5265",
"x  c #2D546A",
"c  c #32546B",
"v  c #33596E",
"b  c #2F5770",
"n  c #2E5C73",
"m  c #325772",
"M  c #355B73",
"N  c #395C74",
"B  c #375E78",
"V  c #3B5E79",
"C  c #336077",
"Z  c #3B6275",
"A  c #356279",
"S  c #3D647C",
"D  c #3F697F",
"F  c #42697D",
"G  c #3E6380",
"H  c #3F6B84",
"J  c #3F6D84",
"K  c #3E6A81",
"L  c #416681",
"P  c #426781",
"I  c #406784",
"U  c #416A80",
"Y  c #406A82",
"T  c #416B83",
"R  c #426C82",
"E  c #406985",
"W  c #436B84",
"Q  c #406D84",
"!  c #406C85",
"~  c #436D85",
"^  c #416E85",
"/  c #416D86",
"(  c #416F86",
")  c #426F86",
"_  c #436B82",
"`  c #467086",
"'  c #477086",
"]  c #467085",
"[  c #4A7083",
"{  c #447089",
"}  c #477189",
"|  c #457289",
" . c #47738C",
".. c #46748C",
"X. c #487288",
"o. c #4B7488",
"O. c #4E738E",
"+. c #4C768C",
"@. c #4E778D",
"#. c #4C748E",
"$. c #4A7489",
"%. c #4F788E",
"&. c #4D7A8F",
"*. c #53798C",
"=. c #4B7991",
"-. c #4D7E9C",
";. c #517992",
":. c #507D94",
">. c #517F97",
",. c #567F95",
"<. c #517B91",
"1. c #577F98",
"2. c #578096",
"3. c #568096",
"4. c #5A8095",
"5. c #588197",
"6. c #5A8097",
"7. c #50819F",
"8. c #54839D",
"9. c #54819E",
"0. c #5B839C",
"q. c #5A849A",
"w. c #5382A0",
"e. c #5583A4",
"r. c #5485A5",
"t. c #5988A6",
"y. c #5A8BAB",
"u. c #5D8BAC",
/* pixels */
"1 1 4 3 1 > ; * * ; 1 5 5 6 8 i s g g a g 5 a g 8 8 7 k V O.O.K ^ ..{ H S m g g 8 7 i z D =.8.t.r.y.",
"> 4 1 1 1 > ; * * * * ; 5 5 8 a f a g a g 6 8 g i i 1 6 a L I E | ] { K K K B h y 7 2 4 h K 3.7.r.y.",
"1 > 1 ; ; o o ; ; 5 ; * > 1 5 a g a a g g 5 y g i 7 2 y g g m E J ^ { J E K S h 6 i t 1 t g G 8.-.w.",
"> 1 > * o * * > > 1 5 < ; * 1 6 i g a g a 8 y y y i 3 a h h g v C J J J ^ K B x y t t t a u l n =. .",
"= 1 * * * ; ; > 2 4 7 7 5 * ; 5 8 w a g a 8 8 w s 7 2 g b B B 8 u h A F F D Z n z t 5 h Z | m y l A ",
"* ; > * ; ; > > 3 5 3 5 5 ; * 1 8 y g g g 8 8 8 g 7 5 j m m G b u y h N F Z n v x r 6 P X.@.] b r h ",
"= ; ; * > ; > > 3 5 5 7 5 ; * 1 8 8 g g a 8 8 y a 8 4 j m B G B z 5 3 p z x x z u r M =.6.,.o.x : u ",
"= > < * < ; > < 1 5 7 5 5 ; ; > 5 a g g g 8 7 8 d 7 5 g c B V m j i 4 4 t p a t r x =.0.1.*.F t 6 3 ",
"1 = 1 1 = 1 1 1 > 5 q 5 3 > > 3 7 8 y w a w 5 a a t 7 t j N Z M j f w 7 5 6 3 t z +.2.3.q.F d < < 3 ",
"= 1 1 = * 2 2 1 5 5 7 q 4 ; ; 1 7 4 8 8 a i 8 a d t t d z N V N c a e 8 5 7 t x ] &.q.3.*.z r r < 7 ",
"= > > > * 1 2 2 1 5 5 5 1 > > 5 q 5 7 7 8 7 5 a i t 6 a j v N N c i a 7 5 y c P o.*.3.] Z r t d 4 i ",
"* * = 2 * = = ; = > > > ; ; > 1 t 7 7 8 8 1 > 5 7 7 1 t f k v v k i 8 8 a x F ] ] $.Z v r d x Z z r ",
"o * = * @ * = = > 1 2 2 5 w * 5 w 7 6 8 8 1 1 a a a w 6 4 t a d s 8 7 s c Z Z Z C v d t t Z _ _ D z ",
"o * * * = > 2 5 2 2 5 q w 2 * 1 7 t 7 7 6 5 1 8 g g h g s 5 3 4 7 a d j f x v x r r < r i M U X.X.U ",
"o * X * = = 1 > 1 2 2 5 5 5 * 1 7 7 7 8 8 > = 8 8 a g j x x a 7 4 r a j j z x d r < < r a x A K | { ",
"* o * * = ; > > > > 1 2 2 1 * > 7 7 7 7 6 5 > 8 i g g j j c c x j t r t i d t r t < % > < z m S D ] ",
"* = = = = 1 > 1 > > > > > = = 1 1 2 4 4 5 4 > 7 a a a g k x m N M b x j 8 5 3 i i > 4 i t 3 l M P ~ ",
"* * = > = = 1 > 2 1 > > > * * 1 2 2 1 > < > ; 5 e a a g j j k k x M B V V j a 4 4 4 p d s 7 3 j Z F ",
"* = = 1 1 > > > = 1 > > > = X ; > 5 2 2 1 * * 1 5 t 7 w g g g g g h h x m N N s t 4 i a z f 3 t j Z ",
"o @ = = 2 > > > 1 = > > > * X = 1 2 > > = ; > 1 > 5 1 7 e j y y a h g s j v N N p i t d f j s 1 3 c ",
"@ * # = $ > > > = * = o o o X = 2 = = > 1 4 3 4 4 > * ; 5 8 a 6 g a d d j k k c v x j i i i t t 1 f ",
"o = # = > > % $ * @ o X o o * * = = = 1 1 4 1 4 1 2 1 * * * y w y y a d g g g g k x c j i q 4 2 > 3 ",
". # * # > > = o o = = * = * * o * = 4 2 4 4 4 2 1 2 * > 4 7 5 4 1 1 w j g g g g a k c c d 7 4 7 i < ",
"+ o o > # = o o = - - = = = X * = 5 4 1 2 4 1 1 > o > 4 i a i 7 o * 4 s s f g g a h s k k p i i s < ",
"o # - = = = - # = - - 2 1 = = 2 4 4 4 4 4 4 1 o . * 1 4 w s a 7 > X o * ; 4 w a a g j d d f i 4 q > ",
". # # # = - > o = 2 2 1 * = 2 2 2 > 2 1 > = = o o o 1 4 i a a 7 = * * * = > 5 w s s a i a s a i 4 4 ",
"# = X = - > > = = 1 1 = = - 2 2 2 1 1 2 = * o o . * 1 4 i i i w = = * = = o = > w w i i a i p i 4 t ",
". o @ > > > - o = 1 = * - 1 1 1 2 2 = = o = . o X o 2 3 a f a w = o = = = * o = = 8 i i a a t 7 i 7 ",
"@ X = - , - - @ = = @ = 2 2 1 - 0 - = = > - . . . o 2 4 a s a w = o $ = o # # o = 4 6 a a t i i t 4 ",
"@ @ = 1 > $ = @ = * * = 2 2 1 0 = = @ = - > + . X = 2 7 e a w w * - # o # * o o * > w i i i 7 w w 4 ",
"+ # - - - - - = * @ > > 2 2 2 , = @ = - $ & # X   o 1 4 a a w w o # + # - # o # * = 5 a a 7 7 7 7 7 ",
"@ = = - = - - # @ = 0 > > , 2 = @ = = - , - + . . # 4 5 a g w 8 > . # # % > - 2 = 4 5 4 i 4 4 7 4 i ",
"+ $ $ # $ - = @ @ , 0 - - , - @ - - - - - $ @ @ - $ 2 4 i p i w $   # % & , > o 4 7 8 2 = 7 4 7 4 w ",
"# $ # # - - - @ - , - - 0 0 - @ @ - - - = $ @ $ $ - 4 2 i a w w =   # & > # # > q 7 w 4 = 2 4 4 7 7 ",
"@ $ # + $ - = @ , , , = , 0 = @ = - - - - - - @ # = 2 4 i a w w -   - , $ o # 4 4 7 w 0 > = 2 2 4 7 ",
"@ = + # = = @ - , 0 - - 0 - @ = - - - = - , $ @ @ = 2 2 i i w q -   $ , # @ - 4 4 4 4 2 = = = 2 4 w ",
"$ @ @ @ $ # X - 0 0 - 0 - @ - = @ - = = - 2 - @ @ = 1 2 w w w 7 -   $ - # # 2 0 2 2 2 = = @ = - w w ",
"@ - $ @ # @ = , 0 , , , - = - - @ - - = - - , # @ = 2 2 a w w 4 - X - & # # 2 0 q 2 = @ , = = - 2 7 ",
"$ $ $ @ = = $ 0 , - 0 0 @ - , - @ # - - 2 - , $ @ = 2 2 8 w w q -   $ , # @ 0 4 5 0 @ @ - = = - - w ",
"@ $ $ X @ = $ - , - , , - - 9 $ @ @ - , 2 - , $ O $ 2 0 7 i 7 4 -   # > - @ 2 0 0 2 @ = @ = - 2 2 w ",
"$ $ - + @ - - 0 0 , 0 - - - - @ O O $ $ - $ & , @ = 0 5 w 5 q 2 > + $ % % . 2 q 0 2 @ = = = , e - > ",
"$ $ $ O @ @ - - , 0 0 - - - - @ O O # $ $ $ , $ @ - 2 2 q q 5 2 > . $ > % % 2 4 q 2 = @ = @ 0 e 2 > ",
"@ $ @ @ @ @ - 0 , 2 2 - , $ @ @ $ O $ , $ $ , , @ - 0 2 5 q q 0 , + $ , , # 2 q q - @ = - @ - e q > ",
"$ $ $ @ @ - - 0 0 2 0 - , , $ @ $ O @ , $ - & $ @ - 0 5 q 5 5 0 = + $ & > o 0 4 5 - * = - = - 0 w > ",
"O $ + O @ $ - , - 0 0 , $ $ O O & , $ + $ - - $ @ , 0 q w 2 q 2 - + $ - & # 0 0 2 % + # - = - e 2 > ",
"+ $ + @ @ - - , 0 0 0 , - $ + $ & , + + $ $ - $ @ , 0 q q 5 5 q > # $ , > # 0 4 2 > + # - 2 = 5 # > ",
"+ + $ O @ - - 0 0 0 0 - - + + & & $ - @ $ $ - @ @ , 2 w q q w 0 , # $ , , $ q 9 2 % + # - - = @ - > ",
"+ + $ + @ - 0 - 0 0 0 9 - + $ & & - - $ @ - - - = , 5 q q 5 w 0 , # - , , - 9 9 < % + # - - @ - # % ",
"+ $ + $ $ - , 9 0 0 , - - $ $ $ - - - $ $ O $ $ @ - 0 0 e 0 q 0 , # = , - # 2 2 & % & % % + $ # . # ",
"+ $ + + $ - , 9 0 0 0 - - @ - - - 9 9 $ + + + $ $ , 0 e q 2 0 0 , # - , - + & & % & & $ % % + $ % 4 "
};
